<svg width="306" height="228" viewBox="0 0 306 228" fill="none" xmlns="http://www.w3.org/2000/svg">
<path d="M305.995 200.363H0.00463867V200.516H305.995V200.363Z" fill="#EBEBEB"/>
<path d="M193.189 204.53H177.608V204.683H193.189V204.53Z" fill="#EBEBEB"/>
<path d="M278.725 207.841H241.804V207.994H278.725V207.841Z" fill="#EBEBEB"/>
<path d="M174.291 204.604H136.146V204.757H174.291V204.604Z" fill="#EBEBEB"/>
<path d="M111.41 209.181H103.43V209.334H111.41V209.181Z" fill="#EBEBEB"/>
<path d="M155.503 209.181H119.164V209.334H155.503V209.181Z" fill="#EBEBEB"/>
<path d="M55.6398 206.599H32.1091V206.752H55.6398V206.599Z" fill="#EBEBEB"/>
<path d="M145.044 173.068H26.8767C25.951 173.067 25.0638 172.698 24.4098 172.043C23.7557 171.388 23.3884 170.5 23.3884 169.574V3.46381C23.3965 2.54341 23.7674 1.66335 24.4205 1.0148C25.0736 0.366245 25.9563 0.0015767 26.8767 0H145.044C145.971 0 146.86 0.368161 147.515 1.02349C148.17 1.67882 148.539 2.56764 148.539 3.49441V169.574C148.539 170.501 148.17 171.39 147.515 172.045C146.86 172.7 145.971 173.068 145.044 173.068ZM26.8767 0.122397C25.9916 0.124018 25.1433 0.476773 24.5179 1.10324C23.8926 1.7297 23.5414 2.57867 23.5414 3.46381V169.574C23.5414 170.459 23.8926 171.308 24.5179 171.935C25.1433 172.561 25.9916 172.914 26.8767 172.915H145.044C145.93 172.914 146.779 172.561 147.405 171.935C148.031 171.309 148.384 170.46 148.386 169.574V3.46381C148.384 2.57811 148.031 1.72915 147.405 1.10286C146.779 0.476575 145.93 0.124014 145.044 0.122397H26.8767Z" fill="#EBEBEB"/>
<path d="M277.422 173.068H159.249C158.322 173.067 157.434 172.698 156.779 172.043C156.124 171.388 155.756 170.5 155.754 169.574V3.46381C155.764 2.54285 156.136 1.6628 156.79 1.01442C157.444 0.366031 158.328 0.00155951 159.249 0H277.422C278.342 0.00318505 279.223 0.368565 279.874 1.01695C280.526 1.66533 280.896 2.54447 280.904 3.46381V169.574C280.904 170.499 280.538 171.386 279.885 172.041C279.232 172.696 278.347 173.065 277.422 173.068ZM159.249 0.122397C158.363 0.124014 157.514 0.476575 156.888 1.10286C156.261 1.72915 155.909 2.57811 155.907 3.46381V169.574C155.909 170.46 156.261 171.309 156.888 171.935C157.514 172.561 158.363 172.914 159.249 172.915H277.422C278.308 172.914 279.157 172.561 279.783 171.935C280.409 171.309 280.762 170.46 280.764 169.574V3.46381C280.762 2.57811 280.409 1.72915 279.783 1.10286C279.157 0.476575 278.308 0.124014 277.422 0.122397H159.249Z" fill="#EBEBEB"/>
<path d="M119.929 147.285H79.2929L76.8267 118.828H117.462L119.929 147.285Z" fill="#E6E6E6"/>
<path d="M122.034 147.285H81.3984L78.9321 118.828H119.568L122.034 147.285Z" fill="#F0F0F0"/>
<path d="M86.955 141.172L85.5964 124.936H114.011L115.369 141.172H86.955Z" fill="white"/>
<path d="M129.066 147.286H124.299V200.363H129.066V147.286Z" fill="#E6E6E6"/>
<path d="M130.571 147.286H127.26V200.363H130.571V147.286Z" fill="#F0F0F0"/>
<path d="M84.4218 153.142H130.571V147.286H84.4218V153.142Z" fill="#F0F0F0"/>
<path d="M86.0493 153.142H81.282V200.363H86.0493V153.142Z" fill="#E6E6E6"/>
<path d="M87.555 153.142H84.2441V200.363H87.555V153.142Z" fill="#F0F0F0"/>
<path d="M52.115 153.142H47.3477V200.363H52.115V153.142Z" fill="#E6E6E6"/>
<path d="M53.6206 153.142H50.3098V200.363H53.6206V153.142Z" fill="#F0F0F0"/>
<path d="M98.8948 153.142H94.1274V200.363H98.8948V153.142Z" fill="#E6E6E6"/>
<path d="M100.394 153.142H97.0833V200.363H100.394V153.142Z" fill="#F0F0F0"/>
<path d="M84.4215 147.286H47.3477V153.142H84.4215V147.286Z" fill="#E6E6E6"/>
<path d="M222.668 14.9386H79.2625V94.7777H222.668V14.9386Z" fill="#E0E0E0"/>
<path d="M230.544 14.9386H79.9846V94.7777H230.544V14.9386Z" fill="#F5F5F5"/>
<path d="M228.084 92.3174V17.3986L82.4449 17.3986V92.3174L228.084 92.3174Z" fill="white"/>
<path d="M141.415 92.3174L168.912 17.3986H123.533L96.0369 92.3174H141.415Z" fill="#F5F5F5"/>
<path d="M185.093 92.3174L212.589 17.3986H178.355L150.858 92.3174H185.093Z" fill="#F5F5F5"/>
<path d="M268.12 124.11H255.929V200.363H268.12V124.11Z" fill="#E6E6E6"/>
<path d="M264.913 200.363H268.12V194.494H261.553L264.913 200.363Z" fill="#FAFAFA"/>
<path d="M155.724 124.11H143.533V200.363H155.724V124.11Z" fill="#E6E6E6"/>
<path d="M268.12 124.11H152.927V198.778H268.12V124.11Z" fill="#FAFAFA"/>
<path d="M265.941 148.204H155.112V127.115H265.941V148.204ZM155.724 147.592H265.329V127.727H155.724V147.592Z" fill="#E6E6E6"/>
<path d="M246.431 137.353H176.769C173.538 137.353 170.423 134.746 168.202 130.193L167.994 129.758H255.201L254.993 130.193C252.753 134.746 249.693 137.353 246.431 137.353ZM168.997 130.352C171.066 134.409 173.893 136.723 176.769 136.723H246.431C249.32 136.723 252.135 134.409 254.203 130.352H168.997Z" fill="#E6E6E6"/>
<path d="M156.134 200.363H152.927V194.494H159.493L156.134 200.363Z" fill="#FAFAFA"/>
<path d="M265.941 171.967H155.112V150.902H265.941V171.967ZM155.724 171.355H265.329V151.514H155.724V171.355Z" fill="#E6E6E6"/>
<path d="M246.431 161.141H176.769C173.538 161.141 170.423 158.528 168.202 153.981L167.994 153.54H255.201L254.993 153.981C252.753 158.503 249.693 161.141 246.431 161.141ZM168.997 154.152C171.066 158.21 173.893 160.529 176.769 160.529H246.431C249.32 160.529 252.135 158.21 254.203 154.152H168.997Z" fill="#E6E6E6"/>
<path d="M265.941 195.773H155.112V174.684H265.941V195.773ZM155.724 195.161H265.329V175.296H155.724V195.161Z" fill="#E6E6E6"/>
<path d="M246.431 184.923H176.769C173.538 184.923 170.423 182.316 168.202 177.769L167.994 177.328H255.201L254.993 177.769C252.753 182.316 249.693 184.923 246.431 184.923ZM168.997 177.94C171.066 181.997 173.893 184.311 176.769 184.311H246.431C249.32 184.311 252.135 181.997 254.203 177.94H168.997Z" fill="#E6E6E6"/>
<path d="M74.0421 134.195V135.676H73.0996L72.3163 147.286H60.7866L60.0094 135.676H59.0608V134.195H74.0421Z" fill="#E6E6E6"/>
<path d="M70.2482 105.389C69.3057 98.4741 59.973 96.5035 48.1312 96.2465C36.8646 96.0078 33.2539 92.0238 33.2539 92.0238C33.2539 92.0238 33.2906 108.162 49.5265 114.012C64.9423 119.557 71.1968 112.317 70.2482 105.389Z" fill="#E6E6E6"/>
<path d="M64.4957 121.062C64.6915 118.223 69.2324 112.996 80.1563 115.371C88.0508 117.09 90.9883 112.996 90.9883 112.996C90.9883 112.996 90.254 124.55 78.3815 128.02C67.1027 131.319 64.1468 126.068 64.4957 121.062Z" fill="#E6E6E6"/>
<path d="M66.9862 138.552C67.0477 138.553 67.1086 138.54 67.1647 138.515C67.2207 138.49 67.2705 138.452 67.3106 138.406C68.1001 137.469 67.4514 135.229 66.5579 132.127C65.4073 128.149 63.9753 123.192 65.187 119.599C65.8587 117.702 66.6434 115.846 67.537 114.043C69.2506 110.42 70.7316 107.311 69.4954 104.018C69.4761 103.966 69.4466 103.918 69.4086 103.877C69.3707 103.836 69.325 103.803 69.2742 103.78C69.2234 103.757 69.1685 103.744 69.1127 103.742C69.0569 103.74 69.0013 103.75 68.9492 103.77C68.897 103.789 68.8493 103.819 68.8087 103.858C68.7682 103.896 68.7357 103.942 68.7131 103.993C68.6904 104.044 68.6782 104.099 68.6769 104.155C68.6757 104.211 68.6856 104.266 68.7059 104.318C69.8136 107.25 68.4734 110.089 66.7721 113.688C65.8671 115.52 65.0701 117.404 64.3853 119.33C63.094 123.173 64.5628 128.271 65.7439 132.359C66.4416 134.807 67.1637 137.255 66.668 137.867C66.6287 137.909 66.5985 137.959 66.5796 138.014C66.5606 138.068 66.5532 138.126 66.5578 138.184C66.5624 138.241 66.5789 138.297 66.6063 138.348C66.6337 138.399 66.6714 138.444 66.717 138.479C66.7952 138.535 66.8906 138.561 66.9862 138.552Z" fill="#E6E6E6"/>
<path d="M153 228C218.532 228 271.657 224.898 271.657 221.072C271.657 217.246 218.532 214.145 153 214.145C87.4674 214.145 34.3428 217.246 34.3428 221.072C34.3428 224.898 87.4674 228 153 228Z" fill="#F5F5F5"/>
<path d="M152.976 187.298H66.0747L61.3196 47.5393H148.221L152.976 187.298Z" fill="#6F3EB5"/>
<path d="M157.314 182.958H70.4131L65.6519 43.2002H152.553L157.314 182.958Z" fill="#B079FF"/>
<path opacity="0.3" d="M157.314 182.958H70.4131L65.6519 43.2002H152.553L157.314 182.958Z" fill="#8E4FE8"/>
<path d="M128.198 100.71C137.503 91.245 137.107 75.7678 127.314 66.1409C117.521 56.514 102.039 56.3829 92.7346 65.8481C83.4299 75.3133 83.8258 90.7905 93.6187 100.417C103.412 110.044 118.893 110.175 128.198 100.71Z" fill="#8E4FE8"/>
<path d="M130.645 83.2847C130.77 86.6149 130.043 89.922 128.534 92.8929C126.904 96.0945 124.415 98.7787 121.345 100.645C118.275 102.51 114.746 103.484 111.153 103.456C107.477 103.436 103.87 102.449 100.694 100.595C97.5193 98.7415 94.8875 96.0851 93.0631 92.8929C91.362 89.9676 90.4117 86.6667 90.297 83.2847C90.1841 80.6625 90.6055 78.0446 91.5356 75.5902C92.4658 73.1358 93.8852 70.8961 95.7077 69.0073C97.5301 67.1184 99.7176 65.6198 102.137 64.6025C104.557 63.5851 107.158 63.0703 109.782 63.0894C115.189 63.1276 120.374 65.2473 124.259 69.0081C128.144 72.7689 130.431 77.8818 130.645 83.2847Z" fill="white"/>
<path opacity="0.6" d="M128.521 92.8932C126.891 96.0948 124.402 98.7791 121.332 100.645C118.262 102.511 114.733 103.484 111.141 103.456C107.464 103.436 103.857 102.45 100.682 100.596C97.5067 98.7418 94.8749 96.0854 93.0505 92.8932C98.2262 89.3646 104.35 87.4889 110.614 87.5139C116.979 87.5276 123.202 89.397 128.521 92.8932Z" fill="#9C57FF"/>
<path opacity="0.6" d="M116.754 82.7819C120.175 79.3014 120.03 73.6103 116.429 70.0704C112.828 66.5305 107.135 66.4823 103.714 69.9627C100.292 73.4432 100.438 79.1343 104.039 82.6742C107.64 86.2141 113.332 86.2623 116.754 82.7819Z" fill="#9C57FF"/>
<path d="M139.855 132.347H84.4214L84.0481 121.332H139.481L139.855 132.347Z" fill="white"/>
<path d="M140.528 152.035H85.0889L84.7156 141.019H140.155L140.528 152.035Z" fill="white"/>
<path d="M119.133 142.537L105.774 144.373C105.646 144.387 105.523 144.428 105.412 144.493C105.301 144.557 105.205 144.644 105.129 144.747C105.053 144.851 104.999 144.969 104.971 145.094C104.943 145.219 104.941 145.349 104.966 145.474L106.722 154.428C106.78 154.691 106.933 154.922 107.153 155.077C107.373 155.233 107.643 155.3 107.909 155.266L121.269 153.43C121.396 153.414 121.519 153.372 121.629 153.307C121.739 153.241 121.835 153.154 121.91 153.05C121.985 152.946 122.038 152.828 122.066 152.703C122.094 152.578 122.095 152.448 122.071 152.323L120.32 143.369C120.263 143.107 120.109 142.876 119.889 142.722C119.669 142.568 119.399 142.502 119.133 142.537ZM115.296 151.607L112.848 151.931L112.609 149.042C112.357 148.933 112.135 148.765 111.961 148.552C111.788 148.339 111.668 148.087 111.612 147.818C111.567 147.61 111.566 147.394 111.61 147.186C111.653 146.977 111.74 146.78 111.865 146.607C111.989 146.434 112.149 146.289 112.333 146.181C112.517 146.074 112.722 146.006 112.934 145.982C113.368 145.926 113.808 146.036 114.166 146.288C114.524 146.541 114.775 146.919 114.868 147.347C114.921 147.606 114.904 147.874 114.821 148.124C114.737 148.375 114.588 148.598 114.39 148.773L115.296 151.607Z" fill="#8E4FE8"/>
<path d="M117.811 142.053C117.575 142.083 117.336 142.024 117.141 141.887C116.947 141.75 116.81 141.545 116.759 141.313L116.587 140.438C116.343 139.244 115.673 138.178 114.703 137.44C113.733 136.702 112.528 136.341 111.312 136.423C110.698 136.458 110.099 136.625 109.556 136.912C109.012 137.199 108.536 137.6 108.161 138.087C107.786 138.574 107.521 139.136 107.382 139.735C107.244 140.334 107.235 140.955 107.359 141.558L107.554 142.567C107.577 142.679 107.576 142.795 107.552 142.906C107.528 143.018 107.48 143.123 107.413 143.215C107.345 143.308 107.26 143.385 107.161 143.442C107.062 143.499 106.952 143.534 106.838 143.547C106.602 143.58 106.361 143.522 106.166 143.384C105.971 143.247 105.835 143.04 105.786 142.806L105.621 141.955C105.452 141.16 105.447 140.34 105.604 139.542C105.761 138.745 106.078 137.988 106.535 137.316C106.993 136.645 107.581 136.072 108.265 135.634C108.949 135.195 109.715 134.9 110.516 134.765C112.254 134.473 114.037 134.861 115.495 135.849C116.954 136.837 117.976 138.349 118.35 140.071L118.546 141.074C118.568 141.188 118.567 141.304 118.542 141.417C118.516 141.53 118.467 141.636 118.398 141.728C118.328 141.821 118.24 141.898 118.139 141.954C118.038 142.01 117.926 142.044 117.811 142.053Z" fill="#8E4FE8"/>
<path d="M131.379 167.463H95.2904L95.0518 160.29H131.134L131.379 167.463Z" fill="#8E4FE8"/>
<path d="M113.968 126.84C113.979 127.101 113.937 127.362 113.843 127.607C113.75 127.852 113.608 128.075 113.426 128.263C113.244 128.452 113.026 128.601 112.785 128.702C112.543 128.804 112.284 128.855 112.022 128.853C111.482 128.849 110.965 128.638 110.577 128.263C110.188 127.888 109.959 127.379 109.935 126.84C109.924 126.578 109.967 126.317 110.06 126.072C110.153 125.828 110.295 125.604 110.477 125.416C110.659 125.228 110.877 125.078 111.119 124.977C111.36 124.876 111.62 124.824 111.881 124.826C112.421 124.829 112.94 125.04 113.328 125.415C113.717 125.79 113.946 126.3 113.968 126.84Z" fill="#263238"/>
<path d="M105.266 126.84C105.277 127.101 105.235 127.363 105.143 127.608C105.05 127.853 104.908 128.077 104.726 128.265C104.544 128.454 104.325 128.603 104.083 128.704C103.841 128.805 103.582 128.856 103.319 128.853C102.78 128.849 102.264 128.637 101.876 128.263C101.489 127.888 101.261 127.378 101.239 126.84C101.228 126.578 101.27 126.317 101.364 126.072C101.457 125.828 101.598 125.604 101.78 125.416C101.962 125.228 102.181 125.078 102.422 124.977C102.664 124.876 102.923 124.824 103.185 124.826C103.724 124.829 104.242 125.04 104.63 125.415C105.017 125.79 105.245 126.301 105.266 126.84Z" fill="#263238"/>
<path d="M96.6186 126.84C96.6293 127.101 96.5869 127.362 96.4938 127.607C96.4007 127.852 96.2588 128.075 96.0768 128.263C95.8949 128.452 95.6766 128.601 95.4352 128.702C95.1938 128.804 94.9343 128.855 94.6725 128.853C94.133 128.85 93.6155 128.639 93.2278 128.264C92.8401 127.889 92.6122 127.379 92.5917 126.84C92.5809 126.578 92.6234 126.317 92.7165 126.072C92.8097 125.828 92.9515 125.604 93.1335 125.416C93.3154 125.228 93.5337 125.078 93.7751 124.977C94.0165 124.876 94.276 124.824 94.5378 124.826C95.0773 124.829 95.5948 125.04 95.9825 125.415C96.3702 125.79 96.5981 126.301 96.6186 126.84Z" fill="#263238"/>
<path d="M122.64 126.839C122.651 127.101 122.608 127.362 122.515 127.607C122.422 127.852 122.28 128.075 122.098 128.263C121.916 128.451 121.698 128.601 121.456 128.702C121.215 128.803 120.956 128.855 120.694 128.853C120.154 128.85 119.637 128.639 119.249 128.264C118.861 127.889 118.633 127.379 118.613 126.839C118.604 126.579 118.648 126.319 118.742 126.075C118.836 125.832 118.979 125.61 119.162 125.424C119.344 125.237 119.563 125.09 119.804 124.99C120.045 124.89 120.304 124.841 120.565 124.844C121.101 124.849 121.614 125.058 122 125.429C122.386 125.8 122.615 126.305 122.64 126.839Z" fill="#263238"/>
<path d="M131.311 126.84C131.323 127.101 131.281 127.363 131.188 127.608C131.096 127.853 130.954 128.077 130.772 128.265C130.59 128.454 130.371 128.603 130.129 128.704C129.887 128.805 129.627 128.856 129.365 128.853C128.826 128.849 128.31 128.637 127.922 128.263C127.535 127.888 127.307 127.378 127.285 126.84C127.274 126.578 127.316 126.317 127.409 126.072C127.503 125.828 127.644 125.604 127.826 125.416C128.008 125.228 128.227 125.078 128.468 124.977C128.709 124.876 128.969 124.824 129.231 124.826C129.77 124.829 130.288 125.04 130.675 125.415C131.063 125.79 131.291 126.301 131.311 126.84Z" fill="#263238"/>
<path d="M204.351 72.997C205.165 74.3066 205.845 75.5551 206.542 76.8586C207.24 78.1621 207.87 79.4718 208.488 80.812C209.749 83.5258 210.793 86.3355 211.609 89.2145C211.72 89.5756 211.799 89.9611 211.891 90.3344L212.026 90.9036L212.093 91.1851L212.172 91.6502C212.31 92.7053 212.246 93.777 211.983 94.808C211.56 96.4088 210.918 97.9432 210.073 99.3673C208.563 101.955 206.738 104.346 204.639 106.485L202.063 104.539C203.356 102.161 204.506 99.7089 205.508 97.1947C205.954 96.087 206.268 94.9305 206.444 93.7493C206.501 93.3886 206.484 93.0202 206.395 92.6661L206.151 91.9195C206.053 91.6135 205.961 91.3075 205.845 90.9954C204.914 88.4707 203.837 86.0023 202.619 83.6026C201.395 81.1547 200.08 78.7068 198.764 76.369L204.351 72.997Z" fill="#E4E4E4"/>
<path d="M202.717 103.688L199.902 105.175L203.133 108.957C203.133 108.957 205.153 107.592 205.245 105.511L202.717 103.688Z" fill="#E4E4E4"/>
<path d="M196.126 107.507L199.584 110.255L203.133 108.957L199.902 105.175L196.126 107.507Z" fill="#E4E4E4"/>
<path d="M184.303 52.9728C184.235 53.3155 183.997 53.5542 183.776 53.5114C183.556 53.4685 183.428 53.1503 183.495 52.8137C183.562 52.4771 183.801 52.2017 184.027 52.2752C184.254 52.3486 184.37 52.6301 184.303 52.9728Z" fill="#263238"/>
<path d="M184.027 53.5603C183.411 54.5189 182.665 55.388 181.812 56.1429C182.013 56.3518 182.258 56.5147 182.528 56.6203C182.799 56.726 183.089 56.7719 183.378 56.7549L184.027 53.5603Z" fill="#FF5652"/>
<path d="M182.926 65.5677V61.5531L188.238 62.1651C188.238 62.1651 188.152 65.6167 185.178 66.6326L182.926 65.5677Z" fill="#E4E4E4"/>
<path d="M184.456 58.6644L188.195 59.7415L188.263 62.1955L182.951 61.5529L184.456 58.6644Z" fill="#B9B9B9"/>
<path opacity="0.2" d="M188.195 59.7415L184.456 58.6644L183.728 60.0597C183.767 61.1591 184.111 62.2261 184.72 63.1421C185.329 64.0582 186.181 64.7875 187.179 65.2493C187.822 64.3519 188.197 63.2911 188.262 62.1894L188.195 59.7415Z" fill="black"/>
<path d="M185.931 51.3389C185.97 51.3379 186.008 51.3258 186.041 51.304C186.073 51.2822 186.099 51.2516 186.115 51.2158C186.131 51.1799 186.137 51.1403 186.131 51.1015C186.126 51.0626 186.109 51.0261 186.084 50.9962C185.869 50.7535 185.599 50.5657 185.297 50.4486C184.994 50.3315 184.668 50.2884 184.346 50.323C184.293 50.332 184.246 50.3616 184.215 50.4051C184.184 50.4487 184.172 50.5029 184.181 50.5556C184.19 50.6087 184.219 50.6562 184.262 50.6882C184.306 50.7202 184.36 50.734 184.413 50.7269C184.668 50.7019 184.926 50.7382 185.165 50.833C185.403 50.9277 185.615 51.0781 185.784 51.2716C185.803 51.2921 185.825 51.3086 185.851 51.3201C185.876 51.3317 185.903 51.3381 185.931 51.3389Z" fill="#263238"/>
<path d="M193.752 59.1661C193.14 62.3178 192.76 66.6813 194.976 68.7804C194.976 68.7804 194.119 71.9749 188.244 71.9749C181.812 71.9749 185.154 69.172 185.154 69.172C187.828 68.3398 187.803 65.2982 187.191 62.8503L193.752 59.1661Z" fill="#E4E4E4"/>
<path d="M196.169 70.8854C196.745 70.0776 196.72 67.5134 196.108 67.0606C195.123 66.3323 190.894 66.1609 185.209 67.4706C185.821 69.9552 184.505 71.2526 184.505 71.2526L196.169 70.8854Z" fill="#6CC7FE"/>
<path d="M215.3 216.176C215.125 216.238 214.94 216.264 214.755 216.253C214.57 216.243 214.389 216.196 214.223 216.115C214.159 216.056 214.116 215.979 214.099 215.895C214.081 215.811 214.09 215.723 214.125 215.644C214.144 215.578 214.177 215.516 214.223 215.465C214.268 215.413 214.325 215.372 214.388 215.344C214.969 215.062 216.303 215.607 216.364 215.632C216.383 215.639 216.398 215.652 216.409 215.668C216.42 215.684 216.426 215.704 216.426 215.723C216.426 215.743 216.42 215.762 216.411 215.779C216.401 215.797 216.387 215.811 216.371 215.821C216.026 215.973 215.667 216.092 215.3 216.176ZM214.596 215.485C214.555 215.494 214.516 215.509 214.48 215.527C214.441 215.541 214.407 215.564 214.379 215.594C214.352 215.624 214.332 215.66 214.32 215.699C214.265 215.882 214.32 215.944 214.357 215.962C214.59 216.158 215.446 215.962 216.052 215.736C215.591 215.545 215.094 215.459 214.596 215.485Z" fill="#6CC7FE"/>
<path d="M216.346 215.827H216.297C215.808 215.687 214.767 214.946 214.755 214.463C214.755 214.386 214.781 214.311 214.828 214.251C214.876 214.191 214.943 214.149 215.018 214.132C215.091 214.105 215.169 214.094 215.246 214.101C215.323 214.107 215.398 214.13 215.465 214.169C216.04 214.463 216.407 215.65 216.42 215.705C216.428 215.72 216.433 215.737 216.433 215.754C216.433 215.771 216.428 215.788 216.42 215.803C216.41 215.813 216.399 215.82 216.386 215.824C216.373 215.828 216.36 215.829 216.346 215.827ZM215.122 214.304H215.073C214.951 214.346 214.951 214.408 214.951 214.438C214.951 214.726 215.649 215.307 216.175 215.54C216.046 215.197 215.765 214.518 215.392 214.316C215.309 214.278 215.214 214.274 215.128 214.304H215.122Z" fill="#6CC7FE"/>
<path d="M183.513 216.898C182.962 216.898 182.43 216.819 182.252 216.574C182.206 216.509 182.181 216.431 182.181 216.35C182.181 216.27 182.206 216.192 182.252 216.127C182.287 216.067 182.334 216.015 182.39 215.974C182.446 215.933 182.509 215.904 182.577 215.888C183.293 215.693 184.798 216.549 184.859 216.586C184.878 216.595 184.893 216.611 184.902 216.629C184.911 216.648 184.913 216.67 184.908 216.69C184.906 216.711 184.897 216.731 184.883 216.746C184.869 216.762 184.85 216.772 184.829 216.776C184.395 216.855 183.954 216.896 183.513 216.898ZM182.834 216.06C182.769 216.049 182.703 216.049 182.638 216.06C182.597 216.068 182.557 216.085 182.523 216.109C182.488 216.134 182.458 216.165 182.436 216.201C182.363 216.329 182.393 216.39 182.436 216.427C182.638 216.708 183.721 216.715 184.523 216.598C184 216.312 183.426 216.129 182.834 216.06Z" fill="#6CC7FE"/>
<path d="M184.823 216.776H184.78C184.26 216.543 183.232 215.613 183.311 215.123C183.311 215.007 183.409 214.866 183.691 214.842C183.792 214.83 183.893 214.839 183.99 214.869C184.087 214.898 184.177 214.947 184.254 215.013C184.646 215.482 184.882 216.062 184.927 216.672C184.927 216.689 184.923 216.706 184.916 216.722C184.908 216.738 184.898 216.752 184.884 216.764C184.865 216.773 184.844 216.777 184.823 216.776ZM183.77 215.032H183.709C183.526 215.032 183.513 215.117 183.513 215.142C183.464 215.436 184.162 216.17 184.695 216.488C184.648 215.997 184.449 215.533 184.125 215.16C184.025 215.075 183.896 215.029 183.764 215.032H183.77Z" fill="#6CC7FE"/>
<path d="M189.548 216.678H185.246L184.817 206.709H189.119L189.548 216.678Z" fill="#FF8B7B"/>
<path d="M221.144 214.683L216.94 215.595L212.711 206.311L216.922 205.399L221.144 214.683Z" fill="#FF8B7B"/>
<path d="M216.53 215.172L221.261 214.15C221.343 214.133 221.429 214.144 221.505 214.182C221.581 214.219 221.641 214.282 221.677 214.358L223.317 217.92C223.36 218.006 223.383 218.102 223.383 218.198C223.383 218.295 223.359 218.39 223.315 218.476C223.271 218.562 223.207 218.637 223.129 218.693C223.05 218.75 222.96 218.787 222.864 218.801C221.212 219.126 220.385 219.205 218.311 219.652C217.032 219.934 214.143 220.637 212.375 221.017C210.606 221.396 210 219.701 210.692 219.389C213.782 217.975 215.067 216.733 215.906 215.576C216.057 215.37 216.279 215.226 216.53 215.172Z" fill="#263238"/>
<path d="M185.276 216.176H189.976C190.061 216.177 190.144 216.206 190.21 216.259C190.277 216.313 190.324 216.387 190.343 216.47L191.194 220.295C191.219 220.387 191.222 220.484 191.202 220.578C191.183 220.672 191.142 220.76 191.082 220.835C191.023 220.91 190.946 220.97 190.859 221.01C190.773 221.05 190.677 221.069 190.582 221.066C188.886 221.035 186.439 220.937 184.309 220.937C181.812 220.937 179.664 221.072 176.739 221.072C174.97 221.072 174.48 219.285 175.221 219.12C178.587 218.385 181.341 218.306 184.248 216.513C184.553 216.308 184.909 216.192 185.276 216.176Z" fill="#263238"/>
<path d="M202.674 69.7659C206.707 70.69 210.018 80.9896 210.018 80.9896L201.958 87.1523C199.866 84.9155 198.39 82.1743 197.675 79.1965C196.249 73.7988 198.55 68.8112 202.674 69.7659Z" fill="#89D2FE"/>
<path opacity="0.4" d="M202.674 69.7659C206.707 70.69 210.018 80.9896 210.018 80.9896L201.958 87.1523C199.866 84.9155 198.39 82.1743 197.675 79.1965C196.249 73.7988 198.55 68.8112 202.674 69.7659Z" fill="#6CC7FE"/>
<path d="M181.457 82.0484C180.453 83.1316 179.45 84.0986 178.397 85.1083C177.877 85.5979 177.351 86.0875 176.812 86.5587L175.998 87.2747L175.796 87.4522L175.447 87.7337C175.088 88.0206 174.691 88.2554 174.266 88.4314C173.794 88.6319 173.286 88.7359 172.773 88.7374C172.335 88.7392 171.899 88.6626 171.488 88.511C171.032 88.3372 170.615 88.0728 170.264 87.7337C169.816 87.2955 169.487 86.7499 169.309 86.1487C169.216 85.8523 169.157 85.5465 169.132 85.2368C169.1 84.8744 169.1 84.5099 169.132 84.1475C169.162 83.8538 169.199 83.5967 169.248 83.3581C169.415 82.5236 169.653 81.7047 169.958 80.9101C170.233 80.1548 170.55 79.4153 170.906 78.6948C171.298 77.9176 171.671 77.3484 172.045 76.6997C173.561 74.2158 175.291 71.8691 177.216 69.6864C179.121 67.5166 181.221 65.5255 183.489 63.7379L185.741 66.0574C184.162 68.1748 182.608 70.4453 181.169 72.679C179.738 74.9001 178.431 77.1985 177.253 79.5638C176.99 80.139 176.641 80.7877 176.475 81.2529C176.257 81.7931 176.067 82.3447 175.906 82.9052C175.752 83.4099 175.636 83.9254 175.558 84.4474C175.553 84.5289 175.553 84.6106 175.558 84.6922C175.558 84.7411 175.558 84.7656 175.558 84.6371C175.547 84.4998 175.521 84.3641 175.478 84.2332C175.346 83.7993 175.103 83.4072 174.774 83.0949C174.481 82.826 174.138 82.618 173.764 82.4829C173.436 82.3585 173.088 82.2942 172.736 82.2932C172.398 82.2891 172.063 82.3537 171.751 82.4829C171.645 82.5261 171.543 82.5772 171.445 82.6359L171.678 82.4217L172.418 81.7486L173.881 80.3777C174.848 79.4659 175.821 78.4928 176.739 77.5871L181.457 82.0484Z" fill="#E4E4E4"/>
<path opacity="0.2" d="M199.217 77.3301C201.408 79.4965 202.124 83.4499 202.277 86.877L201.922 87.1524C199.83 84.9156 198.354 82.1745 197.638 79.1966C197.559 78.8784 197.485 78.5847 197.43 78.2358L199.217 77.3301Z" fill="black"/>
<path d="M177.18 74.0496C176.298 78.7006 175.748 88.2536 178.3 107.164H201.347C201.506 103.633 199.284 86.3871 202.693 69.7351C200.146 69.246 197.571 68.921 194.982 68.762C191.721 68.575 188.452 68.575 185.19 68.762C184.113 68.8599 183.049 69.0191 182.131 69.1843C180.91 69.3985 179.783 69.9783 178.899 70.8471C178.015 71.7159 177.415 72.8326 177.18 74.0496Z" fill="#4D8DB4"/>
<path opacity="0.4" d="M177.18 74.0496C176.298 78.7006 175.748 88.2536 178.3 107.164H201.347C201.506 103.633 199.284 86.3871 202.693 69.7351C200.146 69.246 197.571 68.921 194.982 68.762C191.721 68.575 188.452 68.575 185.19 68.762C184.113 68.8599 183.049 69.0191 182.131 69.1843C180.91 69.3985 179.783 69.9783 178.899 70.8471C178.015 71.7159 177.415 72.8326 177.18 74.0496Z" fill="#6CC7FE"/>
<path opacity="0.2" d="M180.704 80.9468L176.543 79.9493C176.414 82.4707 176.402 85.5918 176.586 89.4534C178.501 87.2747 180.949 83.8721 180.704 80.9468Z" fill="black"/>
<path opacity="0.2" d="M184.817 206.709L185.037 211.849H189.346L189.125 206.709H184.817Z" fill="black"/>
<path opacity="0.2" d="M216.922 205.399L212.711 206.311L214.89 211.097L219.1 210.185L216.922 205.399Z" fill="black"/>
<path d="M195.796 54.5642C194.694 58.6889 194.254 61.1613 191.708 62.8749C187.883 65.4819 183.11 62.4954 182.987 58.1381C182.852 54.2031 184.682 48.1139 189.107 47.2816C190.079 47.0991 191.082 47.1672 192.021 47.4795C192.959 47.7918 193.803 48.338 194.472 49.0666C195.142 49.7952 195.614 50.6822 195.846 51.6441C196.077 52.6059 196.06 53.6108 195.796 54.5642Z" fill="#E4E4E4"/>
<path d="M186.139 54.717C185.931 54.1662 184.982 49.9007 185.876 48.793C186.769 47.6853 196.959 48.487 198.464 49.968C200.967 52.416 199.229 54.6191 196.493 57.4526C194.437 59.5823 194.358 61.9812 193.317 62.3484C191.481 62.9604 188.678 62.3851 188.115 60.4452C187.552 58.5052 186.139 54.717 186.139 54.717Z" fill="#263238"/>
<path d="M197.228 45.1152C193.629 43.5852 186.879 45.2804 183.232 44.3992C183.185 45.7554 183.631 47.0826 184.487 48.1356C185.344 49.1885 186.552 49.896 187.889 50.1273C190.915 50.7039 193.989 50.9888 197.069 50.978C201.071 50.7944 200.288 46.4187 197.228 45.1152Z" fill="#263238"/>
<path d="M197.791 50.0967C199.106 50.226 200.429 49.9732 201.604 49.3684C202.277 50.9963 198.574 51.443 197.791 50.0967Z" fill="#263238"/>
<path d="M188.097 54.8886C188.015 55.9499 187.585 56.9544 186.874 57.7466C185.931 58.7808 184.952 58.1321 184.787 56.8775C184.64 55.7393 184.946 53.8176 186.096 53.2668C187.247 52.7161 188.177 53.6096 188.097 54.8886Z" fill="#595959"/>
<path d="M186.469 107.182C186.469 107.182 191.365 140.076 194.039 152.401C196.971 165.895 212.723 210.54 212.723 210.54L220.428 208.869C220.428 208.869 209.412 172.48 206.964 153.613C205.067 139.121 201.34 107.17 201.34 107.17L186.469 107.182Z" fill="#6CC7FE"/>
<path d="M210.875 207.975C210.844 207.975 212.313 210.766 212.313 210.766L220.979 208.887L220.251 206.28L210.875 207.975Z" fill="#263238"/>
<path opacity="0.3" d="M189.56 118.902C195.209 120.009 194.609 141.074 193.93 151.912C192.302 144.25 189.915 129.513 188.287 119.055C188.682 118.86 189.131 118.806 189.56 118.902Z" fill="black"/>
<path d="M178.299 107.183C178.299 107.183 177.687 139.367 178.177 152.469C178.666 166.123 183.434 210.828 183.434 210.828H190.729C190.729 210.828 190.992 166.918 191.341 153.51C191.696 138.895 193.458 107.158 193.458 107.158L178.299 107.183Z" fill="#6CC7FE"/>
<path d="M182.032 207.951C181.995 207.951 182.442 210.974 182.442 210.974H191.31L191.555 208.276L182.032 207.951Z" fill="#263238"/>
<path d="M186.2 75.4818C188.262 81.0447 176.139 87.599 176.139 87.599L170.888 80.8672C170.888 80.8672 174.419 73.8784 178.703 70.7328C183.997 66.8528 184.627 71.2469 186.2 75.4818Z" fill="#89D2FE"/>
<path opacity="0.4" d="M186.2 75.4818C188.262 81.0447 176.139 87.599 176.139 87.599L170.888 80.8672C170.888 80.8672 174.419 73.8784 178.703 70.7328C183.997 66.8528 184.627 71.2469 186.2 75.4818Z" fill="black"/>
<path d="M233.702 33.2487C245.9 33.2487 255.789 26.9468 255.789 19.1731C255.789 11.3994 245.9 5.09752 233.702 5.09752C221.504 5.09752 211.616 11.3994 211.616 19.1731C211.616 26.9468 221.504 33.2487 233.702 33.2487Z" fill="#6CC7FE"/>
<path d="M225.734 26.2598C224.279 26.2551 222.872 25.7378 221.761 24.7988C220.65 23.8598 219.905 22.5591 219.657 21.1253C219.414 19.5723 219.764 17.9845 220.638 16.6781C221.513 15.3717 222.847 14.4424 224.376 14.0753C225.63 13.7862 226.943 13.8977 228.131 14.3938C229.319 14.89 230.321 15.746 230.997 16.8414L245.177 13.9162C245.722 13.7968 246.292 13.8874 246.773 14.1699C247.254 14.4524 247.61 14.906 247.772 15.44C247.846 15.7208 247.862 16.0137 247.819 16.3009C247.776 16.5882 247.675 16.8636 247.522 17.1105C247.369 17.3574 247.168 17.5705 246.93 17.7368C246.692 17.9031 246.422 18.0191 246.138 18.0776L245.77 18.1511C245.716 18.1609 245.664 18.1831 245.62 18.216C245.575 18.2489 245.539 18.2916 245.513 18.3408C245.491 18.3908 245.479 18.445 245.479 18.4999C245.479 18.5548 245.491 18.609 245.513 18.659L245.764 19.3077C245.848 19.518 245.857 19.751 245.787 19.9666C245.718 20.1822 245.576 20.3669 245.385 20.4889C245.235 20.5818 245.107 20.7078 245.013 20.8574C244.919 21.0069 244.859 21.176 244.84 21.3517C244.822 21.5535 244.741 21.7444 244.608 21.8971C244.475 22.0499 244.297 22.1568 244.1 22.2024L243.812 22.2636C243.613 22.3004 243.407 22.2729 243.224 22.1848C243.042 22.0968 242.892 21.9529 242.796 21.774C242.669 21.5606 242.479 21.3921 242.251 21.292C242.024 21.192 241.771 21.1653 241.528 21.2159C241.285 21.2664 241.063 21.3915 240.895 21.5739C240.726 21.7562 240.618 21.9866 240.587 22.233C240.57 22.4335 240.49 22.6233 240.358 22.7751C240.226 22.9269 240.049 23.0328 239.853 23.0775L239.565 23.1387C239.366 23.1746 239.16 23.1466 238.978 23.0587C238.795 22.9707 238.645 22.8274 238.549 22.6491C238.457 22.4974 238.334 22.3673 238.187 22.268C238.04 22.1687 237.873 22.1024 237.698 22.0739C237.463 22.0456 237.246 21.9323 237.088 21.7554C236.931 21.5785 236.843 21.3501 236.842 21.1131V20.4154C236.839 20.3608 236.825 20.3074 236.8 20.2589C236.775 20.2103 236.74 20.1677 236.697 20.134C236.654 20.1003 236.604 20.0763 236.551 20.0636C236.498 20.0509 236.442 20.0498 236.389 20.0605L231.866 20.9907C231.682 22.2436 231.116 23.4093 230.245 24.3291C229.375 25.2489 228.242 25.8782 227.001 26.1313C226.584 26.2166 226.16 26.2596 225.734 26.2598ZM224.51 14.6322C223.122 14.9564 221.909 15.7945 221.114 16.9778C220.319 18.161 220.002 19.6014 220.226 21.009C220.467 22.3186 221.168 23.4988 222.204 24.3361C223.239 25.1734 224.54 25.6126 225.871 25.5741C227.202 25.5357 228.475 25.0222 229.46 24.1265C230.445 23.2308 231.077 22.0121 231.242 20.6908V20.4705L236.23 19.4607C236.373 19.4261 236.522 19.4238 236.666 19.4539C236.81 19.4841 236.946 19.5459 237.063 19.635C237.18 19.7241 237.276 19.8381 237.343 19.9689C237.411 20.0996 237.449 20.2438 237.454 20.3909V21.0886C237.455 21.1717 237.485 21.2517 237.538 21.3152C237.592 21.3788 237.666 21.4219 237.747 21.4374C238.015 21.4757 238.27 21.5745 238.494 21.7261C238.718 21.8777 238.904 22.0783 239.039 22.3126C239.071 22.3786 239.123 22.4329 239.188 22.468C239.253 22.5031 239.327 22.5172 239.4 22.5084L239.681 22.4472C239.753 22.4288 239.816 22.388 239.862 22.3306C239.909 22.2733 239.935 22.2026 239.938 22.129C239.977 21.748 240.136 21.3892 240.391 21.1043C240.647 20.8195 240.987 20.6233 241.362 20.5443C241.737 20.4653 242.127 20.5075 242.476 20.6647C242.825 20.8219 243.115 21.0861 243.304 21.4191C243.336 21.4846 243.387 21.5387 243.45 21.5738C243.514 21.6089 243.587 21.6233 243.659 21.6149L243.953 21.5537C244.023 21.5342 244.085 21.4929 244.13 21.4356C244.176 21.3784 244.201 21.3083 244.204 21.2355C244.234 20.9668 244.325 20.7086 244.471 20.4805C244.616 20.2525 244.811 20.0607 245.042 19.9197C245.11 19.8711 245.159 19.8013 245.182 19.7215C245.205 19.6417 245.201 19.5563 245.171 19.4791L244.92 18.8304C244.868 18.6966 244.846 18.5532 244.855 18.4101C244.865 18.2669 244.905 18.1275 244.974 18.0016C245.043 17.8758 245.138 17.7664 245.253 17.6812C245.369 17.596 245.501 17.5371 245.642 17.5085L246.015 17.4289C246.217 17.3859 246.409 17.3025 246.578 17.1838C246.747 17.0651 246.89 16.9135 246.999 16.7381C247.108 16.5627 247.181 16.3671 247.213 16.163C247.245 15.9589 247.235 15.7504 247.184 15.5502C247.065 15.165 246.804 14.8393 246.454 14.6384C246.105 14.4375 245.692 14.3762 245.299 14.467L230.722 17.4963L230.612 17.3065C230.026 16.2639 229.117 15.4402 228.022 14.9599C226.926 14.4797 225.705 14.3689 224.541 14.6444L224.51 14.6322ZM225.734 23.9833C224.974 23.9917 224.228 23.7791 223.586 23.3713C222.827 22.8731 222.265 22.1271 221.994 21.2605C221.724 20.3939 221.762 19.4603 222.103 18.6189C222.444 17.7776 223.066 17.0805 223.864 16.6465C224.661 16.2125 225.584 16.0685 226.476 16.2391C227.368 16.4096 228.173 16.8841 228.753 17.5817C229.334 18.2793 229.655 19.1568 229.662 20.0646C229.668 20.9724 229.359 21.8543 228.788 22.5599C228.217 23.2656 227.419 23.7513 226.53 23.9343C226.269 23.9814 226.005 24.002 225.74 23.9955L225.734 23.9833ZM225.734 16.7558C225.506 16.7571 225.279 16.7796 225.055 16.8231C224.629 16.9139 224.224 17.0878 223.865 17.3348C223.506 17.5819 223.199 17.8973 222.962 18.263C222.725 18.6287 222.562 19.0375 222.482 19.4661C222.403 19.8948 222.409 20.3348 222.5 20.7612C222.591 21.1875 222.765 21.5918 223.012 21.9509C223.259 22.3101 223.574 22.617 223.94 22.8543C224.305 23.0916 224.714 23.2545 225.143 23.3337C225.572 23.413 226.012 23.407 226.438 23.3162C227.078 23.183 227.664 22.8632 228.123 22.3973C228.581 21.9314 228.892 21.3401 229.015 20.698C229.138 20.056 229.068 19.3918 228.814 18.7894C228.56 18.1869 228.134 17.6731 227.589 17.3127C227.047 16.9523 226.409 16.7626 225.759 16.768L225.734 16.7558Z" fill="white"/>
<path opacity="0.6" d="M215.728 41.5042C219.737 41.5042 222.986 39.4328 222.986 36.8776C222.986 34.3224 219.737 32.251 215.728 32.251C211.72 32.251 208.47 34.3224 208.47 36.8776C208.47 39.4328 211.72 41.5042 215.728 41.5042Z" fill="#9DD9FE"/>
<path opacity="0.3" d="M204.18 43.4011C205.826 43.4011 207.16 42.5518 207.16 41.504C207.16 40.4562 205.826 39.6069 204.18 39.6069C202.534 39.6069 201.2 40.4562 201.2 41.504C201.2 42.5518 202.534 43.4011 204.18 43.4011Z" fill="#6CC7FE"/>
</svg>
