<svg width="223" height="278" viewBox="0 0 223 278" fill="none" xmlns="http://www.w3.org/2000/svg">
<g clip-path="url(#clip0_904_3248)">
<path d="M205.435 117.382C206.247 117.382 207.027 117.705 207.601 118.28C208.176 118.854 208.499 119.634 208.499 120.446V214.97C208.486 218.026 207.267 220.954 205.106 223.115C202.944 225.276 200.017 226.496 196.96 226.508H75.9446C72.8882 226.496 69.9604 225.276 67.7992 223.115C65.6379 220.954 64.4183 218.026 64.406 214.97V120.446C64.406 119.634 64.7288 118.854 65.3034 118.28C65.878 117.705 66.6574 117.382 67.47 117.382H205.435ZM202.379 123.502H70.5261V214.97C70.5156 215.684 70.6486 216.393 70.9172 217.056C71.1858 217.718 71.5845 218.319 72.0898 218.825C72.595 219.33 73.1965 219.729 73.8587 219.997C74.5208 220.266 75.2302 220.399 75.9446 220.388H196.96C197.675 220.399 198.384 220.266 199.046 219.997C199.708 219.729 200.31 219.33 200.815 218.825C201.32 218.319 201.719 217.718 201.988 217.056C202.256 216.393 202.389 215.684 202.379 214.97V123.502Z" fill="url(#paint0_linear_904_3248)"/>
<path d="M152.965 117.398V226.501H119.94V117.398H152.965ZM146.845 123.518H126.06V220.38H146.845V123.518Z" fill="url(#paint1_linear_904_3248)"/>
<path d="M80.8407 27.303C82.2315 27.316 83.6052 27.6104 84.8792 28.1684L216.755 85.8148C219.284 86.933 221.268 89.0045 222.277 91.5787C223.286 94.1528 223.238 97.0213 222.142 99.5599L219.188 106.319C218.07 108.848 215.998 110.832 213.423 111.84C210.848 112.848 207.98 112.797 205.443 111.699L73.5589 54.0602C71.0297 52.9406 69.0452 50.8672 68.0377 48.2913C67.0301 45.7155 67.081 42.8458 68.1794 40.3073L71.1342 33.5557C71.9658 31.6814 73.3283 30.0919 75.0534 28.9835C76.7784 27.875 78.7903 27.2962 80.8407 27.3186V27.303ZM79.1099 33.6804C78.5855 33.8975 78.109 34.2158 77.7077 34.6171C77.3063 35.0184 76.9881 35.4949 76.771 36.0193L73.785 42.7944C73.5487 43.3126 73.4191 43.8731 73.4038 44.4424C73.3885 45.0118 73.4878 45.5784 73.6958 46.1086C73.9038 46.6388 74.2162 47.1217 74.6146 47.5288C75.013 47.9358 75.4891 48.2586 76.0147 48.478L207.891 106.124C208.409 106.363 208.969 106.494 209.539 106.511C210.109 106.527 210.676 106.428 211.207 106.22C211.738 106.012 212.221 105.698 212.628 105.299C213.035 104.899 213.357 104.422 213.574 103.895L216.529 97.143C216.768 96.6245 216.899 96.0632 216.916 95.4927C216.932 94.9222 216.833 94.3543 216.625 93.8229C216.417 93.2915 216.104 92.8075 215.704 92.4001C215.304 91.9926 214.826 91.6701 214.299 91.4516L82.4312 33.774C81.3801 33.3046 80.1858 33.271 79.1099 33.6804Z" fill="black"/>
<path d="M203.018 31.8795C204.662 32.4725 206.183 33.3602 207.509 34.499C210.214 36.8379 212.124 40.2995 213.138 44.7357C214.151 49.1718 213.917 53.0856 212.467 56.3211C210.969 59.4611 208.429 61.9847 205.279 63.4626C199.112 66.5812 191.058 66.9554 182.903 66.4798C166.593 65.5209 149.698 60.539 149.698 60.539L144.241 58.9329L148.615 55.253C148.615 55.253 161.83 44.1042 176.284 36.8614C183.511 33.236 191.05 30.4527 197.981 30.8581C199.709 30.9495 201.414 31.2936 203.041 31.8795H203.018ZM203.509 39.1301C201.846 37.7529 199.759 36.9903 197.599 36.9705C192.68 36.682 185.772 38.9352 179.005 42.3266C171.39 46.2263 164.173 50.8585 157.456 56.1574C165.905 58.3776 174.546 59.7873 183.262 60.3675C190.91 60.8196 198.215 60.1569 202.535 57.9895C204.441 57.1601 205.987 55.6747 206.893 53.8029C207.672 52.0253 207.976 49.6006 207.173 46.0923C206.37 42.5839 205.061 40.4555 203.501 39.1067L203.509 39.1301Z" fill="black"/>
<path d="M133.817 1.60592C135.354 2.39041 136.767 3.39649 138.012 4.59193C143.025 9.41009 146.104 16.8323 148.35 24.5975C152.825 40.159 153.605 57.428 153.605 57.428L153.885 63.135L148.981 60.2035C148.981 60.2035 133.849 51.1909 122.068 39.8628C116.182 34.2026 111.005 28.0201 109.087 21.3931C108.033 18.0746 108.16 14.4935 109.446 11.2578C110.826 7.99114 113.555 5.16105 117.499 2.9001C121.444 0.63915 125.296 -0.319802 128.835 0.077814C130.572 0.280324 132.257 0.795399 133.81 1.59812L133.817 1.60592ZM128.157 6.15121C126.13 5.92511 123.674 6.40069 120.556 8.19385C117.437 9.98702 115.878 11.8426 115.098 13.6513C114.34 15.5843 114.298 17.7248 114.981 19.6857C116.33 24.3636 120.797 30.1407 126.325 35.4578C132.672 41.4543 139.574 46.8346 146.939 51.5262C146.27 43.0013 144.772 34.5619 142.464 26.3283C140.359 19.0542 137.318 12.4507 133.763 9.03588C132.28 7.46727 130.304 6.45457 128.165 6.16679L128.157 6.15121Z" fill="black"/>
<path d="M136.257 49.0315L166.531 62.2853L165.299 65.0921L154.633 89.4947L124.368 76.2409L136.257 49.0315ZM139.423 57.093L132.406 73.0833L151.453 81.4099L158.469 65.4195L139.423 57.093Z" fill="black"/>
<path d="M70.565 101.267C70.7169 101.132 70.8436 100.971 70.9392 100.792C71.0744 100.517 71.1258 100.209 71.087 99.9052C71.0482 99.6016 70.9209 99.3161 70.7209 99.0843L64.1564 91.4906L65.9807 89.9314C66.9978 89.0581 67.8327 87.9929 68.4377 86.7967C69.0427 85.6005 69.4059 84.2967 69.5066 82.96C69.6072 81.6233 69.4433 80.2798 69.0243 79.0065C68.6052 77.7331 67.9392 76.5549 67.0644 75.5392L52.7191 59.0109C50.9507 56.9687 48.4438 55.7123 45.7494 55.5179C43.055 55.3235 40.3936 56.2069 38.3503 57.974L3.52388 88.0992C1.48242 89.8676 0.225903 92.3737 0.0300434 95.0675C-0.165816 97.7613 0.714982 100.423 2.47917 102.468L16.7855 119.004C18.5537 121.044 21.059 122.299 23.7515 122.493C26.444 122.688 29.1036 121.806 31.1465 120.041L53.756 100.511L69.4657 101.642C69.8667 101.663 70.2604 101.529 70.565 101.267ZM40.3774 60.3051C41.7994 59.0747 43.6516 58.459 45.5272 58.5935C47.4028 58.728 49.1483 59.6016 50.3801 61.0224L64.7255 77.5741C65.953 78.9979 66.566 80.8503 66.4301 82.7253C66.2942 84.6003 65.4205 86.3449 64.0005 87.5769L60.9988 90.1653C60.6914 90.4358 60.5027 90.8163 60.4736 91.2248C60.4444 91.6333 60.5771 92.0368 60.8429 92.3482L65.9807 98.2891L53.3194 97.3691C52.9105 97.3415 52.5072 97.4759 52.1967 97.7434L29.1272 117.694C27.7043 118.924 25.8514 119.538 23.9757 119.402C22.1001 119.266 20.3552 118.391 19.1245 116.969L4.81808 100.433C3.59055 99.0093 2.97757 97.1569 3.11348 95.2819C3.24939 93.4069 4.1231 91.6622 5.54314 90.4303L40.3774 60.3051Z" fill="url(#paint2_linear_904_3248)"/>
<path d="M48.9612 81.8853C50.9117 81.8853 52.493 80.3041 52.493 78.3535C52.493 76.403 50.9117 74.8218 48.9612 74.8218C47.0107 74.8218 45.4294 76.403 45.4294 78.3535C45.4294 80.3041 47.0107 81.8853 48.9612 81.8853Z" fill="url(#paint3_linear_904_3248)"/>
<path d="M37.8666 92.6005C39.3419 91.3245 39.5033 89.0941 38.2272 87.6189C36.9511 86.1437 34.7208 85.9822 33.2456 87.2583C31.7704 88.5344 31.6089 90.7647 32.885 92.24C34.1611 93.7152 36.3914 93.8766 37.8666 92.6005Z" fill="url(#paint4_linear_904_3248)"/>
<path d="M22.1573 105.064C24.1078 105.064 25.689 103.483 25.689 101.532C25.689 99.5817 24.1078 98.0005 22.1573 98.0005C20.2067 98.0005 18.6255 99.5817 18.6255 101.532C18.6255 103.483 20.2067 105.064 22.1573 105.064Z" fill="url(#paint5_linear_904_3248)"/>
<path d="M80.8407 27.303C82.2315 27.316 83.6052 27.6104 84.8792 28.1684L216.755 85.8148C219.284 86.933 221.268 89.0045 222.277 91.5787C223.286 94.1528 223.238 97.0213 222.142 99.5599L219.188 106.319C218.07 108.848 215.998 110.832 213.423 111.84C210.848 112.848 207.98 112.797 205.443 111.699L73.5589 54.0602C71.0297 52.9406 69.0452 50.8672 68.0377 48.2913C67.0301 45.7155 67.081 42.8458 68.1794 40.3073L71.1342 33.5557C71.9658 31.6814 73.3283 30.0919 75.0534 28.9835C76.7784 27.875 78.7903 27.2962 80.8407 27.3186V27.303ZM79.1099 33.6804C78.5855 33.8975 78.109 34.2158 77.7077 34.6171C77.3063 35.0184 76.9881 35.4949 76.771 36.0193L73.785 42.7944C73.5487 43.3126 73.4191 43.8731 73.4038 44.4424C73.3885 45.0118 73.4878 45.5784 73.6958 46.1086C73.9038 46.6388 74.2162 47.1217 74.6146 47.5288C75.013 47.9358 75.4891 48.2586 76.0147 48.478L207.891 106.124C208.409 106.363 208.969 106.494 209.539 106.511C210.109 106.527 210.676 106.428 211.207 106.22C211.738 106.012 212.221 105.698 212.628 105.299C213.035 104.899 213.357 104.422 213.574 103.895L216.529 97.143C216.768 96.6245 216.899 96.0632 216.916 95.4927C216.932 94.9222 216.833 94.3543 216.625 93.8229C216.417 93.2915 216.104 92.8075 215.704 92.4001C215.304 91.9926 214.826 91.6701 214.299 91.4516L82.4312 33.774C81.3801 33.3046 80.1858 33.271 79.1099 33.6804Z" fill="url(#paint6_linear_904_3248)"/>
<path d="M203.018 31.8795C204.662 32.4725 206.183 33.3602 207.509 34.499C210.214 36.8379 212.124 40.2995 213.138 44.7357C214.151 49.1718 213.917 53.0856 212.467 56.3211C210.969 59.4611 208.429 61.9847 205.279 63.4626C199.112 66.5812 191.058 66.9554 182.903 66.4798C166.593 65.5209 149.698 60.539 149.698 60.539L144.241 58.9329L148.615 55.253C148.615 55.253 161.83 44.1042 176.284 36.8614C183.511 33.236 191.05 30.4527 197.981 30.8581C199.709 30.9495 201.414 31.2936 203.041 31.8795H203.018ZM203.509 39.1301C201.846 37.7529 199.759 36.9903 197.599 36.9705C192.68 36.682 185.772 38.9352 179.005 42.3266C171.39 46.2263 164.173 50.8585 157.456 56.1574C165.905 58.3776 174.546 59.7873 183.262 60.3675C190.91 60.8196 198.215 60.1569 202.535 57.9895C204.441 57.1601 205.987 55.6747 206.893 53.8029C207.672 52.0253 207.976 49.6006 207.173 46.0923C206.37 42.5839 205.061 40.4555 203.501 39.1067L203.509 39.1301Z" fill="url(#paint7_linear_904_3248)"/>
<path d="M133.817 1.60592C135.354 2.39041 136.767 3.39649 138.012 4.59193C143.025 9.41009 146.104 16.8323 148.35 24.5975C152.825 40.159 153.605 57.428 153.605 57.428L153.885 63.135L148.981 60.2035C148.981 60.2035 133.849 51.1909 122.068 39.8628C116.182 34.2026 111.005 28.0201 109.087 21.3931C108.033 18.0746 108.16 14.4935 109.446 11.2578C110.826 7.99114 113.555 5.16105 117.499 2.9001C121.444 0.63915 125.296 -0.319802 128.835 0.077814C130.572 0.280324 132.257 0.795399 133.81 1.59812L133.817 1.60592ZM128.157 6.15121C126.13 5.92511 123.674 6.40069 120.556 8.19385C117.437 9.98702 115.878 11.8426 115.098 13.6513C114.34 15.5843 114.298 17.7248 114.981 19.6857C116.33 24.3636 120.797 30.1407 126.325 35.4578C132.672 41.4543 139.574 46.8346 146.939 51.5262C146.27 43.0013 144.772 34.5619 142.464 26.3283C140.359 19.0542 137.318 12.4507 133.763 9.03588C132.28 7.46727 130.304 6.45457 128.165 6.16679L128.157 6.15121Z" fill="url(#paint8_linear_904_3248)"/>
<path d="M136.257 49.0315L166.531 62.2853L165.299 65.0921L154.633 89.4947L124.368 76.2409L136.257 49.0315ZM139.423 57.093L132.406 73.0833L151.453 81.4099L158.469 65.4195L139.423 57.093Z" fill="url(#paint9_linear_904_3248)"/>
<path d="M70.565 101.267C70.7169 101.132 70.8436 100.971 70.9392 100.792C71.0744 100.517 71.1258 100.209 71.087 99.9052C71.0482 99.6016 70.9209 99.3161 70.7209 99.0843L64.1564 91.4906L65.9807 89.9314C66.9978 89.0581 67.8327 87.9929 68.4377 86.7967C69.0427 85.6005 69.4059 84.2967 69.5066 82.96C69.6072 81.6233 69.4433 80.2798 69.0243 79.0065C68.6052 77.7331 67.9392 76.5549 67.0644 75.5392L52.7191 59.0109C50.9507 56.9687 48.4438 55.7123 45.7494 55.5179C43.055 55.3235 40.3936 56.2069 38.3503 57.974L3.52388 88.0992C1.48242 89.8676 0.225903 92.3737 0.0300434 95.0675C-0.165816 97.7613 0.714982 100.423 2.47917 102.468L16.7855 119.004C18.5537 121.044 21.059 122.299 23.7515 122.493C26.444 122.688 29.1036 121.806 31.1465 120.041L53.756 100.511L69.4657 101.642C69.8667 101.663 70.2604 101.529 70.565 101.267ZM40.3774 60.3051C41.7994 59.0747 43.6516 58.459 45.5272 58.5935C47.4028 58.728 49.1483 59.6016 50.3801 61.0224L64.7255 77.5741C65.953 78.9979 66.566 80.8503 66.4301 82.7253C66.2942 84.6003 65.4205 86.3449 64.0005 87.5769L60.9988 90.1653C60.6914 90.4358 60.5027 90.8163 60.4736 91.2248C60.4444 91.6333 60.5771 92.0368 60.8429 92.3482L65.9807 98.2891L53.3194 97.3691C52.9105 97.3415 52.5072 97.4759 52.1967 97.7434L29.1272 117.694C27.7043 118.924 25.8514 119.538 23.9757 119.402C22.1001 119.266 20.3552 118.391 19.1245 116.969L4.81808 100.433C3.59055 99.0093 2.97757 97.1569 3.11348 95.2819C3.24939 93.4069 4.1231 91.6622 5.54314 90.4303L40.3774 60.3051Z" fill="url(#paint10_linear_904_3248)"/>
<path d="M48.9612 81.8853C50.9117 81.8853 52.493 80.3041 52.493 78.3535C52.493 76.403 50.9117 74.8218 48.9612 74.8218C47.0107 74.8218 45.4294 76.403 45.4294 78.3535C45.4294 80.3041 47.0107 81.8853 48.9612 81.8853Z" fill="url(#paint11_linear_904_3248)"/>
<path d="M37.8666 92.6005C39.3419 91.3245 39.5033 89.0941 38.2272 87.6189C36.9511 86.1437 34.7208 85.9822 33.2456 87.2583C31.7704 88.5344 31.6089 90.7647 32.885 92.24C34.1611 93.7152 36.3914 93.8766 37.8666 92.6005Z" fill="url(#paint12_linear_904_3248)"/>
<path d="M22.1573 105.064C24.1078 105.064 25.689 103.483 25.689 101.532C25.689 99.5817 24.1078 98.0005 22.1573 98.0005C20.2067 98.0005 18.6255 99.5817 18.6255 101.532C18.6255 103.483 20.2067 105.064 22.1573 105.064Z" fill="url(#paint13_linear_904_3248)"/>
<path d="M103.372 239.84L78.837 274.682L94.079 274.729C96.4179 274.729 98.2136 274.225 99.4663 273.217C100.719 272.208 101.836 270.129 102.819 266.979L103.723 267.143L101.938 276.982L71.6799 276.889V275.906L95.6305 242.047H83.741C82.2806 241.954 80.8171 242.169 79.4451 242.678C78.5922 243.073 77.8816 243.721 77.4103 244.534C76.7516 245.98 76.3178 247.518 76.1239 249.095H75.0792L75.8588 239.801L103.372 239.84Z" fill="url(#paint14_linear_904_3248)"/>
<path d="M114.505 238.07L114.443 256.415C116.486 254.193 118.092 252.767 119.285 252.143C120.377 251.541 121.601 251.22 122.847 251.207C124.171 251.178 125.466 251.598 126.52 252.4C127.652 253.359 128.445 254.658 128.781 256.104C129.212 258.213 129.382 260.368 129.287 262.52V271.4C129.214 272.503 129.341 273.609 129.662 274.667C129.845 275.109 130.172 275.477 130.589 275.711C131.351 276.027 132.176 276.161 132.998 276.101V277.084H120.664V276.101H121.241C122.09 276.186 122.945 276.001 123.682 275.571C124.17 275.174 124.51 274.625 124.648 274.012C124.729 273.154 124.757 272.292 124.734 271.431V262.551C124.828 260.743 124.692 258.93 124.329 257.156C124.108 256.375 123.63 255.691 122.972 255.215C122.309 254.771 121.524 254.545 120.727 254.568C119.755 254.581 118.799 254.821 117.936 255.269C116.614 256.017 115.433 256.987 114.443 258.138L114.396 271.392C114.326 272.471 114.421 273.554 114.677 274.604C114.908 275.063 115.283 275.433 115.745 275.657C116.599 276.005 117.522 276.154 118.443 276.093V277.076L105.968 277.037V276.055C106.873 276.098 107.775 275.922 108.596 275.54C109.006 275.314 109.32 274.945 109.477 274.503C109.766 273.49 109.882 272.436 109.82 271.384L109.944 248.619C110.003 246.852 109.94 245.084 109.757 243.325C109.698 242.822 109.476 242.351 109.126 241.984C108.806 241.73 108.403 241.603 107.995 241.626C107.354 241.675 106.723 241.819 106.124 242.054L105.75 241.095L113.266 238.047L114.505 238.07Z" fill="url(#paint15_linear_904_3248)"/>
<path d="M139.345 261.475C139.313 265.202 140.21 268.128 142.034 270.254C142.797 271.236 143.772 272.033 144.885 272.587C145.999 273.14 147.223 273.435 148.466 273.45C150.005 273.489 151.512 273.018 152.754 272.11C154.204 270.875 155.27 269.252 155.826 267.432L156.676 267.985C156.259 270.544 155.086 272.92 153.308 274.807C152.448 275.796 151.38 276.584 150.181 277.113C148.981 277.643 147.68 277.902 146.369 277.871C144.902 277.879 143.45 277.567 142.115 276.959C140.78 276.35 139.592 275.459 138.635 274.347C136.494 271.993 135.431 268.832 135.446 264.867C135.446 260.579 136.556 257.234 138.775 254.833C139.819 253.672 141.101 252.751 142.535 252.133C143.968 251.516 145.518 251.216 147.079 251.254C148.365 251.216 149.646 251.445 150.839 251.928C152.033 252.412 153.112 253.138 154.01 254.061C155.813 255.916 156.71 258.398 156.699 261.506L139.345 261.475ZM139.345 259.916H150.961C150.957 258.76 150.767 257.613 150.4 256.517C149.975 255.528 149.267 254.687 148.365 254.1C147.528 253.536 146.544 253.227 145.535 253.211C144.772 253.215 144.019 253.373 143.318 253.674C142.618 253.976 141.985 254.415 141.457 254.965C140.187 256.299 139.44 258.045 139.352 259.885L139.345 259.916Z" fill="url(#paint16_linear_904_3248)"/>
<path d="M167.388 243.855V252.104H173.259V254.077H167.396L167.342 270.355C167.342 271.985 167.568 273.084 168.028 273.645C168.24 273.917 168.512 274.136 168.824 274.285C169.135 274.434 169.476 274.509 169.821 274.503C170.451 274.501 171.065 274.308 171.583 273.949C172.175 273.54 172.633 272.965 172.901 272.297H173.969C173.467 273.876 172.52 275.276 171.24 276.327C170.223 277.177 168.947 277.653 167.622 277.676C166.752 277.665 165.901 277.42 165.159 276.967C164.365 276.508 163.742 275.805 163.381 274.963C162.933 273.674 162.742 272.31 162.82 270.948L162.874 254.061H158.898V253.157C160.048 252.665 161.103 251.976 162.017 251.122C163.106 250.12 164.053 248.973 164.831 247.715C165.507 246.488 166.099 245.217 166.601 243.91L167.388 243.855Z" fill="url(#paint17_linear_904_3248)"/>
<path d="M187.947 251.426C189.707 251.378 191.452 251.749 193.04 252.506C194.628 253.264 196.015 254.387 197.085 255.784C199.011 258.196 200.039 261.203 199.993 264.29C199.958 266.657 199.398 268.986 198.356 271.112C197.45 273.208 195.939 274.988 194.017 276.222C192.095 277.457 189.849 278.09 187.565 278.043C185.803 278.091 184.057 277.7 182.484 276.905C180.91 276.11 179.56 274.936 178.553 273.489C176.698 271.019 175.713 268.003 175.754 264.913C175.783 262.521 176.379 260.17 177.493 258.053C178.472 255.968 180.045 254.218 182.014 253.024C183.811 251.964 185.862 251.412 187.947 251.426ZM187.09 253.203C186.059 253.223 185.052 253.519 184.174 254.061C183.07 254.782 182.232 255.844 181.788 257.086C181.129 258.865 180.824 260.756 180.892 262.652C180.794 265.939 181.535 269.196 183.044 272.117C184.488 274.768 186.399 276.099 188.774 276.109C189.626 276.12 190.469 275.928 191.233 275.548C191.996 275.169 192.658 274.613 193.163 273.926C194.317 272.466 194.899 269.955 194.91 266.395C194.91 261.935 193.964 258.424 192.072 255.862C191.531 255.046 190.796 254.376 189.934 253.912C189.072 253.448 188.108 253.205 187.129 253.203H187.09Z" fill="url(#paint18_linear_904_3248)"/>
</g>
<defs>
<linearGradient id="paint0_linear_904_3248" x1="64.7102" y1="172.3" x2="208.164" y2="172.3" gradientUnits="userSpaceOnUse">
<stop stop-color="#9C57FF"/>
<stop offset="1" stop-color="#6CC7FE"/>
</linearGradient>
<linearGradient id="paint1_linear_904_3248" x1="120.065" y1="172.3" x2="152.809" y2="172.3" gradientUnits="userSpaceOnUse">
<stop stop-color="#9C57FF"/>
<stop offset="1" stop-color="#6CC7FE"/>
</linearGradient>
<linearGradient id="paint2_linear_904_3248" x1="-0.31076" y1="91.43" x2="70.1688" y2="86.5139" gradientUnits="userSpaceOnUse">
<stop stop-color="#9C57FF"/>
<stop offset="1" stop-color="#6CC7FE"/>
</linearGradient>
<linearGradient id="paint3_linear_904_3248" x1="45.4576" y1="78.5698" x2="52.504" y2="78.0783" gradientUnits="userSpaceOnUse">
<stop stop-color="#9C57FF"/>
<stop offset="1" stop-color="#6CC7FE"/>
</linearGradient>
<linearGradient id="paint4_linear_904_3248" x1="32.0324" y1="90.1674" x2="39.0788" y2="89.6759" gradientUnits="userSpaceOnUse">
<stop stop-color="#9C57FF"/>
<stop offset="1" stop-color="#6CC7FE"/>
</linearGradient>
<linearGradient id="paint5_linear_904_3248" x1="18.6508" y1="101.76" x2="25.6972" y2="101.268" gradientUnits="userSpaceOnUse">
<stop stop-color="#9C57FF"/>
<stop offset="1" stop-color="#6CC7FE"/>
</linearGradient>
<linearGradient id="paint6_linear_904_3248" x1="47.5578" y1="24.5586" x2="235.841" y2="109.149" gradientUnits="userSpaceOnUse">
<stop stop-color="#9C57FF"/>
<stop offset="1" stop-color="#6CC7FE"/>
</linearGradient>
<linearGradient id="paint7_linear_904_3248" x1="220.638" y1="49.1172" x2="151.25" y2="52.6256" gradientUnits="userSpaceOnUse">
<stop stop-color="#6CC7FE"/>
<stop offset="1" stop-color="#9C57FF"/>
</linearGradient>
<linearGradient id="paint8_linear_904_3248" x1="101.353" y1="16.7621" x2="176.198" y2="44.0494" gradientUnits="userSpaceOnUse">
<stop stop-color="#9C57FF"/>
<stop offset="1" stop-color="#6CC7FE"/>
</linearGradient>
<linearGradient id="paint9_linear_904_3248" x1="122.403" y1="76.4046" x2="172.69" y2="60.0322" gradientUnits="userSpaceOnUse">
<stop stop-color="#9C57FF"/>
<stop offset="1" stop-color="#6CC7FE"/>
</linearGradient>
<linearGradient id="paint10_linear_904_3248" x1="-0.31076" y1="91.43" x2="70.1688" y2="86.5139" gradientUnits="userSpaceOnUse">
<stop stop-color="#9C57FF"/>
<stop offset="1" stop-color="#6CC7FE"/>
</linearGradient>
<linearGradient id="paint11_linear_904_3248" x1="45.4576" y1="78.5698" x2="52.504" y2="78.0783" gradientUnits="userSpaceOnUse">
<stop stop-color="#9C57FF"/>
<stop offset="1" stop-color="#6CC7FE"/>
</linearGradient>
<linearGradient id="paint12_linear_904_3248" x1="32.0324" y1="90.1674" x2="39.0788" y2="89.6759" gradientUnits="userSpaceOnUse">
<stop stop-color="#9C57FF"/>
<stop offset="1" stop-color="#6CC7FE"/>
</linearGradient>
<linearGradient id="paint13_linear_904_3248" x1="18.6508" y1="101.76" x2="25.6972" y2="101.268" gradientUnits="userSpaceOnUse">
<stop stop-color="#9C57FF"/>
<stop offset="1" stop-color="#6CC7FE"/>
</linearGradient>
<linearGradient id="paint14_linear_904_3248" x1="71.6799" y1="258.053" x2="199.993" y2="258.053" gradientUnits="userSpaceOnUse">
<stop stop-color="#9C57FF"/>
<stop offset="1" stop-color="#6CC7FE"/>
</linearGradient>
<linearGradient id="paint15_linear_904_3248" x1="71.6798" y1="258.053" x2="199.993" y2="258.053" gradientUnits="userSpaceOnUse">
<stop stop-color="#9C57FF"/>
<stop offset="1" stop-color="#6CC7FE"/>
</linearGradient>
<linearGradient id="paint16_linear_904_3248" x1="71.6799" y1="258.053" x2="199.993" y2="258.053" gradientUnits="userSpaceOnUse">
<stop stop-color="#9C57FF"/>
<stop offset="1" stop-color="#6CC7FE"/>
</linearGradient>
<linearGradient id="paint17_linear_904_3248" x1="71.6799" y1="258.053" x2="199.993" y2="258.053" gradientUnits="userSpaceOnUse">
<stop stop-color="#9C57FF"/>
<stop offset="1" stop-color="#6CC7FE"/>
</linearGradient>
<linearGradient id="paint18_linear_904_3248" x1="71.6798" y1="258.053" x2="199.993" y2="258.053" gradientUnits="userSpaceOnUse">
<stop stop-color="#9C57FF"/>
<stop offset="1" stop-color="#6CC7FE"/>
</linearGradient>
<clipPath id="clip0_904_3248">
<rect width="223" height="294.532" fill="white"/>
</clipPath>
</defs>
</svg>
