<svg width="252" height="210" viewBox="0 0 252 210" fill="none" xmlns="http://www.w3.org/2000/svg">
<path d="M126.174 49.75H125.023V18.2382C125.023 15.8431 124.552 13.4715 123.635 11.2587C122.719 9.04599 121.375 7.03542 119.682 5.34185C117.988 3.64828 115.977 2.30486 113.765 1.38831C111.552 0.47175 109.18 2.02929e-06 106.785 0H40.0231C35.1861 -9.2211e-06 30.5471 1.9215 27.1268 5.34181C23.7064 8.76212 21.7849 13.4011 21.7849 18.2381V191.114C21.7849 193.51 22.2567 195.881 23.1732 198.094C24.0898 200.307 25.4332 202.317 27.1267 204.011C28.8203 205.704 30.8309 207.048 33.0436 207.964C35.2564 208.881 37.628 209.353 40.0231 209.353H106.785C111.622 209.353 116.261 207.431 119.681 204.011C123.102 200.59 125.023 195.952 125.023 191.115V72.1806H126.174V49.75Z" fill="#3F3D56"/>
<path d="M107.521 4.74496H98.8061C99.2069 5.72751 99.3599 6.79354 99.2516 7.84913C99.1433 8.90473 98.7771 9.9175 98.1852 10.7982C97.5933 11.6789 96.7939 12.4006 95.8574 12.8996C94.9209 13.3986 93.8761 13.6596 92.815 13.6597H54.5679C53.5067 13.6596 52.4619 13.3986 51.5254 12.8996C50.5889 12.4006 49.7895 11.679 49.1976 10.7982C48.6057 9.9175 48.2395 8.90473 48.1313 7.84914C48.023 6.79354 48.176 5.72751 48.5767 4.74496H40.4372C38.6486 4.74496 36.8775 5.09726 35.225 5.78173C33.5726 6.4662 32.0711 7.46945 30.8064 8.73418C29.5416 9.99892 28.5384 11.5004 27.8539 13.1529C27.1694 14.8053 26.8171 16.5764 26.8171 18.365V190.988C26.8171 192.776 27.1694 194.547 27.8539 196.2C28.5384 197.852 29.5416 199.354 30.8064 200.618C32.0711 201.883 33.5726 202.886 35.225 203.571C36.8775 204.255 38.6486 204.608 40.4372 204.608H107.521C109.309 204.608 111.08 204.255 112.733 203.571C114.385 202.886 115.887 201.883 117.152 200.618C118.416 199.354 119.42 197.852 120.104 196.2C120.789 194.547 121.141 192.776 121.141 190.988V18.365C121.141 16.5764 120.789 14.8053 120.104 13.1529C119.42 11.5004 118.416 9.99892 117.152 8.73418C115.887 7.46945 114.385 6.4662 112.733 5.78173C111.08 5.09726 109.309 4.74496 107.521 4.74496Z" fill="white"/>
<path d="M147.572 209.382H0.386314C0.283857 209.382 0.185597 209.342 0.113149 209.269C0.0407006 209.197 0 209.099 0 208.996C0 208.894 0.0407006 208.795 0.113149 208.723C0.185597 208.651 0.283857 208.61 0.386314 208.61H147.572C147.675 208.61 147.773 208.651 147.845 208.723C147.918 208.795 147.958 208.894 147.958 208.996C147.958 209.099 147.918 209.197 147.845 209.269C147.773 209.342 147.675 209.382 147.572 209.382Z" fill="#CBCBCB"/>
<path d="M73.9792 133.541C91.9963 133.541 106.602 118.935 106.602 100.918C106.602 82.9013 91.9963 68.2955 73.9792 68.2955C55.9622 68.2955 41.3564 82.9013 41.3564 100.918C41.3564 118.935 55.9622 133.541 73.9792 133.541Z" fill="#9C57FF"/>
<path d="M70.7464 113.363C70.0125 113.364 69.2981 113.127 68.7109 112.686L68.6745 112.659L61.0077 106.794C60.6526 106.522 60.3547 106.183 60.1308 105.795C59.9069 105.408 59.7615 104.98 59.7029 104.537C59.6443 104.093 59.6737 103.642 59.7893 103.21C59.9049 102.778 60.1045 102.373 60.3767 102.017C60.649 101.662 60.9885 101.364 61.3758 101.141C61.7632 100.917 62.1909 100.771 62.6345 100.713C63.0781 100.654 63.5288 100.683 63.961 100.799C64.3933 100.915 64.7985 101.114 65.1536 101.386L70.1195 105.195L81.8543 89.8853C82.1264 89.5304 82.4657 89.2325 82.853 89.0087C83.2402 88.785 83.6677 88.6396 84.1111 88.5811C84.5545 88.5225 85.005 88.5518 85.4371 88.6674C85.8691 88.783 86.2742 88.9825 86.6291 89.2546L86.6301 89.2554L86.5573 89.3565L86.6321 89.2554C87.3481 89.8057 87.8166 90.6176 87.9347 91.513C88.0528 92.4084 87.8109 93.314 87.262 94.0312L73.4594 112.03C73.1401 112.445 72.7295 112.781 72.2595 113.011C71.7896 113.241 71.2728 113.36 70.7494 113.359L70.7464 113.363Z" fill="white"/>
<path d="M212.77 185.156C213.109 184.607 213.508 184.099 213.96 183.639C214.147 183.446 214.343 183.264 214.546 183.087C215.778 181.99 217.28 181.241 218.898 180.917C220.516 180.593 222.19 180.706 223.75 181.244C225.31 181.782 226.698 182.726 227.772 183.978C228.846 185.231 229.567 186.746 229.86 188.37C231.222 183.336 227.678 178.377 224.116 174.569C220.551 170.761 216.478 166.585 216.498 161.368C216.508 158.465 217.928 155.875 220.072 153.955C220.138 153.896 220.204 153.838 220.272 153.782C222.863 151.561 226.197 150.399 229.608 150.529C235.945 150.868 241.477 155.127 245.32 160.178C251.504 168.306 254.215 179.716 249.885 188.968C246.076 197.106 237.954 201.938 229.665 205.823C228.507 206.366 227.352 206.892 226.199 207.402C226.191 207.404 226.183 207.41 226.175 207.412C226.12 207.436 226.064 207.46 226.012 207.485C225.774 207.59 225.536 207.695 225.301 207.799L225.41 207.871L225.751 208.091C225.632 208.02 225.515 207.95 225.397 207.879C225.362 207.857 225.325 207.837 225.29 207.815C221.219 205.372 217.091 202.788 214.278 198.974C211.361 195.014 210.188 189.342 212.77 185.156Z" fill="#E0CBFF"/>
<path d="M239.934 175.959C240.835 178.01 241.433 180.182 241.708 182.405C241.924 184.388 241.843 186.392 241.466 188.35C240.658 192.375 238.895 196.147 236.325 199.348C234.387 201.778 232.149 203.954 229.664 205.823C228.507 206.366 227.352 206.892 226.199 207.402C226.191 207.404 226.183 207.41 226.175 207.412C226.12 207.436 226.064 207.46 226.012 207.485C225.774 207.59 225.536 207.695 225.3 207.799L225.41 207.871L225.75 208.091C225.632 208.02 225.515 207.95 225.397 207.879C225.362 207.857 225.325 207.837 225.29 207.815C226.186 204.681 226.318 201.378 225.674 198.182C225.03 194.987 223.63 191.992 221.591 189.449C219.541 186.938 216.926 184.947 213.96 183.639C214.146 183.446 214.343 183.264 214.546 183.087C215.688 183.611 216.782 184.236 217.814 184.953C221.507 187.505 224.279 191.178 225.722 195.429C227.009 199.285 227.17 203.428 226.185 207.372C226.39 207.239 226.595 207.102 226.794 206.965C230.587 204.407 234.083 201.336 236.716 197.569C238.987 194.385 240.44 190.692 240.947 186.814C241.452 182.579 240.392 178.413 238.501 174.634C236.413 170.591 233.781 166.852 230.68 163.521C227.565 160.099 224.043 157.071 220.193 154.504C220.106 154.445 220.045 154.356 220.023 154.253C220 154.151 220.018 154.044 220.072 153.955C220.113 153.873 220.185 153.811 220.272 153.782C220.316 153.771 220.362 153.77 220.406 153.779C220.451 153.788 220.493 153.807 220.529 153.834C221.004 154.152 221.476 154.472 221.941 154.801C225.819 157.547 229.341 160.764 232.425 164.378C235.406 167.861 238.118 171.732 239.934 175.959Z" fill="white"/>
<path d="M156.926 16.4738C160.195 16.4738 162.845 13.8238 162.845 10.5548C162.845 7.28584 160.195 4.6358 156.926 4.6358C153.657 4.6358 151.007 7.28584 151.007 10.5548C151.007 13.8238 153.657 16.4738 156.926 16.4738Z" fill="#F1F1F1"/>
<path d="M230.525 95.6843C232.519 95.6843 234.134 94.0686 234.134 92.0756C234.134 90.0826 232.519 88.4669 230.525 88.4669C228.532 88.4669 226.917 90.0826 226.917 92.0756C226.917 94.0686 228.532 95.6843 230.525 95.6843Z" fill="#F1F1F1"/>
<path d="M124.911 105.586C126.904 105.586 128.52 103.97 128.52 101.977C128.52 99.9839 126.904 98.3682 124.911 98.3682C122.918 98.3682 121.303 99.9839 121.303 101.977C121.303 103.97 122.918 105.586 124.911 105.586Z" fill="#F1F1F1"/>
<path d="M238.819 35.4264C238.984 34.2542 238.713 33.062 238.058 32.076C237.403 31.0899 236.409 30.3784 235.264 30.0763C234.12 29.7742 232.904 29.9024 231.847 30.4368C230.791 30.9711 229.967 31.8744 229.532 32.9755L219.328 44.6736L222.322 53.0359L232.584 39.367C233.254 39.5815 233.963 39.6466 234.66 39.5577C235.358 39.4687 236.027 39.2279 236.622 38.8522C237.216 38.4765 237.721 37.9751 238.1 37.3832C238.48 36.7913 238.725 36.1234 238.819 35.4264Z" fill="#FFB7B7"/>
<path d="M196.522 80.9441L230.394 44.7947L225.825 37.5311L183.341 73.461L196.522 80.9441Z" fill="#6CC7FE"/>
<path d="M188.962 58.98C195.524 58.98 200.843 53.6604 200.843 47.0984C200.843 40.5364 195.524 35.2169 188.962 35.2169C182.4 35.2169 177.08 40.5364 177.08 47.0984C177.08 53.6604 182.4 58.98 188.962 58.98Z" fill="#2F2E41"/>
<path d="M189.917 40.3864C192.474 37.7937 195.568 35.793 198.981 34.5251C201.172 33.7134 203.557 33.2119 205.848 33.6729C208.138 34.1338 210.305 35.7185 210.944 37.966C211.466 39.8038 210.927 41.7825 210.116 43.5125C209.305 45.2425 208.222 46.8468 207.566 48.6414C206.897 50.4725 206.696 52.4417 206.981 54.3703C207.266 56.2989 208.028 58.1258 209.198 59.6851C210.368 61.2445 211.909 62.4869 213.681 63.2996C215.453 64.1123 217.4 64.4696 219.345 64.339C217.094 64.6408 215.02 65.6985 212.82 66.2615C210.62 66.8244 208.023 66.7863 206.389 65.2102C204.659 63.5427 204.624 60.8314 204.708 58.4303C204.832 54.8609 204.956 51.2915 205.081 47.722C205.144 45.9017 205.198 44.023 204.542 42.324C203.885 40.625 202.325 39.1372 200.504 39.1527C199.123 39.1644 197.902 40.0006 196.795 40.8253C195.688 41.65 194.516 42.5299 193.141 42.6526C191.766 42.7752 190.196 41.7577 190.299 40.3811L189.917 40.3864Z" fill="#2F2E41"/>
<path d="M143.834 126.878C142.694 127.194 141.476 127.082 140.413 126.561C139.35 126.041 138.515 125.148 138.066 124.053C137.616 122.957 137.585 121.735 137.977 120.618C138.368 119.501 139.156 118.566 140.191 117.991L150.455 106.346L159.137 108.222L146.926 120.182C147.227 120.818 147.384 121.512 147.387 122.215C147.39 122.918 147.238 123.613 146.944 124.252C146.649 124.89 146.218 125.456 145.68 125.91C145.143 126.363 144.513 126.694 143.834 126.878Z" fill="#FFB7B7"/>
<path d="M177.605 85.1871L152.022 117.3L144.223 113.72L174.294 66.905L177.605 85.1871Z" fill="#6CC7FE"/>
<path d="M157.192 182.156L151.094 182.06L151.828 202.842H157.191L157.192 182.156Z" fill="#FFB7B7"/>
<path d="M158.559 201.091L147.997 201.09H147.997C146.212 201.091 144.5 201.8 143.237 203.062C141.975 204.324 141.266 206.036 141.266 207.821V208.04L158.559 208.04L158.559 201.091Z" fill="#2F2E41"/>
<path d="M197.562 176.644L190.901 180.92L204.225 196.949L208.738 194.051L197.562 176.644Z" fill="#FFB7B7"/>
<path d="M208.942 191.839L200.055 197.545L200.054 197.545C198.552 198.51 197.495 200.031 197.115 201.775C196.734 203.519 197.063 205.343 198.027 206.845L198.145 207.029L212.697 197.687L208.942 191.839Z" fill="#2F2E41"/>
<path d="M199.935 113.186C199.935 113.186 185.136 64.0339 180.38 63.3696C175.624 62.7054 167.961 75.9816 167.961 75.9816C158.025 88.658 147.781 129.72 147.781 129.72C147.781 129.72 164.859 130.788 177.344 137.431C189.828 144.073 204.562 137.094 204.562 137.094L199.935 113.186Z" fill="#6CC7FE"/>
<path opacity="0.1" d="M199.935 113.186C199.935 113.186 185.136 64.0339 180.38 63.3696C175.624 62.7054 169.907 76.1163 169.907 76.1163C164.956 96.579 147.781 129.72 147.781 129.72C147.781 129.72 164.859 130.788 177.344 137.431C189.828 144.073 204.562 137.094 204.562 137.094L199.935 113.186Z" fill="black"/>
<path d="M187.793 98.4803V123.179L190.7 158.957L205.222 186.021L198.291 190.971L178.488 165.228L170.656 139.666L158.356 196.252L149.115 195.592L155.533 117.137L167.711 95.0538L187.793 98.4803Z" fill="#2F2E41"/>
<path d="M172.872 74.5909C168.251 79.2116 172.542 84.1622 172.542 84.1622L167.261 96.0438L188.054 101.655L195.32 69.1854L190.37 63.9047C180.468 63.5747 180.463 63.3695 180.463 63.3695C178.728 65.0671 172.872 74.5909 172.872 74.5909Z" fill="#6C63FF"/>
<path d="M196.158 65.8217C195.213 65.1246 194.14 64.6218 193 64.3424C191.86 64.0631 190.676 64.0127 189.516 64.1942C188.356 64.3757 187.244 64.7855 186.244 65.3999C185.244 66.0142 184.376 66.8209 183.69 67.7732C178.462 75.0514 173.629 86.8039 180.289 101.461C190.982 124.997 200.287 137.045 204.07 137.044C204.235 137.045 204.399 137.019 204.556 136.967C206.885 136.177 210.251 132.237 210.861 128.765C211.079 127.522 211.027 125.791 209.541 124.602C205.271 121.187 197.607 110.555 195.216 96.5604C193.895 88.8275 196.457 81.7836 198.839 77.2364C199.846 75.3548 200.14 73.1737 199.669 71.0927C199.197 69.0118 197.991 67.1704 196.273 65.9063L196.158 65.8217Z" fill="#6CC7FE"/>
<path d="M189.573 57.8127C193.812 55.4958 195.369 50.1816 193.052 45.9432C190.735 41.7047 185.421 40.147 181.183 42.464C176.944 44.7809 175.387 50.0951 177.704 54.3336C180.02 58.572 185.335 60.1297 189.573 57.8127Z" fill="#FFB7B7"/>
<path d="M173.077 49.4771H185.706L185.836 47.6639L186.484 49.4771H188.428L188.685 45.8834L189.968 49.4771H193.731V49.299C193.728 46.7971 192.733 44.3985 190.964 42.6294C189.195 40.8603 186.796 39.8652 184.294 39.8624H182.514C180.012 39.8652 177.613 40.8603 175.844 42.6294C174.075 44.3985 173.08 46.7971 173.077 49.299V49.4771Z" fill="#2F2E41"/>
<path d="M191.823 55.9945L197.212 54.2457V41.1577H187.032L187.284 41.4093C190.791 44.9114 194.691 57.3362 191.823 55.9945Z" fill="#2F2E41"/>
</svg>
