<svg width="310" height="202" viewBox="0 0 310 202" fill="none" xmlns="http://www.w3.org/2000/svg">
<path d="M31.6784 166.549C31.1904 166.355 30.569 167.446 30.1498 167.252C29.7322 167.058 30.2039 165.908 29.8219 164.407C29.753 164.136 29.3188 162.43 28.6046 162.352C27.2509 162.204 26.082 168.033 24.059 167.983C23.6151 167.972 23.0828 167.677 21.7024 167.596C21.1533 167.564 20.855 167.589 20.6999 167.785C20.4797 168.064 20.74 168.445 21.0019 169.389C21.3945 170.804 21.0849 170.94 21.4926 171.996C21.7952 172.78 22.1248 173.117 21.9574 173.362C21.7204 173.708 20.9074 173.256 20.5538 173.626C20.193 174.003 20.554 174.981 20.9313 175.631C21.6392 176.85 22.6092 177.266 23.4271 177.86C24.316 178.505 25.4409 179.662 26.2627 181.894L32.8397 201.972C31.5772 197.785 28.3068 186.159 27.2652 181.705C26.9645 180.419 26.6985 179.085 27.3878 177.945C28.0514 176.847 29.5204 176.062 30.8695 174.383C31.0271 174.187 31.4587 173.635 31.2823 173.267C31.1365 172.963 30.7079 173.061 30.5675 172.779C30.3792 172.4 30.9975 171.916 31.4686 170.948C31.8009 170.265 31.8911 169.689 31.9687 169.193C31.9921 169.044 32.3281 166.807 31.6784 166.549Z" fill="#E0CBFF"/>
<path d="M16.0806 191.839C15.8448 192.022 16.2009 192.642 15.9846 192.792C15.7692 192.941 15.3406 192.377 14.4937 192.132C14.341 192.087 13.3785 191.808 13.1341 192.136C12.6707 192.758 15.1944 195.014 14.5862 195.992C14.4528 196.207 14.1543 196.383 13.7164 197.037C13.5422 197.297 13.4681 197.451 13.5198 197.584C13.5931 197.772 13.8555 197.755 14.3942 197.898C15.2021 198.114 15.1792 198.305 15.8152 198.41C16.2873 198.487 16.5479 198.423 16.6196 198.575C16.7211 198.792 16.2649 199.06 16.3443 199.341C16.4254 199.627 17.0096 199.732 17.4373 199.734C18.24 199.738 18.7242 199.382 19.2516 199.152C19.8247 198.902 20.7168 198.684 22.0495 198.924L33.8016 201.489C31.3822 200.901 24.7328 199.152 22.2461 198.378C21.5283 198.154 20.7966 197.9 20.436 197.233C20.0888 196.59 20.1272 195.643 19.6923 194.496C19.6415 194.362 19.4953 193.991 19.2637 193.971C19.0723 193.955 18.9968 194.194 18.8178 194.181C18.5778 194.165 18.5187 193.722 18.1794 193.211C17.9401 192.851 17.6832 192.64 17.4622 192.459C17.3956 192.404 16.3947 191.594 16.0806 191.839Z" fill="#E0CBFF"/>
<path d="M21.6187 189.253L20.4934 188.09L20.484 187.944C20.4409 187.265 20.2581 186.711 19.9406 186.296C19.8901 186.23 19.8363 186.166 19.7815 186.102C19.5642 185.846 19.2941 185.528 19.1691 185.01C19.0999 184.721 18.9875 184.016 19.4423 183.763C19.5638 183.693 19.6857 183.679 19.7942 183.69C19.792 183.668 19.7902 183.646 19.788 183.622C19.7654 183.331 19.8018 183.17 19.8369 183.015C19.8638 182.897 19.8917 182.774 19.8963 182.531C19.8984 182.425 19.895 182.335 19.8922 182.26C19.8842 182.031 19.8865 181.75 20.1316 181.566C20.4004 181.378 20.7018 181.487 20.9014 181.56C21.2575 181.689 21.4713 181.815 21.613 181.899C21.6647 181.929 21.7231 181.964 21.7451 181.971C21.9235 182.03 22.514 181.39 22.7377 181.151C23.2384 180.611 23.6717 180.144 24.1566 180.348C24.5037 180.494 24.6594 180.921 24.6308 181.653C24.6217 181.88 24.5796 182.08 24.5339 182.247C24.6662 182.231 24.8114 182.252 24.9449 182.356C25.2605 182.605 25.2341 183.119 24.8675 183.885C24.7769 184.075 24.6541 184.331 24.4105 184.597C24.2957 184.721 24.1807 184.819 24.0811 184.901C24.1245 184.962 24.16 185.036 24.1749 185.13C24.219 185.405 24.0708 185.666 23.7232 185.899C23.3447 186.161 22.9916 186.323 22.6804 186.466C22.4089 186.592 22.1755 186.7 22.0275 186.831C21.7561 187.078 21.712 187.482 21.6823 187.984L21.6187 189.253Z" fill="#E0CBFF"/>
<path d="M16.4288 181.166L15.5899 182.549L15.4503 182.596C14.8046 182.809 14.3149 183.127 13.994 183.539C13.943 183.605 13.8954 183.673 13.8468 183.742C13.6543 184.017 13.4152 184.359 12.9463 184.612C12.6844 184.752 12.0303 185.04 11.6701 184.664C11.5722 184.564 11.528 184.449 11.5105 184.342C11.4899 184.349 11.469 184.357 11.4465 184.365C11.1703 184.461 11.0058 184.466 10.8473 184.472C10.7255 184.476 10.5999 184.48 10.3637 184.537C10.2601 184.562 10.1744 184.588 10.1022 184.61C9.88347 184.676 9.61067 184.745 9.37018 184.554C9.12021 184.342 9.14975 184.023 9.16915 183.811C9.20365 183.434 9.27155 183.195 9.31666 183.037C9.33326 182.979 9.35167 182.914 9.35338 182.891C9.36455 182.703 8.59622 182.294 8.30792 182.139C7.65881 181.791 7.09712 181.49 7.17171 180.97C7.22478 180.597 7.59838 180.338 8.31304 180.18C8.53558 180.131 8.7399 180.121 8.91285 180.123C8.86388 179.999 8.8467 179.854 8.91429 179.698C9.07475 179.329 9.57845 179.225 10.412 179.385C10.6194 179.424 10.8979 179.478 11.2166 179.647C11.3666 179.726 11.4902 179.812 11.5946 179.888C11.6423 179.831 11.7054 179.777 11.7921 179.739C12.0468 179.627 12.3374 179.704 12.6511 179.981C13.0004 180.281 13.2466 180.581 13.464 180.846C13.6542 181.077 13.8184 181.275 13.9827 181.385C14.2903 181.585 14.6921 181.525 15.1858 181.426L16.4288 181.166Z" fill="#E0CBFF"/>
<path d="M12.8723 177.928L11.7471 176.766L11.7377 176.619C11.6946 175.94 11.5118 175.386 11.1943 174.971C11.1438 174.905 11.09 174.842 11.0352 174.777C10.8179 174.521 10.5477 174.203 10.4227 173.686C10.3536 173.397 10.2411 172.691 10.6959 172.438C10.8175 172.368 10.9393 172.355 11.0479 172.365C11.0457 172.343 11.0438 172.321 11.0416 172.297C11.019 172.006 11.0554 171.845 11.0905 171.691C11.1174 171.572 11.1453 171.449 11.15 171.206C11.1521 171.1 11.1486 171.01 11.1458 170.935C11.1378 170.707 11.1402 170.425 11.3853 170.241C11.654 170.053 11.9554 170.163 12.155 170.235C12.5112 170.364 12.7249 170.49 12.8667 170.574C12.9183 170.605 12.9767 170.639 12.9987 170.647C13.1772 170.705 13.7677 170.066 13.9913 169.826C14.4921 169.286 14.9254 168.819 15.4103 169.024C15.7574 169.169 15.9131 169.597 15.8844 170.328C15.8754 170.556 15.8333 170.756 15.7875 170.922C15.9199 170.907 16.0651 170.927 16.1985 171.032C16.5142 171.28 16.4877 171.794 16.1212 172.56C16.0306 172.75 15.9078 173.006 15.6642 173.272C15.5493 173.397 15.4344 173.494 15.3348 173.576C15.3782 173.637 15.4137 173.711 15.4285 173.805C15.4726 174.08 15.3245 174.341 14.9768 174.575C14.5984 174.836 14.2452 174.998 13.9341 175.142C13.6625 175.267 13.4291 175.376 13.2812 175.506C13.0098 175.753 12.9656 176.157 12.9359 176.66L12.8723 177.928Z" fill="#E0CBFF"/>
<path d="M33.2494 201.622L32.8537 201.661L32.5703 201.937C32.5431 201.912 32.475 201.858 32.3693 201.774C31.7907 201.313 30.0293 199.909 27.5696 197.455C25.8526 195.743 24.2015 193.894 22.6613 191.959C21.1188 190.021 20.0656 188.466 19.219 187.216C18.5805 186.273 17.9873 185.364 17.4098 184.478C15.8665 182.111 14.4084 179.876 12.4832 177.641C12.0536 177.142 11.159 176.104 9.63598 175.44C8.7526 175.055 7.78858 174.852 6.771 174.837L6.78244 174.042C7.90626 174.059 8.97341 174.284 9.95428 174.712C11.6429 175.448 12.6177 176.579 13.0861 177.123C15.0453 179.397 16.5172 181.654 18.0753 184.043C18.6509 184.926 19.2414 185.831 19.8773 186.77C20.716 188.009 21.7601 189.551 23.2829 191.463C24.8044 193.375 26.4354 195.201 28.1306 196.893C30.5595 199.315 32.2948 200.698 32.8648 201.152C33.1691 201.395 33.2328 201.446 33.2494 201.622Z" fill="#E0CBFF"/>
<path d="M6.38936 176.728C6.36356 176.748 6.33697 176.768 6.30913 176.786C5.75105 177.171 5.00723 177.234 4.09827 176.972C3.67138 176.849 3.31503 176.607 2.60435 176.125C2.4946 176.051 1.94481 175.669 1.31107 175.049C0.896819 174.644 0.758192 174.448 0.718665 174.211C0.67426 173.947 0.735256 173.692 0.849268 173.464C0.794782 173.41 0.7533 173.343 0.730544 173.259C0.635148 172.914 0.946804 172.728 1.11383 172.626C1.19946 172.575 1.30681 172.513 1.4076 172.427C1.56671 172.291 1.61753 172.173 1.69514 171.996C1.76929 171.825 1.86149 171.614 2.06148 171.382C2.45422 170.923 2.94901 170.753 3.11203 170.696C3.96758 170.397 4.7116 170.667 5.57299 170.98C5.7453 171.043 6.35647 171.285 7.00544 171.763C7.47365 172.108 7.60768 172.318 7.68251 172.494C7.83713 172.854 7.78721 173.167 7.61626 173.905C7.43849 174.677 7.34893 175.064 7.2335 175.346C6.96405 176.003 6.79487 176.415 6.38936 176.728Z" fill="#E0CBFF"/>
<path d="M32.4663 130.635L41.6658 145.861L95.2764 142.689L81.0014 124.29L32.4663 130.635Z" fill="#D1EEFF"/>
<path d="M48.4855 201.851C48.1732 201.851 47.9012 201.621 47.8577 201.303L31.838 84.304C31.7904 83.9567 32.0333 83.6367 32.3804 83.5893C32.7274 83.5391 33.0474 83.7844 33.0951 84.1317L49.1148 201.131C49.1624 201.478 48.9195 201.798 48.5724 201.845C48.5431 201.849 48.5142 201.851 48.4855 201.851Z" fill="#D1EEFF"/>
<path d="M32.4665 202C32.1161 202 31.832 201.716 31.832 201.366V84.2404C31.832 83.89 32.1161 83.606 32.4665 83.606C32.8168 83.606 33.1009 83.89 33.1009 84.2404V201.366C33.1009 201.716 32.8168 202 32.4665 202Z" fill="#D1EEFF"/>
<path d="M112.882 201.534C112.612 201.534 112.362 201.361 112.277 201.09L74.3688 80.6017C74.2636 80.2674 74.4493 79.9112 74.7836 79.8058C75.1177 79.7011 75.4741 79.8867 75.5791 80.2206L113.487 200.709C113.592 201.043 113.407 201.4 113.072 201.505C113.009 201.525 112.945 201.534 112.882 201.534Z" fill="#D1EEFF"/>
<path d="M101.303 201.683C101.02 201.683 100.762 201.492 100.689 201.205L74.359 94.8651C74.2728 94.5256 74.478 94.1802 74.8175 94.0938C75.1581 94.0079 75.5025 94.2127 75.5889 94.5522L101.918 200.892C102.005 201.231 101.799 201.577 101.46 201.663C101.407 201.676 101.355 201.683 101.303 201.683Z" fill="#D1EEFF"/>
<path d="M32.4663 86.1063L76.4016 85.4307L84.4908 131.587H33.1008L32.4663 86.1063Z" fill="#D1EEFF"/>
<path d="M295.302 201.509H27.3921V201.97H295.302V201.509Z" fill="#E6E6E6"/>
<path d="M65.8914 35.6744C67.2226 36.4224 69.371 33.4636 69.8579 34.9109C70.3447 36.3582 69.1655 42.1978 68.5571 43.5984C68.2547 44.2945 67.8273 44.9312 67.5306 45.6298C67.2339 46.3284 67.0747 47.1316 67.337 47.8439C67.7934 49.0834 69.2998 49.5876 70.0466 50.677C70.9165 51.9458 70.5652 53.6548 70.1585 55.1385C69.808 56.4173 69.4345 57.7077 68.7598 58.8492C68.0851 59.9907 67.0679 60.9846 65.7968 61.3623C64.1785 61.8431 62.4488 61.2717 60.8887 60.6265C59.3888 60.0062 57.9049 59.303 56.6292 58.2995C55.3534 57.296 54.289 55.964 53.843 54.4033C53.2836 52.4457 53.751 50.3032 54.7195 48.5124C55.6881 46.7215 57.1208 45.2295 58.5909 43.8209C61.0668 41.4485 63.7017 39.242 66.472 37.2212" fill="#2F2E41"/>
<path d="M74.1539 105.953L109.677 119.408C109.677 119.408 112.637 122.369 113.176 127.482C113.714 132.595 123.671 161.66 123.671 161.66L115.059 164.889C115.059 164.889 100.527 142.552 101.335 133.402C101.335 133.402 99.7199 129.088 98.9125 128.958C98.1052 128.827 85.995 122.638 78.1907 123.445C70.3863 124.252 49.9335 126.675 49.3953 117.255C48.8571 107.836 53.5772 107.836 53.5772 107.836L74.1539 105.953Z" fill="#2F2E41"/>
<path d="M121.788 159.238C121.788 159.238 124.21 158.43 125.824 160.045C127.439 161.66 127.439 163.005 127.439 163.005C127.439 163.005 140.087 162.736 140.626 164.351C141.164 165.966 139.28 172.424 134.705 172.693C130.13 172.963 114.521 176.192 114.521 173.232C114.521 170.271 114.791 163.544 115.867 163.544C116.944 163.544 121.788 159.238 121.788 159.238Z" fill="#2F2E41"/>
<path d="M77.2221 114.512L103.113 142.308C103.113 142.308 104.456 146.273 102.674 151.096C100.892 155.919 96.9484 186.387 96.9484 186.387L87.7971 185.469C87.7971 185.469 84.6596 159.006 89.4356 151.16C89.4356 151.16 89.8986 146.577 89.2324 146.103C88.5663 145.628 80.4495 134.716 73.0947 131.983C65.7398 129.251 46.3295 122.365 50.0182 113.681C53.7069 104.998 57.9389 107.088 57.9389 107.088L77.2221 114.512Z" fill="#2F2E41"/>
<path d="M96.3324 183.382C96.3324 183.382 98.8615 183.73 99.5942 185.893C100.327 188.056 99.7309 189.262 99.7309 189.262C99.7309 189.262 111.191 194.623 110.958 196.309C110.726 197.995 106.176 202.951 101.955 201.167C97.7341 199.382 82.3093 195.365 83.6203 192.711C84.9313 190.056 88.1521 184.143 89.1172 184.62C90.0824 185.097 96.3324 183.382 96.3324 183.382Z" fill="#2F2E41"/>
<path d="M53.5667 57.3774L62.1784 63.0289L71.8665 77.8302C71.8665 77.8302 74.0194 93.4389 73.2121 94.2462C72.4047 95.0536 72.6739 95.8609 72.6739 97.4756C72.6739 99.0903 74.6508 99.262 73.3932 100.656C72.1356 102.051 71.0804 102.341 72.9536 102.869C74.8268 103.396 77.003 102.881 75.9149 104.484C74.8268 106.087 75.6341 106.626 75.0959 107.164C74.5577 107.702 52.7706 130.712 48.7339 121.831C44.6972 112.95 44.4167 78.9067 44.4167 78.9067L47.3248 67.8165L53.5667 57.3774Z" fill="#6CC7FE"/>
<path d="M27.0328 120.78C26.1165 123.878 26.9726 126.863 28.9447 127.446C30.9167 128.029 33.2576 125.989 34.1739 122.889C34.5569 121.656 34.6389 120.349 34.4132 119.078L38.13 105.899L31.9087 104.287L28.9052 117.45C28.024 118.394 27.382 119.536 27.0328 120.78Z" fill="#FFB6B6"/>
<path d="M62.4651 76.0924C62.4651 76.0924 52.4348 68.4352 48.6166 73.2642C44.7984 78.0932 30.8115 99.5309 30.8115 99.5309L29.8843 107.701L37.8169 109.451L50.6382 90.5586L62.4651 76.0924Z" fill="#6CC7FE"/>
<path d="M112.891 46.3351C115.192 44.0656 115.885 41.0392 114.441 39.5756C112.996 38.112 109.961 38.7655 107.66 41.0361C106.729 41.9305 106.025 43.0349 105.608 44.2571L95.9834 53.9959L100.65 58.415L109.642 48.345C110.87 47.9441 111.985 47.2549 112.891 46.3351Z" fill="#FFB6B6"/>
<path d="M60.271 68.3234C60.271 68.3234 65.3493 79.8754 71.0263 77.4942C76.7032 75.113 99.3111 63.109 99.3111 63.109L104.072 56.4058L97.9747 51.0383L77.6176 61.3779L60.271 68.3234Z" fill="#6CC7FE"/>
<path d="M62.5667 55.0814C67.9012 55.0814 72.2257 50.7569 72.2257 45.4224C72.2257 40.0879 67.9012 35.7634 62.5667 35.7634C57.2322 35.7634 52.9077 40.0879 52.9077 45.4224C52.9077 50.7569 57.2322 55.0814 62.5667 55.0814Z" fill="#FFB6B6"/>
<path d="M51.6779 60.5496C53.9323 63.7655 55.0852 67.7389 54.9022 71.662C57.4583 70.4239 59.1835 67.8078 59.7706 65.029C60.3578 62.2501 59.9098 59.3324 58.9663 56.6535C58.9569 56.6267 58.9474 56.5999 58.9379 56.5732C57.5053 52.5522 58.8364 48.0582 62.2966 45.5586C64.6306 43.8726 66.6548 41.7574 68.2084 39.3328C69.0855 37.964 69.831 36.247 69.1758 34.7592C68.572 33.3882 67.0123 32.7474 65.5769 32.3187C62.2994 31.3397 58.817 30.7826 55.4529 31.4021C52.0889 32.0216 48.8504 33.9562 47.2605 36.9849C45.6706 40.0135 46.0871 44.1469 48.6677 46.3921C47.8538 46.6553 47.2779 47.518 47.347 48.3706C47.4162 49.2232 48.1235 49.9819 48.9692 50.1105C48.4174 50.0909 48.0918 50.8176 48.2885 51.3334C48.4853 51.8493 48.9927 52.1697 49.4767 52.4352C50.1662 52.8134 50.9306 53.2089 50.9335 54.1993C50.9347 54.5964 50.7931 54.9819 50.5617 55.3046C50.001 56.0868 49.0958 56.439 48.2244 56.7697C50.0675 57.3126 51.5372 58.9599 51.8671 60.8528" fill="#2F2E41"/>
<path d="M131.856 57.9216C147.851 57.9216 160.817 44.9554 160.817 28.9608C160.817 12.9662 147.851 0 131.856 0C115.862 0 102.896 12.9662 102.896 28.9608C102.896 44.9554 115.862 57.9216 131.856 57.9216Z" fill="#9C57FF"/>
<path d="M130.355 29.0982L127.59 45.4978L130.464 45.9825L133.229 29.5828L130.355 29.0982Z" fill="white"/>
<path d="M141.075 39.2075L131.194 32.8908L119.787 35.6181L134.686 12.1812L141.075 39.2075Z" fill="white"/>
<path d="M282.181 170.287C282.608 170.117 283.152 171.072 283.519 170.902C283.884 170.733 283.471 169.726 283.806 168.412C283.866 168.175 284.246 166.682 284.871 166.613C286.056 166.483 287.08 171.586 288.851 171.542C289.239 171.533 289.705 171.274 290.914 171.204C291.394 171.176 291.655 171.197 291.791 171.369C291.984 171.613 291.756 171.947 291.527 172.773C291.183 174.012 291.454 174.13 291.097 175.055C290.832 175.741 290.544 176.037 290.69 176.251C290.898 176.554 291.61 176.158 291.919 176.482C292.235 176.812 291.919 177.669 291.589 178.237C290.969 179.305 290.12 179.669 289.404 180.189C288.626 180.753 287.641 181.766 286.922 183.72L281.164 201.296C282.269 197.631 285.132 187.454 286.044 183.555C286.307 182.429 286.54 181.261 285.937 180.263C285.356 179.302 284.07 178.615 282.889 177.145C282.751 176.973 282.373 176.49 282.527 176.168C282.655 175.901 283.03 175.987 283.153 175.74C283.318 175.409 282.777 174.986 282.364 174.138C282.073 173.54 281.994 173.036 281.927 172.602C281.906 172.471 281.612 170.512 282.181 170.287Z" fill="#E0CBFF"/>
<path d="M295.835 192.426C296.042 192.586 295.73 193.129 295.919 193.26C296.108 193.391 296.483 192.897 297.224 192.682C297.358 192.644 298.201 192.399 298.415 192.686C298.82 193.231 296.611 195.205 297.143 196.062C297.26 196.25 297.522 196.404 297.905 196.976C298.057 197.204 298.122 197.339 298.077 197.455C298.013 197.62 297.783 197.604 297.311 197.73C296.604 197.919 296.624 198.086 296.068 198.178C295.654 198.246 295.426 198.189 295.363 198.323C295.275 198.512 295.674 198.748 295.604 198.993C295.533 199.243 295.022 199.335 294.648 199.337C293.945 199.341 293.521 199.029 293.059 198.828C292.558 198.609 291.777 198.418 290.61 198.628L280.322 200.874C282.44 200.359 288.261 198.828 290.438 198.15C291.066 197.954 291.707 197.732 292.023 197.148C292.327 196.585 292.293 195.756 292.674 194.752C292.718 194.635 292.846 194.31 293.049 194.293C293.216 194.279 293.282 194.487 293.439 194.477C293.649 194.462 293.701 194.074 293.998 193.627C294.207 193.312 294.432 193.127 294.626 192.969C294.684 192.921 295.56 192.212 295.835 192.426Z" fill="#E0CBFF"/>
<path d="M290.987 190.162L291.972 189.145L291.98 189.016C292.018 188.422 292.178 187.937 292.456 187.573C292.5 187.516 292.547 187.46 292.595 187.404C292.785 187.18 293.022 186.901 293.131 186.448C293.192 186.195 293.29 185.578 292.892 185.356C292.785 185.295 292.679 185.283 292.584 185.292C292.586 185.273 292.587 185.254 292.589 185.233C292.609 184.978 292.577 184.837 292.546 184.702C292.523 184.598 292.498 184.491 292.494 184.278C292.493 184.185 292.496 184.106 292.498 184.04C292.505 183.84 292.503 183.594 292.288 183.433C292.053 183.268 291.789 183.364 291.615 183.428C291.303 183.54 291.116 183.651 290.992 183.724C290.946 183.751 290.895 183.781 290.876 183.788C290.72 183.839 290.203 183.279 290.007 183.07C289.569 182.597 289.189 182.188 288.765 182.367C288.461 182.495 288.325 182.869 288.35 183.509C288.358 183.708 288.395 183.883 288.435 184.029C288.319 184.015 288.192 184.033 288.075 184.125C287.799 184.343 287.822 184.792 288.143 185.463C288.222 185.63 288.329 185.853 288.543 186.086C288.643 186.195 288.744 186.281 288.831 186.352C288.793 186.406 288.762 186.471 288.749 186.553C288.71 186.793 288.84 187.022 289.144 187.226C289.476 187.456 289.785 187.597 290.057 187.723C290.295 187.832 290.499 187.928 290.629 188.042C290.866 188.258 290.905 188.612 290.931 189.052L290.987 190.162Z" fill="#E0CBFF"/>
<path d="M295.53 183.083L296.264 184.294L296.387 184.334C296.952 184.521 297.381 184.799 297.661 185.16C297.706 185.218 297.748 185.277 297.79 185.338C297.959 185.579 298.168 185.878 298.579 186.099C298.808 186.222 299.381 186.474 299.696 186.145C299.782 186.057 299.82 185.957 299.836 185.863C299.854 185.87 299.872 185.876 299.892 185.883C300.133 185.967 300.277 185.972 300.416 185.976C300.523 185.98 300.633 185.984 300.839 186.034C300.93 186.056 301.005 186.078 301.068 186.097C301.26 186.155 301.499 186.215 301.709 186.049C301.928 185.863 301.902 185.583 301.885 185.398C301.855 185.068 301.796 184.859 301.756 184.72C301.741 184.67 301.725 184.613 301.724 184.592C301.714 184.428 302.387 184.07 302.639 183.934C303.207 183.63 303.699 183.367 303.634 182.911C303.587 182.585 303.26 182.358 302.635 182.22C302.44 182.177 302.261 182.168 302.11 182.17C302.152 182.061 302.167 181.934 302.108 181.797C301.968 181.475 301.527 181.383 300.797 181.524C300.616 181.558 300.372 181.605 300.093 181.753C299.961 181.822 299.853 181.898 299.762 181.964C299.72 181.914 299.665 181.867 299.589 181.834C299.366 181.735 299.112 181.803 298.837 182.045C298.531 182.308 298.316 182.571 298.125 182.802C297.959 183.005 297.815 183.178 297.671 183.274C297.402 183.449 297.05 183.397 296.618 183.31L295.53 183.083Z" fill="#E0CBFF"/>
<path d="M298.643 180.248L299.628 179.231L299.637 179.102C299.674 178.508 299.834 178.023 300.112 177.66C300.157 177.602 300.204 177.546 300.252 177.49C300.442 177.266 300.678 176.987 300.788 176.534C300.848 176.281 300.947 175.664 300.549 175.442C300.442 175.381 300.336 175.369 300.241 175.378C300.242 175.359 300.244 175.34 300.246 175.319C300.266 175.064 300.234 174.923 300.203 174.788C300.18 174.684 300.155 174.577 300.151 174.364C300.149 174.271 300.152 174.192 300.155 174.126C300.162 173.927 300.16 173.68 299.945 173.519C299.71 173.354 299.446 173.45 299.271 173.514C298.96 173.627 298.772 173.737 298.648 173.811C298.603 173.837 298.552 173.868 298.533 173.874C298.377 173.925 297.86 173.365 297.664 173.156C297.225 172.683 296.846 172.274 296.422 172.453C296.118 172.581 295.982 172.955 296.007 173.595C296.015 173.794 296.051 173.97 296.091 174.116C295.976 174.102 295.849 174.119 295.732 174.211C295.455 174.429 295.479 174.879 295.799 175.549C295.879 175.716 295.986 175.94 296.199 176.172C296.3 176.282 296.401 176.367 296.488 176.439C296.45 176.492 296.419 176.557 296.406 176.639C296.367 176.88 296.497 177.109 296.801 177.313C297.132 177.542 297.442 177.684 297.714 177.809C297.952 177.919 298.156 178.014 298.286 178.128C298.523 178.344 298.562 178.698 298.588 179.138L298.643 180.248Z" fill="#E0CBFF"/>
<path d="M280.805 200.99L281.152 201.024L281.4 201.265C281.424 201.244 281.483 201.197 281.576 201.123C282.082 200.719 283.624 199.49 285.778 197.343C287.281 195.843 288.726 194.225 290.074 192.531C291.425 190.835 292.347 189.473 293.088 188.379C293.647 187.554 294.166 186.758 294.671 185.982C296.022 183.91 297.299 181.953 298.984 179.997C299.36 179.56 300.143 178.651 301.477 178.07C302.25 177.733 303.094 177.556 303.985 177.543L303.975 176.846C302.991 176.861 302.057 177.058 301.198 177.433C299.72 178.077 298.866 179.067 298.456 179.543C296.741 181.534 295.453 183.51 294.089 185.602C293.585 186.374 293.068 187.167 292.511 187.989C291.777 189.073 290.863 190.423 289.53 192.097C288.198 193.771 286.77 195.369 285.286 196.85C283.16 198.971 281.641 200.181 281.142 200.579C280.876 200.791 280.82 200.836 280.805 200.99Z" fill="#E0CBFF"/>
<path d="M304.319 179.198C304.341 179.215 304.365 179.232 304.389 179.249C304.877 179.586 305.529 179.64 306.324 179.411C306.698 179.303 307.01 179.092 307.632 178.67C307.728 178.605 308.209 178.271 308.764 177.728C309.127 177.374 309.248 177.202 309.283 176.994C309.322 176.763 309.268 176.54 309.169 176.34C309.216 176.293 309.253 176.234 309.272 176.161C309.356 175.859 309.083 175.696 308.937 175.607C308.862 175.562 308.768 175.508 308.68 175.432C308.54 175.313 308.496 175.21 308.428 175.055C308.363 174.906 308.282 174.721 308.107 174.518C307.764 174.116 307.33 173.967 307.188 173.917C306.439 173.656 305.787 173.892 305.033 174.166C304.883 174.221 304.347 174.433 303.779 174.851C303.37 175.153 303.252 175.337 303.187 175.491C303.051 175.806 303.095 176.08 303.245 176.727C303.4 177.402 303.479 177.741 303.58 177.988C303.816 178.563 303.964 178.924 304.319 179.198Z" fill="#E0CBFF"/>
<path d="M191.321 197.458L185.194 196.039L187.749 171.728L196.793 173.821L191.321 197.458Z" fill="#A0616A"/>
<path d="M170.358 192.46C170.093 192.737 169.752 193.751 169.666 194.124C169.4 195.273 170.116 196.42 171.264 196.686L190.242 201.078C191.026 201.259 191.808 200.771 191.989 199.988L192.172 199.197C192.172 199.197 193.661 197.04 192.405 193.666C192.405 193.666 189.472 195.402 186.714 190.981L186.099 188.819L177.14 192.649L172.771 192.189C171.816 192.088 171.022 191.765 170.358 192.46Z" fill="#2F2E41"/>
<path d="M255.625 184.354L251.07 188.691L232.172 173.185L238.895 166.783L255.625 184.354Z" fill="#A0616A"/>
<path d="M239.921 199.112C240.006 199.486 240.666 200.328 240.93 200.606C241.743 201.46 243.095 201.493 243.949 200.68L258.055 187.247C258.638 186.692 258.66 185.77 258.105 185.187L257.546 184.6C257.546 184.6 256.563 182.171 253.055 181.363C253.055 181.363 252.891 184.767 247.682 184.64L245.538 183.964L243.809 193.553L241.022 196.948C240.412 197.69 239.706 198.175 239.921 199.112Z" fill="#2F2E41"/>
<path d="M281.491 138.848L273.438 152.177L226.507 149.4L239.003 133.294L281.491 138.848Z" fill="#D1EEFF"/>
<path d="M267.468 201.191C267.741 201.191 267.979 200.989 268.018 200.711L282.041 98.2898C282.083 97.9858 281.87 97.7056 281.566 97.6642C281.263 97.6202 280.983 97.835 280.941 98.139L266.917 200.56C266.875 200.864 267.088 201.144 267.392 201.186C267.418 201.189 267.443 201.191 267.468 201.191Z" fill="#D1EEFF"/>
<path d="M281.491 201.321C281.798 201.321 282.047 201.072 282.047 200.766V98.2341C282.047 97.9274 281.798 97.6787 281.491 97.6787C281.184 97.6787 280.936 97.9274 280.936 98.2341V200.766C280.936 201.072 281.184 201.321 281.491 201.321Z" fill="#D1EEFF"/>
<path d="M211.095 200.913C211.331 200.913 211.55 200.762 211.625 200.524L244.809 95.0487C244.901 94.7561 244.739 94.4442 244.446 94.352C244.154 94.2603 243.842 94.4228 243.75 94.7151L210.565 200.191C210.473 200.484 210.636 200.795 210.928 200.888C210.984 200.905 211.04 200.913 211.095 200.913Z" fill="#D1EEFF"/>
<path d="M221.231 201.043C221.479 201.043 221.705 200.876 221.769 200.625L244.818 107.535C244.894 107.238 244.714 106.936 244.417 106.86C244.118 106.785 243.817 106.964 243.741 107.261L220.693 200.351C220.617 200.648 220.797 200.951 221.094 201.026C221.14 201.038 221.186 201.043 221.231 201.043Z" fill="#D1EEFF"/>
<path d="M281.491 99.8674L243.03 99.2759L235.949 139.681H280.936L281.491 99.8674Z" fill="#D1EEFF"/>
<path d="M266.712 126.892C266.712 126.892 273.401 143.483 261.031 147.267C248.662 151.052 230.835 156.398 230.835 156.398L251.331 176.235L241.226 182.692C241.226 182.692 203.953 157.161 203.953 151.052C203.953 144.942 234.499 129.113 234.499 129.113L251.331 123.1L266.712 126.892Z" fill="#2F2E41"/>
<path d="M227.928 123.119C227.928 123.119 193.59 125.64 191.003 132.315C188.415 138.99 183.25 173.498 183.25 173.498L201.299 176.7L206.684 147.286L256.095 129.702L227.928 123.119Z" fill="#2F2E41"/>
<path d="M209.454 85.1828L218.521 74.0981L228.535 80.6665C228.535 80.6665 266.276 105.186 267.837 128.194C267.837 128.194 252.652 142.8 233.167 124.455L219.048 120.711L209.454 85.1828Z" fill="#6CC7FE"/>
<path d="M169.184 131.286C166.173 132.42 163.146 131.785 162.425 129.869C161.703 127.952 163.56 125.479 166.572 124.346C167.89 123.849 169.211 123.692 170.341 123.833L183.163 119.189L185.214 125.252L172.356 129.187C171.6 130.037 170.503 130.79 169.184 131.286Z" fill="#A0616A"/>
<path d="M212.48 86.1455L209.454 85.1826L200.798 111.629L171.199 122.487L173.09 129.777L206.748 121.745L219.739 109.076L212.48 86.1455Z" fill="#6CC7FE"/>
<path d="M207.873 81.4445C213.803 81.4445 218.61 76.6373 218.61 70.7072C218.61 64.7772 213.803 59.97 207.873 59.97C201.943 59.97 197.135 64.7772 197.135 70.7072C197.135 76.6373 201.943 81.4445 207.873 81.4445Z" fill="#A0616A"/>
<path d="M218.507 62.6155C218.507 62.6155 215.714 53.5965 206.45 54.8012C206.45 54.8012 204.578 56.6273 202.996 56.3432C201.414 56.059 198.448 60.7779 197.656 60.768C196.863 60.758 195.532 61.534 196.853 61.5506C198.174 61.5672 199.614 60.9247 197.773 61.9585C195.932 62.9923 194.71 63.9017 196.024 64.4467C197.338 64.9917 197.589 63.5416 195.884 65.1055C194.178 66.6695 195.215 65.7577 195.997 66.5602C196.78 67.3628 195.549 71.7363 195.549 71.7363C195.549 71.7363 195.446 68.4029 199.937 68.4594C204.428 68.5159 207.321 69.6092 208.659 68.3048C209.996 67.0005 211.96 69.0142 213.195 70.2812C214.431 71.5482 215.491 71.2973 215.491 71.2973L214.358 77.3604C214.358 77.3604 218.986 77.0316 219.28 74.6479C219.574 72.2641 218.417 69.7487 219.22 68.9661C220.022 68.1835 218.507 62.6155 218.507 62.6155Z" fill="#2F2E41"/>
<path d="M163.694 129.144C177.695 129.144 189.046 117.794 189.046 103.792C189.046 89.7901 177.695 78.4395 163.694 78.4395C149.692 78.4395 138.341 89.7901 138.341 103.792C138.341 117.794 149.692 129.144 163.694 129.144Z" fill="#9C57FF"/>
<path d="M165.007 103.912L162.491 104.336L164.912 118.693L167.428 118.268L165.007 103.912Z" fill="white"/>
<path d="M155.623 112.762L164.274 107.232L174.259 109.62L161.217 89.103L155.623 112.762Z" fill="white"/>
<path d="M171.149 116.866C167.931 116.868 165.322 115.21 165.321 113.162C165.319 111.114 167.927 109.452 171.145 109.45C172.554 109.45 173.846 109.767 174.854 110.296L188.49 110.46L188.277 116.857L174.857 116.017C173.85 116.547 172.558 116.866 171.149 116.866Z" fill="#A0616A"/>
<path d="M222.981 85.301C229.568 92.5009 230.377 103.272 224.94 111.375L214.021 121.363L179.009 118.041L179.748 109.845L204.492 108.514L222.981 85.301Z" fill="#6CC7FE"/>
</svg>
