<svg width="310" height="287" viewBox="0 0 310 287" fill="none" xmlns="http://www.w3.org/2000/svg">
<path d="M225.778 66.957H224.23V24.5462C224.23 21.3228 223.595 18.1309 222.361 15.1528C221.128 12.1747 219.32 9.46876 217.04 7.18943C214.761 4.9101 212.055 3.10204 209.077 1.86848C206.099 0.634912 202.907 2.54215e-06 199.683 0H109.83C106.607 -7.62618e-06 103.415 0.634892 100.437 1.86845C97.4589 3.102 94.753 4.91006 92.4736 7.18938C90.1943 9.4687 88.3862 12.1746 87.1527 15.1527C85.9191 18.1308 85.2842 21.3227 85.2842 24.5461V257.215C85.2842 263.725 87.8703 269.968 92.4736 274.572C97.0769 279.175 103.32 281.761 109.83 281.761H199.683C206.193 281.761 212.437 279.175 217.04 274.572C221.643 269.969 224.23 263.725 224.23 257.215V97.1457H225.778L225.778 66.957Z" fill="#3F3D56"/>
<path d="M200.674 6.38625H188.945C189.484 7.70862 189.69 9.14335 189.545 10.564C189.399 11.9847 188.906 13.3478 188.109 14.5331C187.313 15.7185 186.237 16.6897 184.977 17.3613C183.716 18.0329 182.31 18.3842 180.882 18.3843H129.406C127.978 18.3842 126.572 18.0329 125.311 17.3613C124.051 16.6897 122.975 15.7185 122.179 14.5331C121.382 13.3478 120.889 11.9847 120.743 10.564C120.598 9.14334 120.804 7.70861 121.343 6.38623H110.388C105.527 6.38623 100.864 8.3175 97.4264 11.7552C93.9887 15.1929 92.0574 19.8554 92.0574 24.717V257.044C92.0574 259.452 92.5315 261.835 93.4527 264.059C94.3739 266.283 95.7242 268.304 97.4263 270.006C99.1285 271.708 101.149 273.059 103.373 273.98C105.597 274.901 107.981 275.375 110.388 275.375H200.674C203.081 275.375 205.465 274.901 207.689 273.98C209.913 273.059 211.934 271.708 213.636 270.006C215.338 268.304 216.688 266.283 217.609 264.059C218.531 261.835 219.005 259.452 219.005 257.044V24.7171C219.005 22.3098 218.531 19.9261 217.609 17.7021C216.688 15.4781 215.338 13.4574 213.636 11.7552C211.934 10.053 209.913 8.70279 207.689 7.78158C205.465 6.86038 203.081 6.38624 200.674 6.38625Z" fill="white"/>
<path d="M298.498 119.644C296.6 125.262 293.69 130.382 287.76 130.382C281.829 130.382 277.356 125.565 277.022 119.644C276.595 112.078 281.692 108.874 287.76 108.906C294.927 108.943 300.75 112.976 298.498 119.644Z" fill="#2F2E41"/>
<path d="M298.216 119.402H277.022V146.248H298.216V119.402Z" fill="#2F2E41"/>
<path d="M298.838 139.402H300.64C301.973 141.301 302.877 143.466 303.292 145.748C303.707 148.031 303.623 150.376 303.044 152.622C301.041 160.233 302.643 161.635 302.643 161.635C302.643 161.635 305.251 169.878 302.447 182.296C299.643 194.714 305.047 198.089 305.047 198.089L300.04 188.074L297.235 161.635L298.838 139.402Z" fill="#6CC7FE"/>
<path d="M292.529 129.688C292.529 129.688 290.926 136.097 291.727 136.097C292.529 136.097 295.333 139.503 295.333 139.503L297.135 146.112L295.733 150.919L290.926 149.918L284.917 143.308L283.115 141.505L281.512 135.697C281.512 135.697 283.515 133.293 282.113 131.29C280.711 129.287 292.529 129.688 292.529 129.688Z" fill="#FBBEBE"/>
<path d="M244.057 147.515L239.65 140.304C239.65 140.304 234.894 129.779 231.489 133.585C228.084 137.391 236.646 145.111 236.646 145.111L241.052 150.92L244.057 147.515Z" fill="#FBBEBE"/>
<path d="M302.543 210.207L299.339 233.642C299.339 233.642 299.739 235.445 295.733 242.055C291.727 248.664 280.911 263.086 280.911 263.086L277.707 257.077C277.707 257.077 281.512 238.049 288.122 234.043L287.321 205.2L302.543 210.207Z" fill="#FBBEBE"/>
<path d="M277.706 254.673L282.113 263.086C282.113 263.086 278.507 268.148 279.91 269.149C281.312 270.151 283.114 279.164 279.309 278.162C275.503 277.161 272.499 273.155 272.499 272.554C272.499 271.953 274.702 268.694 273.5 266.691C272.298 264.688 271.497 264.087 271.497 264.087L269.099 267.276L268.097 266.675L272.499 260.081C272.499 260.081 273.099 258.479 275.503 257.478L277.706 254.673Z" fill="#2F2E41"/>
<path d="M287.368 206.882C287.368 206.882 288.923 229.035 285.518 234.844V263.687L280.911 264.288C280.911 264.288 271.608 249.017 275.013 233.995C278.418 218.973 271.497 205.2 271.497 205.2L287.368 206.882Z" fill="#FBBEBE"/>
<path d="M286.219 134.595C290.865 134.595 294.632 130.829 294.632 126.183C294.632 121.537 290.865 117.77 286.219 117.77C281.573 117.77 277.807 121.537 277.807 126.183C277.807 130.829 281.573 134.595 286.219 134.595Z" fill="#FBBEBE"/>
<path d="M294.732 148.316L286.32 137.7L281.512 134.495L279.509 137.099L273.901 138.701C273.901 138.701 270.296 139.503 266.49 143.909C262.685 148.316 255.874 150.919 255.874 150.919C255.874 150.919 243.656 146.914 243.656 146.112C243.656 145.311 237.848 151.52 239.25 153.924C240.652 156.327 247.335 163.671 257.149 162.269C266.964 160.867 270.696 159.532 270.696 159.532C270.696 159.532 272.499 168.746 277.707 170.549C282.915 172.351 299.94 173.553 299.94 173.553L303.545 161.535C303.545 161.535 307.551 156.327 302.143 148.716C302.143 148.716 302.039 144.459 301.458 141.627C301.232 140.525 300.933 139.639 300.541 139.302C299.139 138.1 291.728 136.097 291.728 136.097C291.728 136.097 292.929 140.103 293.53 140.304C294.131 140.504 295.533 147.314 294.732 148.316Z" fill="#6CC7FE"/>
<path d="M269.005 231.446C279.091 230.745 284.964 232.397 287.584 233.657C288.071 233.878 289.888 234.34 289.888 234.416C289.888 235.017 303.069 236.527 308.077 235.326C313.084 234.124 303.445 185.07 301.242 182.867C299.038 180.664 300.226 172.6 300.226 172.6C300.226 172.6 280.01 169.848 278.207 169.447C277.402 169.269 276.996 169.569 276.793 169.958C276.478 170.541 276.003 171.021 275.423 171.342C271.171 173.791 267.758 190.728 265.188 200.092C262.384 210.308 269.005 231.446 269.005 231.446Z" fill="#2F2E41"/>
<path d="M286.319 261.884C286.319 261.884 288.675 270.49 290.125 277.307C290.125 277.307 291.126 279.673 294.732 281.475C298.337 283.278 294.12 286.272 290.715 286.071C287.31 285.871 284.105 286.272 283.705 285.27C283.304 284.269 282.113 279.911 282.113 279.911L281.455 285.939L279.452 286.14L280.11 278.308C280.11 278.308 278.508 275.304 280.711 270.296L280.155 262.61C280.155 262.61 285.718 263.887 286.319 261.884Z" fill="#2F2E41"/>
<path opacity="0.1" d="M286.371 210.316C286.858 210.536 287.317 210.814 287.737 211.145C287.843 209.252 288.456 197.805 287.721 197.989L286.371 210.316Z" fill="black"/>
<path d="M282.737 114.598C282.737 114.598 282.644 114.08 279 115.446C275.356 116.812 273.172 126.896 274.994 132.817C275.728 135.203 275.131 136.923 274.156 138.127C270.498 142.644 271.938 149.429 277.266 151.752C277.417 151.817 277.57 151.882 277.727 151.946L280.004 153.312C280.004 153.312 277.101 149.493 278.554 144.606C279.815 140.443 279.971 136.023 279.006 131.781C278.839 131.066 278.65 130.328 278.435 129.575C276.613 123.199 277.499 123.935 283.875 117.559C283.875 117.559 287.519 120.292 290.707 121.658C293.896 123.024 296.628 124.391 294.351 128.945C292.074 133.5 286.608 137.599 290.252 143.52C293.896 149.441 294.351 147.164 293.896 149.441L293.44 151.718L296.173 148.986L294.351 152.629C294.351 152.629 300.272 152.629 302.094 148.075L303.005 148.986C303.005 148.986 306.648 142.609 299.817 136.688C299.817 136.688 297.539 135.322 300.727 130.767C303.916 126.213 301.467 116.42 297.368 114.598C293.269 112.776 282.737 114.598 282.737 114.598Z" fill="#2F2E41"/>
<path d="M25.3374 125.926L25.0015 134.588L31.739 134.85L32.0749 126.187L25.3374 125.926Z" fill="#6C63FF"/>
<path d="M55.7303 156.264C55.7303 156.264 65.0606 151.806 64.9114 155.656C64.7621 159.506 55.5063 162.039 55.5063 162.039L55.7303 156.264Z" fill="#FFB9B9"/>
<path d="M50.6111 188.84C50.6111 188.84 55.013 199.614 56.6394 207.388C58.2658 215.163 60.7428 225.862 57.5567 233.45C54.3706 241.039 45.3122 263.34 45.2189 265.746C45.1256 268.152 45.9948 270.596 44.0698 270.521C42.1448 270.447 31.6693 267.149 31.2441 265.686C30.8188 264.224 34.8181 260.523 34.8181 260.523L44.6936 229.578L34.39 209.417L26.958 239.493L25.5024 277.031C25.5024 277.031 18.3583 274.826 17.3212 276.714C17.3212 276.714 14.1204 272.252 13.7138 270.308C13.3072 268.364 15.2254 231.327 15.2254 231.327C15.2254 231.327 8.66778 189.141 13.9615 189.346C19.2553 189.552 39.9903 176.86 50.6111 188.84Z" fill="#2F2E41"/>
<path d="M44.1446 268.596C44.1446 268.596 49.0277 279.389 49.4903 279.889C49.9529 280.389 53.135 285.332 50.7288 285.239C48.3225 285.145 42.6409 282.515 38.4589 278.497C34.277 274.479 28.7633 267.518 29.2632 267.055C29.7631 266.593 33.1878 265.28 33.1878 265.28L44.1446 268.596Z" fill="#2F2E41"/>
<path d="M24.6333 274.587C24.6333 274.587 24.928 279.418 25.8158 281.381C26.7037 283.343 26.5917 286.231 24.1854 286.137C21.7792 286.044 15.5603 286.051 15.5603 286.051C15.5603 286.051 15.191 283.145 15.6909 282.683C16.1908 282.22 18.3211 275.788 17.4146 274.307C16.5081 272.826 24.6333 274.587 24.6333 274.587Z" fill="#2F2E41"/>
<path d="M21.0737 117.808C21.0737 117.808 15.9439 125.803 13.9443 127.653C11.9446 129.503 17.5703 133.577 17.5703 133.577L27.6392 134.932C27.6392 134.932 27.5126 125.769 28.0311 124.826C28.5497 123.882 21.0737 117.808 21.0737 117.808Z" fill="#FFB9B9"/>
<path d="M29.8255 128.269C29.8255 128.269 27.7512 132.044 25.8262 131.97C23.9012 131.895 13.9443 127.653 13.519 126.191C13.0937 124.728 10.2209 136.666 10.2209 136.666L34.5848 179.542L40.5278 175.435L37.6482 150.261L35.2833 136.674L29.8255 128.269Z" fill="white"/>
<path d="M12.6204 166.642C13.6267 168.596 14.1398 170.767 14.1151 172.965C14.1113 173.061 14.1076 173.158 14.099 173.254C13.8685 177.708 12.2276 182.859 11.639 186.605C11.2118 189.293 11.3334 191.254 12.906 191.715C16.7187 192.827 12.3501 193.622 27.1009 198.531C41.8516 203.441 44.4258 199.203 44.4632 198.241C44.5005 197.278 42.3742 189.966 42.8741 189.504C43.374 189.041 49.8689 195.558 51.8312 194.671C53.7935 193.783 52.0551 188.896 52.0551 188.896C52.0551 188.896 47.6345 178.603 47.7278 176.197C47.8212 173.79 41.0317 162.442 41.0317 162.442L36.4137 132.38C36.4137 132.38 34.638 128.456 32.2504 127.881C30.7463 127.568 29.1796 127.853 27.8818 128.676L31.8772 137.506L36.0925 153.093L35.3873 158.849C35.3873 158.849 30.4855 148.537 27.266 144.557C24.0465 140.576 17.1824 131.152 17.1824 131.152C17.1824 131.152 15.5799 125.745 16.7896 124.129C17.9996 122.509 11.7433 122.266 9.07581 128.91C7.66202 132.432 5.36665 137.683 3.92873 142.572C2.6474 146.904 2.04213 150.953 3.31157 153.267C5.25174 156.803 10.1322 161.451 12.6204 166.642Z" fill="#6CC7FE"/>
<path opacity="0.1" d="M3.31156 153.267C5.25175 156.803 10.1322 161.45 12.6204 166.641C13.2702 164.3 14.063 161.878 14.063 161.878C14.063 161.878 17.1038 145.609 8.10935 141.404C6.61903 141.26 5.1285 141.676 3.92872 142.572C2.6474 146.904 2.04214 150.953 3.31156 153.267Z" fill="black"/>
<path d="M39.0172 152.242L46.6426 154.466L57.23 154.876L58.3192 164.076L40.9196 165.329C40.9196 165.329 36.5737 153.111 39.0172 152.242Z" fill="#6CC7FE"/>
<path d="M26.5828 183.174C26.5828 183.174 36.784 184.867 34.4557 187.937C32.1273 191.006 23.0903 187.779 23.0903 187.779L26.5828 183.174Z" fill="#FFB9B9"/>
<path opacity="0.1" d="M14.099 173.254C13.8684 177.708 12.2276 182.859 11.6389 186.605C14.8886 189.681 17.9789 192.394 19.1435 192.439C21.5498 192.532 25.4184 192.2 26.8435 192.738C28.2686 193.275 29.1044 184.15 29.1044 184.15C29.1044 184.15 28.2539 181.225 24.4599 179.632C21.899 178.554 16.9902 175.631 14.099 173.254Z" fill="black"/>
<path d="M8.22116 138.517C8.22116 138.517 0.0772412 137.237 0.517205 150.749C0.957169 164.261 -0.341245 172.887 2.9342 175.423C6.20964 177.96 16.8491 189.458 19.2554 189.552C21.6616 189.645 25.5303 189.313 26.9554 189.85C28.3805 190.387 29.2163 181.262 29.2163 181.262C29.2163 181.262 28.3658 178.338 24.5718 176.745C20.7778 175.151 11.8393 169.503 11.9139 167.578C11.9886 165.653 14.1748 158.99 14.1748 158.99C14.1748 158.99 17.2156 142.721 8.22116 138.517Z" fill="#6CC7FE"/>
<path d="M28.2549 129.646C34.1066 129.646 38.8503 124.902 38.8503 119.051C38.8503 113.199 34.1066 108.455 28.2549 108.455C22.4032 108.455 17.6594 113.199 17.6594 119.051C17.6594 124.902 22.4032 129.646 28.2549 129.646Z" fill="#FFB9B9"/>
<path d="M35.3889 103.864C35.6445 104.084 35.9505 104.238 36.2798 104.311C36.4451 104.341 36.6153 104.304 36.7534 104.208C36.8914 104.112 36.986 103.966 37.0165 103.801C37.207 104.33 37.5611 104.784 38.0274 105.097C38.5223 105.355 39.2876 105.139 39.3589 104.586C39.4312 105.006 39.6172 105.398 39.8966 105.72C40.0423 105.875 40.2429 105.965 40.4549 105.972C40.6668 105.979 40.873 105.902 41.0287 105.758C40.8119 106.943 40.9457 108.161 40.8776 109.363C40.8096 110.565 40.489 111.84 39.5806 112.631C38.2559 113.784 36.264 113.499 34.5214 113.281C34.2579 113.225 33.9845 113.24 33.7286 113.324C33.0762 113.602 33.1058 114.51 33.097 115.219C33.0437 116.464 32.5513 117.649 31.707 118.564C30.8628 119.48 29.7214 120.067 28.4855 120.22C27.7939 120.327 27.0882 120.155 26.5235 119.741C26.0287 119.322 25.776 118.639 25.2091 118.324C24.2869 117.811 23.1685 118.559 22.4942 119.37C21.82 120.181 21.1555 121.179 20.111 121.328C18.7297 121.524 17.6775 120.117 17.1613 118.82C16.4492 117.004 16.108 115.063 16.1579 113.112C16.2078 111.161 16.6477 109.24 17.4518 107.462C20.3362 101.174 30.1893 100.18 35.3889 103.864Z" fill="#2F2E41"/>
<path d="M53.842 150.399C57.312 146.49 63.1277 146.782 67.6182 148.534C73.1753 150.703 77.1962 155.526 81.6835 159.249C83.9919 161.232 86.5835 162.86 89.3725 164.077C92.154 165.233 95.1079 165.919 98.1139 166.108C103.965 166.502 109.78 164.935 114.641 161.656C119.198 158.55 122.711 154.142 124.722 149.007C124.965 148.38 125.18 147.744 125.374 147.101C125.589 146.383 124.468 146.077 124.254 146.792C122.659 152.014 119.458 156.6 115.107 159.897C110.475 163.393 104.783 165.19 98.9834 164.989C95.9972 164.891 93.0496 164.284 90.2673 163.195C87.4662 162.043 84.8668 160.451 82.5672 158.48C78.0621 154.752 74.0563 150.012 68.5714 147.679C64.1235 145.786 58.3864 145.21 54.3397 148.344C53.8626 148.713 53.421 149.126 53.0207 149.577C52.5259 150.135 53.3445 150.959 53.842 150.399Z" fill="#2F2E41"/>
<path d="M230.85 127.838C230.252 123.235 226.774 120.215 223.176 118.875C218.403 117.098 213.447 118.445 208.64 119.302C206.052 119.763 203.427 120.068 200.815 119.718C197.393 119.237 194.124 117.793 191.29 115.512C188.456 113.231 186.141 110.181 184.547 106.626C182.398 101.677 181.731 96.0343 182.65 90.5934C182.769 89.9109 182.914 89.2358 183.082 88.5675C183.111 88.4276 183.092 88.2801 183.029 88.1562C182.966 88.0324 182.864 87.9418 182.745 87.9035C182.626 87.8653 182.498 87.8824 182.39 87.9512C182.281 88.0201 182.2 88.1353 182.163 88.2726C180.839 93.6459 181.043 99.3732 182.745 104.6C184.412 109.701 187.456 114.035 191.419 116.951C195.44 119.906 200.164 121.295 204.909 120.916C207.668 120.704 210.383 120.059 213.113 119.588C215.539 119.169 218.058 118.841 220.499 119.281C224.138 119.938 228.287 122.182 229.59 126.512C229.747 127.039 229.861 127.581 229.93 128.133C230.022 128.836 230.94 128.538 230.85 127.838Z" fill="#2F2E41"/>
<path d="M155.531 205.047C154.345 203.861 152.936 202.92 151.386 202.278C149.836 201.636 148.175 201.305 146.497 201.305C144.82 201.305 143.158 201.636 141.608 202.278C140.058 202.92 138.65 203.861 137.464 205.047C136.277 206.234 135.336 207.642 134.694 209.192C134.052 210.742 133.722 212.403 133.722 214.081C133.722 215.759 134.052 217.42 134.694 218.97C135.336 220.52 136.277 221.928 137.464 223.114L155.531 241.182L173.598 223.114C174.785 221.928 175.727 220.52 176.369 218.97C177.012 217.42 177.342 215.758 177.343 214.08C177.343 212.402 177.013 210.74 176.371 209.19C175.729 207.64 174.788 206.231 173.601 205.044C172.414 203.858 171.006 202.917 169.455 202.275C167.905 201.633 166.243 201.302 164.565 201.302C162.887 201.303 161.226 201.634 159.676 202.276C158.125 202.919 156.717 203.86 155.531 205.047Z" fill="#9C57FF"/>
<path d="M252.568 58.6392H141.264V80.6144H252.568V58.6392Z" fill="#E6E6E6"/>
<path d="M143.637 78.2415H250.195V61.012H143.637V78.2415Z" fill="white"/>
<path d="M152.965 76.048C156.59 76.048 159.529 73.1092 159.529 69.484C159.529 65.8587 156.59 62.9199 152.965 62.9199C149.34 62.9199 146.401 65.8587 146.401 69.484C146.401 73.1092 149.34 76.048 152.965 76.048Z" fill="#9C57FF"/>
<path d="M233.446 66.9155H168.662V68.3425H233.446V66.9155Z" fill="#E6E6E6"/>
<path d="M233.446 70.6255H168.662V72.0525H233.446V70.6255Z" fill="#E6E6E6"/>
<path d="M182.106 115.938H70.8025V137.913H182.106V115.938Z" fill="#E6E6E6"/>
<path d="M73.175 135.54H179.733V118.311H73.175V135.54Z" fill="white"/>
<path d="M82.5037 133.347C86.129 133.347 89.0678 130.408 89.0678 126.783C89.0678 123.157 86.129 120.219 82.5037 120.219C78.8785 120.219 75.9397 123.157 75.9397 126.783C75.9397 130.408 78.8785 133.347 82.5037 133.347Z" fill="#9C57FF"/>
<path d="M162.984 124.214H98.2002V125.641H162.984V124.214Z" fill="#E6E6E6"/>
<path d="M162.984 127.924H98.2002V129.351H162.984V127.924Z" fill="#E6E6E6"/>
</svg>
