<svg width="222" height="286" viewBox="0 0 222 286" fill="none" xmlns="http://www.w3.org/2000/svg">
<path d="M142.649 67.8624H141.08V24.8781C141.08 18.28 138.459 11.9522 133.793 7.28665C129.128 2.6211 122.8 1.06359e-05 116.202 0L25.134 0C18.536 -1.80807e-05 12.2081 2.62104 7.54254 7.28658C2.87698 11.9521 0.25588 18.2799 0.255859 24.878V260.693C0.255853 267.291 2.87693 273.619 7.54247 278.284C12.208 282.95 18.5358 285.571 25.1339 285.571H116.202C119.469 285.571 122.704 284.928 125.722 283.677C128.741 282.427 131.483 280.595 133.793 278.285C136.104 275.974 137.936 273.232 139.186 270.214C140.437 267.195 141.08 263.96 141.08 260.693V98.4593H142.649L142.649 67.8624Z" fill="#3F3D56"/>
<path d="M135.785 25.053V260.521C135.788 262.959 135.31 265.373 134.379 267.626C133.448 269.879 132.082 271.927 130.36 273.652C128.638 275.377 126.593 276.746 124.342 277.681C122.09 278.616 119.677 279.098 117.239 279.1H25.7009C20.7769 279.104 16.0531 277.151 12.5688 273.672C9.08448 270.192 7.12506 265.471 7.12159 260.547V25.053C7.11987 22.6148 7.59839 20.2002 8.52985 17.947C9.4613 15.6938 10.8274 13.6461 12.5503 11.9208C14.2731 10.1956 16.3188 8.82655 18.5708 7.89192C20.8227 6.95729 23.2366 6.47536 25.6748 6.47364H36.8012C36.2546 7.81386 36.0459 9.26796 36.1937 10.7078C36.3414 12.1477 36.841 13.5291 37.6485 14.7304C38.4559 15.9317 39.5464 16.9159 40.8239 17.5964C42.1014 18.2769 43.5266 18.6328 44.9741 18.6326H97.147C98.5944 18.6328 100.02 18.2769 101.297 17.5964C102.575 16.9159 103.665 15.9317 104.473 14.7304C105.28 13.5291 105.78 12.1477 105.927 10.7078C106.075 9.26796 105.867 7.81386 105.32 6.47364H117.206C122.129 6.46923 126.853 8.4207 130.337 11.8987C133.821 15.3768 135.781 20.0965 135.785 25.0197L135.785 25.053Z" fill="white"/>
<path d="M135.785 59.8896V51.8691H123.646V7.62037C121.585 6.85895 119.404 6.47057 117.206 6.4734H115.626V51.8691H73.5187V18.6324H65.4983V51.8691H30.2083V6.47344H25.701C24.522 6.4716 23.3456 6.58307 22.1879 6.80629V51.8691H7.12159V59.8896H22.1879V78.4411L7.12178 87.1392V96.4028L22.1879 87.7047V142.901H7.12158V150.922H22.1879V230.725H7.12158V238.745H22.1879V278.767C23.3456 278.991 24.522 279.102 25.701 279.1H30.2083V238.745H65.4983V279.1H73.5187V238.745H115.626V279.1H117.206C119.404 279.103 121.585 278.715 123.646 277.953V238.745H135.785V230.725H123.646V195.836H135.677V187.816H123.646V150.922H135.785V142.901H123.646V93.9765H135.785V85.956H123.646V59.8896L135.785 59.8896ZM54.3221 59.8896L30.2085 73.8132L30.2083 59.8896H54.3221ZM30.2083 83.0729L65.4983 62.697V142.901H30.2083V83.0729ZM30.2083 230.725V150.922H65.4983V230.725H30.2083ZM115.626 230.725H73.5187V195.836H115.626V230.725ZM115.626 187.816H73.5187V150.922H115.626V187.816ZM115.626 142.901H73.5187V93.9764H115.626V142.901ZM115.626 85.956H73.5187V59.8896H115.626V85.956Z" fill="#E5E5E5"/>
<path d="M142.495 86.1046C142.495 111.575 96.3771 168.314 96.3771 168.314C96.3771 168.314 50.2595 111.575 50.2595 86.1046C50.2595 73.8735 55.1183 62.1433 63.767 53.4946C72.4158 44.8459 84.1459 39.9871 96.3771 39.9871C108.608 39.9871 120.338 44.8459 128.987 53.4946C137.636 62.1433 142.495 73.8735 142.495 86.1046Z" fill="#9C57FF"/>
<path d="M123.647 84.0993C123.647 89.4927 122.048 94.765 119.051 99.2494C116.055 103.734 111.796 107.229 106.813 109.293C101.83 111.357 96.3472 111.897 91.0574 110.845C85.7676 109.793 80.9087 107.195 77.095 103.382C73.2813 99.5681 70.6841 94.7091 69.6319 89.4193C68.5797 84.1296 69.1197 78.6466 71.1837 73.6637C73.2476 68.6809 76.7428 64.422 81.2273 61.4256C85.7117 58.4292 90.984 56.8298 96.3774 56.8298C99.9569 56.8282 103.502 57.5316 106.809 58.8999C110.117 60.2681 113.122 62.2745 115.655 64.8044C118.187 67.3342 120.196 70.3381 121.567 73.6444C122.939 76.9508 123.645 80.4949 123.647 84.0743V84.0993Z" fill="white"/>
<path d="M96.2825 94.8641C101.893 94.8641 106.442 90.3157 106.442 84.7049C106.442 79.0941 101.893 74.5457 96.2825 74.5457C90.6717 74.5457 86.1233 79.0941 86.1233 84.7049C86.1233 90.3157 90.6717 94.8641 96.2825 94.8641Z" fill="#9C57FF"/>
<path d="M111.027 107.908C106.647 110.693 101.565 112.172 96.3748 112.171C91.185 112.17 86.1028 110.69 81.7241 107.904C82.6348 104.721 84.5574 101.921 87.2012 99.9274C89.845 97.9342 93.066 96.8562 96.3769 96.8567C99.6879 96.8571 102.909 97.936 105.552 99.9299C108.195 101.924 110.117 104.724 111.027 107.908Z" fill="#9C57FF"/>
<path d="M96.377 201.599C103.243 201.599 108.809 196.033 108.809 189.167C108.809 182.301 103.243 176.735 96.377 176.735C89.5112 176.735 83.9453 182.301 83.9453 189.167C83.9453 196.033 89.5112 201.599 96.377 201.599Z" fill="#9C57FF"/>
<path d="M221.486 285.929H13.8718C13.8033 285.929 13.7376 285.887 13.6892 285.811C13.6407 285.736 13.6135 285.634 13.6135 285.528C13.6135 285.421 13.6407 285.319 13.6892 285.244C13.7376 285.169 13.8033 285.127 13.8718 285.127H221.486C221.554 285.127 221.62 285.169 221.668 285.244C221.717 285.319 221.744 285.421 221.744 285.528C221.744 285.634 221.717 285.736 221.668 285.811C221.62 285.887 221.554 285.929 221.486 285.929Z" fill="#CBCBCB"/>
<path d="M136.243 153.176C136.627 152.582 137.132 152.076 137.725 151.691C138.319 151.306 138.987 151.05 139.686 150.942C140.385 150.833 141.099 150.873 141.781 151.059C142.463 151.245 143.099 151.573 143.645 152.022C143.818 152.165 143.98 152.32 144.131 152.486L163.866 149.613L164.964 134.773C165.048 133.634 165.581 132.576 166.445 131.83C167.31 131.085 168.435 130.713 169.574 130.797C170.712 130.881 171.77 131.414 172.516 132.279C173.262 133.143 173.633 134.268 173.549 135.407C173.547 135.433 173.545 135.46 173.543 135.486L171.619 156.309L171.61 156.355C171.359 157.156 170.857 157.854 170.179 158.347C169.5 158.84 168.681 159.1 167.842 159.091L144.63 158.69C144.54 158.827 144.443 158.96 144.339 159.088C143.89 159.634 143.33 160.08 142.697 160.395C142.064 160.71 141.371 160.888 140.664 160.917C139.957 160.946 139.252 160.825 138.596 160.563C137.939 160.3 137.345 159.902 136.852 159.394C136.753 159.292 136.658 159.186 136.568 159.077C135.899 158.253 135.508 157.239 135.449 156.179C135.391 155.12 135.669 154.069 136.243 153.176Z" fill="#FFB7B7"/>
<path d="M176.03 279.704L170.401 279.704L167.724 257.994L176.031 257.994L176.03 279.704Z" fill="#FFB7B7"/>
<path d="M177.465 285.16L159.316 285.16V284.93C159.317 283.057 160.061 281.26 161.386 279.935C162.71 278.611 164.507 277.866 166.38 277.866H166.381L177.466 277.867L177.465 285.16Z" fill="#2F2E41"/>
<path d="M215.361 274.601L210.034 276.418L200.49 256.735L208.353 254.053L215.361 274.601Z" fill="#FFB7B7"/>
<path d="M218.481 279.302L201.304 285.16L201.229 284.943C200.625 283.17 200.749 281.229 201.575 279.548C202.401 277.866 203.862 276.582 205.635 275.977L205.635 275.977L216.126 272.398L218.481 279.302Z" fill="#2F2E41"/>
<path d="M182.228 89.8796C182.228 89.8796 176.626 88.0294 173.024 95.4301C169.423 102.831 163.821 110.971 163.821 110.971L167.022 111.711C167.022 111.711 167.822 106.531 169.823 105.791L169.023 112.452C169.023 112.452 193.032 120.222 203.837 111.711L203.437 109.121C203.437 109.121 205.037 109.491 205.037 111.711L206.238 110.601C206.238 110.601 205.037 108.381 201.436 105.421C199.072 103.478 198.26 99.7814 197.981 97.4703C197.759 95.5137 196.92 93.6784 195.585 92.2309C193.192 89.666 188.831 86.9399 182.228 89.8796Z" fill="#2F2E41"/>
<path d="M184.293 115.736C189.944 115.736 194.525 111.155 194.525 105.504C194.525 99.8528 189.944 95.2717 184.293 95.2717C178.642 95.2717 174.061 99.8528 174.061 105.504C174.061 111.155 178.642 115.736 184.293 115.736Z" fill="#FFB7B7"/>
<path d="M170.65 124.162L168.79 123.542C168.79 123.542 165.069 125.092 165.069 127.882C165.069 130.673 164.449 141.835 164.449 141.835L172.821 142.766L170.65 124.162Z" fill="#6CC7FE"/>
<path d="M203.948 185.151C203.176 184.286 202.74 183.173 202.72 182.014C202.7 180.856 203.096 179.728 203.837 178.837L198.614 135.099C198.563 134.067 198.923 133.058 199.616 132.292C200.308 131.526 201.276 131.065 202.308 131.012C203.339 130.959 204.349 131.317 205.117 132.008C205.884 132.699 206.346 133.666 206.401 134.698C206.402 134.712 206.403 134.726 206.403 134.74L211.076 178.525C211.245 178.695 211.401 178.878 211.543 179.072C211.917 179.59 212.186 180.177 212.334 180.799C212.482 181.421 212.506 182.067 212.405 182.698C212.303 183.33 212.078 183.935 211.743 184.479C211.408 185.024 210.968 185.497 210.45 185.872C210.396 185.911 210.342 185.948 210.287 185.985C209.687 186.382 209.006 186.641 208.294 186.744C207.582 186.847 206.856 186.791 206.168 186.58C205.309 186.32 204.54 185.825 203.948 185.151Z" fill="#FFB7B7"/>
<path d="M199.165 141.835L207.536 140.905C207.536 140.905 206.916 129.743 206.916 126.952C206.916 124.162 203.195 122.611 203.195 122.611L201.335 123.231L199.165 141.835Z" fill="#6CC7FE"/>
<path d="M171.89 157.323C171.89 157.323 164.759 170.361 164.759 186.175C164.759 201.988 164.139 274.543 164.139 274.543C164.139 274.543 173.441 278.884 179.022 273.613L183.983 193.306L203.517 272.063C203.517 272.063 212.819 273.923 217.16 270.823L208.788 215.941C208.788 215.941 205.377 164.47 196.075 160.749C186.773 157.029 171.89 157.323 171.89 157.323Z" fill="#2F2E41"/>
<path d="M173.236 105.569C176.858 102.947 179.79 99.928 181.73 96.3363C181.73 96.3363 188.378 103.722 192.44 104.092C196.502 104.461 192.809 95.2284 192.809 95.2284L185.423 93.3818L178.406 94.1204L172.867 97.8135L173.236 105.569Z" fill="#2F2E41"/>
<path d="M194.525 120.751C194.525 120.751 194.82 120.592 177.162 121.236L169.772 123.271L168.79 123.542C168.79 123.542 169.72 142.145 172.2 145.556C174.681 148.967 174.061 150.827 173.441 151.137C172.82 151.447 171.27 150.827 172.2 152.378C173.13 153.928 174.371 152.998 173.13 153.928C171.89 154.858 171.27 158.269 171.27 158.269L198.556 161.99C198.556 161.99 199.486 149.897 201.967 143.696C204.447 137.494 205.067 135.014 205.067 135.014L203.207 122.611L194.525 120.751Z" fill="#6CC7FE"/>
<path d="M141.023 159.978C140.445 160.246 139.783 160.274 139.183 160.055C138.584 159.835 138.097 159.387 137.828 158.808L123.988 128.978C123.72 128.399 123.692 127.738 123.912 127.138C124.131 126.539 124.58 126.052 125.159 125.783C125.737 125.515 126.399 125.487 126.998 125.706C127.598 125.926 128.085 126.374 128.354 126.953L142.193 156.783C142.462 157.362 142.49 158.023 142.27 158.623C142.051 159.222 141.602 159.709 141.023 159.978Z" fill="#2B2B2B"/>
<path d="M127.184 130.148C123.73 131.751 119.879 132.293 116.117 131.706C112.356 131.12 108.852 129.431 106.05 126.854C103.249 124.276 101.274 120.926 100.376 117.226C99.4783 113.526 99.6979 109.644 101.007 106.069C102.316 102.494 104.656 99.387 107.73 97.1418C110.805 94.8965 114.476 93.6134 118.28 93.4547C122.084 93.296 125.849 94.2688 129.1 96.2501C132.351 98.2314 134.941 101.132 136.544 104.586C138.686 109.218 138.904 114.51 137.149 119.302C135.395 124.095 131.811 127.995 127.184 130.148ZM113.006 99.5911C110.416 100.793 108.241 102.736 106.755 105.174C105.269 107.612 104.539 110.436 104.658 113.289C104.777 116.142 105.739 118.895 107.423 121.201C109.107 123.507 111.437 125.262 114.118 126.244C116.8 127.225 119.712 127.39 122.487 126.717C125.261 126.043 127.774 124.562 129.707 122.461C131.64 120.359 132.907 117.732 133.347 114.911C133.787 112.09 133.38 109.201 132.178 106.611C130.563 103.141 127.638 100.453 124.044 99.1368C120.45 97.8208 116.48 97.9841 113.006 99.5911Z" fill="#2B2B2B"/>
</svg>
