<svg width="239" height="232" viewBox="0 0 239 232" fill="none" xmlns="http://www.w3.org/2000/svg">
<path d="M208.525 65.099C208.525 65.099 210.801 34.4135 178.974 13.9546C147.148 -6.50444 101.684 -2.52917 70.9926 13.3841C40.3011 29.2973 44.8529 65.6452 34.6447 88.9446C24.4364 112.244 1.11278 116.256 2.8182 148.052C4.52362 179.848 24.4182 195.221 47.1228 200.337C69.8273 205.453 90.8872 199.202 111.346 202.607C131.805 206.012 160.221 212.84 193.182 199.767C226.144 186.694 232.395 150.892 227.849 122.476C223.303 94.0608 208.525 83.8344 208.525 65.099Z" fill="#9C57FF"/>
<path opacity="0.7" d="M208.525 65.099C208.525 65.099 210.801 34.4135 178.974 13.9546C147.148 -6.50444 101.684 -2.52917 70.9926 13.3841C40.3011 29.2973 44.8529 65.6452 34.6447 88.9446C24.4364 112.244 1.11278 116.256 2.8182 148.052C4.52362 179.848 24.4182 195.221 47.1228 200.337C69.8273 205.453 90.8872 199.202 111.346 202.607C131.805 206.012 160.221 212.84 193.182 199.767C226.144 186.694 232.395 150.892 227.849 122.476C223.303 94.0608 208.525 83.8344 208.525 65.099Z" fill="white"/>
<path d="M177.936 185.947H60.936L70.1731 177.031H168.699L177.936 185.947Z" fill="white" stroke="#263238" stroke-width="0.606912" stroke-linecap="round" stroke-linejoin="round"/>
<path d="M164.936 180.473C164.936 182.294 143.749 183.793 117.597 183.793C91.4455 183.793 70.2582 182.306 70.2582 180.473C70.2582 178.64 91.4455 177.147 117.597 177.147C143.749 177.147 164.936 178.634 164.936 180.473Z" fill="#9C57FF"/>
<path opacity="0.5" d="M164.936 180.473C164.936 182.294 143.749 183.793 117.597 183.793C91.4455 183.793 70.2582 182.306 70.2582 180.473C70.2582 178.64 91.4455 177.147 117.597 177.147C143.749 177.147 164.936 178.634 164.936 180.473Z" fill="white"/>
<path d="M177.936 185.947H60.936V194.207H177.936V185.947Z" fill="#263238" stroke="#263238" stroke-width="0.606912" stroke-linecap="round" stroke-linejoin="round"/>
<path d="M186.215 203.117H52.6577L60.936 194.208H177.936L186.215 203.117Z" fill="white" stroke="#263238" stroke-width="0.606912" stroke-linecap="round" stroke-linejoin="round"/>
<path d="M186.19 203.116H52.6819V211.807H186.19V203.116Z" fill="#263238" stroke="#263238" stroke-width="0.606912" stroke-linecap="round" stroke-linejoin="round"/>
<path d="M118.143 97.83V42.2794H139.282V18.9072" stroke="#263238" stroke-width="0.606912" stroke-miterlimit="10"/>
<path d="M126.404 42.0184V18.9072" stroke="#263238" stroke-width="0.606912" stroke-miterlimit="10"/>
<path d="M119.721 106.684H217.046V92.8467H235.648" stroke="#263238" stroke-width="0.606912" stroke-miterlimit="10"/>
<path d="M114.951 106.205H22.4031V91.4209H2.36898" stroke="#263238" stroke-width="0.606912" stroke-miterlimit="10"/>
<path d="M99.2078 4.11621V25.1093H87.282V38.4613H102.072V83.306" stroke="#263238" stroke-width="0.606912" stroke-miterlimit="10"/>
<path d="M164.566 66.1312V36.0769H172.674V23.1982H179.357" stroke="#263238" stroke-width="0.606912" stroke-miterlimit="10"/>
<path d="M66.295 63.2721V40.3734L59.6129 33.6913V16.9951" stroke="#263238" stroke-width="0.606912" stroke-miterlimit="10"/>
<path d="M182.695 76.6307H199.391V65.6577H210.364V59.4551H219.904" stroke="#263238" stroke-width="0.606912" stroke-miterlimit="10"/>
<path d="M49.5927 80.4479H31.9437V66.6104H7.13922" stroke="#263238" stroke-width="0.606912" stroke-miterlimit="10"/>
<path d="M65.8155 155.341V167.746H57.7072V181.584H34.329" stroke="#263238" stroke-width="0.606912" stroke-miterlimit="10"/>
<path d="M155.026 157.252V170.131H173.627V164.887H178.877V175.854H195.1" stroke="#263238" stroke-width="0.606912" stroke-miterlimit="10"/>
<path d="M140.642 18.9075C140.64 19.1762 140.56 19.4384 140.41 19.6612C140.259 19.8839 140.047 20.0572 139.798 20.1592C139.55 20.2612 139.277 20.2872 139.013 20.2341C138.75 20.1809 138.508 20.051 138.319 19.8606C138.129 19.6703 138 19.428 137.948 19.1645C137.896 18.9009 137.924 18.6279 138.027 18.3798C138.13 18.1318 138.304 17.9198 138.527 17.7707C138.751 17.6216 139.014 17.542 139.282 17.542C139.461 17.542 139.638 17.5774 139.804 17.6461C139.969 17.7148 140.119 17.8154 140.246 17.9423C140.372 18.0692 140.472 18.2198 140.54 18.3854C140.608 18.5511 140.642 18.7285 140.642 18.9075Z" fill="#263238" stroke="#263238" stroke-width="0.606912" stroke-linecap="round" stroke-linejoin="round"/>
<path d="M127.812 18.9075C127.81 19.1762 127.73 19.4384 127.579 19.6612C127.429 19.8839 127.217 20.0572 126.968 20.1592C126.72 20.2612 126.446 20.2872 126.183 20.2341C125.92 20.1809 125.678 20.051 125.489 19.8606C125.299 19.6703 125.17 19.428 125.118 19.1645C125.066 18.9009 125.094 18.6279 125.197 18.3798C125.3 18.1318 125.474 17.9198 125.697 17.7707C125.921 17.6216 126.183 17.542 126.452 17.542C126.631 17.542 126.808 17.5774 126.974 17.6461C127.139 17.7148 127.289 17.8154 127.416 17.9423C127.542 18.0692 127.642 18.2198 127.71 18.3854C127.778 18.5511 127.812 18.7285 127.812 18.9075Z" fill="#263238" stroke="#263238" stroke-width="0.606912" stroke-linecap="round" stroke-linejoin="round"/>
<path d="M100.579 3.72201C100.579 3.99235 100.499 4.2566 100.349 4.4813C100.198 4.70599 99.9849 4.88101 99.735 4.98419C99.4851 5.08736 99.2102 5.11405 98.9452 5.06086C98.6801 5.00768 98.4368 4.87702 98.2461 4.68544C98.0553 4.49385 97.9258 4.24997 97.8738 3.98468C97.8218 3.71939 97.8497 3.44463 97.954 3.19522C98.0582 2.9458 98.2342 2.73296 98.4596 2.58364C98.6849 2.43432 98.9495 2.35526 99.2199 2.35646C99.3989 2.35646 99.5762 2.39182 99.7415 2.46052C99.9069 2.52922 100.057 2.6299 100.183 2.75679C100.31 2.88367 100.41 3.03425 100.478 3.19989C100.546 3.36554 100.58 3.54297 100.579 3.72201Z" fill="#263238" stroke="#263238" stroke-width="0.606912" stroke-linecap="round" stroke-linejoin="round"/>
<path d="M60.9845 16.3099C60.9833 16.5785 60.9026 16.8407 60.7525 17.0635C60.6024 17.2863 60.3896 17.4596 60.1411 17.5616C59.8926 17.6635 59.6195 17.6896 59.3561 17.6364C59.0928 17.5833 58.8512 17.4533 58.6616 17.263C58.4721 17.0726 58.3432 16.8304 58.2913 16.5668C58.2393 16.3033 58.2666 16.0302 58.3697 15.7822C58.4727 15.5341 58.647 15.3221 58.8704 15.173C59.0938 15.0239 59.3564 14.9443 59.6251 14.9443C59.8041 14.9443 59.9814 14.9797 60.1467 15.0484C60.3121 15.1171 60.4622 15.2178 60.5885 15.3447C60.7148 15.4715 60.8149 15.6221 60.8828 15.7878C60.9508 15.9534 60.9853 16.1308 60.9845 16.3099Z" fill="#263238" stroke="#263238" stroke-width="0.606912" stroke-linecap="round" stroke-linejoin="round"/>
<path d="M8.49877 66.6105C8.49997 66.8811 8.42075 67.1459 8.27117 67.3714C8.12158 67.5969 7.90838 67.7729 7.65861 67.877C7.40884 67.9811 7.13377 68.0086 6.86832 67.9561C6.60286 67.9036 6.35899 67.7735 6.16765 67.5821C5.97631 67.3908 5.84613 67.1469 5.79363 66.8814C5.74113 66.616 5.76869 66.3409 5.87279 66.0912C5.9769 65.8414 6.15287 65.6282 6.37836 65.4786C6.60385 65.329 6.8687 65.2498 7.13929 65.251C7.49985 65.251 7.84564 65.3942 8.10059 65.6492C8.35554 65.9041 8.49877 66.2499 8.49877 66.6105Z" fill="#263238" stroke="#263238" stroke-width="0.606912" stroke-linecap="round" stroke-linejoin="round"/>
<path d="M3.77094 91.3782C3.77094 91.6483 3.69085 91.9123 3.5408 92.1369C3.39075 92.3615 3.17748 92.5365 2.92796 92.6398C2.67844 92.7432 2.40387 92.7702 2.13898 92.7176C1.87409 92.6649 1.63077 92.5348 1.43979 92.3438C1.24882 92.1529 1.11876 91.9095 1.06607 91.6447C1.01338 91.3798 1.04042 91.1052 1.14378 90.8557C1.24713 90.6062 1.42216 90.3929 1.64673 90.2428C1.87129 90.0928 2.13531 90.0127 2.40539 90.0127C2.76755 90.0127 3.11489 90.1566 3.37098 90.4127C3.62707 90.6687 3.77094 91.0161 3.77094 91.3782Z" fill="#263238" stroke="#263238" stroke-width="0.606912" stroke-linecap="round" stroke-linejoin="round"/>
<path d="M35.8098 181.323C35.8098 181.593 35.7295 181.857 35.5792 182.082C35.4289 182.307 35.2153 182.482 34.9654 182.585C34.7155 182.688 34.4407 182.715 34.1756 182.661C33.9105 182.608 33.6672 182.478 33.4765 182.286C33.2858 182.094 33.1562 181.851 33.1042 181.585C33.0522 181.32 33.0801 181.045 33.1844 180.796C33.2887 180.546 33.4646 180.334 33.69 180.184C33.9154 180.035 34.18 179.956 34.4503 179.957C34.6294 179.957 34.8066 179.992 34.972 180.061C35.1373 180.13 35.2874 180.23 35.4138 180.357C35.5401 180.484 35.6401 180.635 35.7081 180.8C35.776 180.966 35.8106 181.144 35.8098 181.323Z" fill="#263238" stroke="#263238" stroke-width="0.606912" stroke-linecap="round" stroke-linejoin="round"/>
<path d="M197.151 175.588C197.152 175.858 197.073 176.123 196.924 176.348C196.775 176.574 196.562 176.75 196.312 176.854C196.063 176.958 195.788 176.986 195.523 176.934C195.258 176.882 195.014 176.753 194.822 176.562C194.631 176.371 194.5 176.128 194.447 175.863C194.394 175.598 194.42 175.323 194.524 175.073C194.627 174.823 194.802 174.609 195.026 174.459C195.251 174.309 195.515 174.229 195.786 174.229C195.965 174.228 196.142 174.262 196.308 174.33C196.473 174.398 196.624 174.498 196.751 174.625C196.878 174.751 196.978 174.901 197.047 175.066C197.116 175.232 197.151 175.409 197.151 175.588Z" fill="#263238" stroke="#263238" stroke-width="0.606912" stroke-linecap="round" stroke-linejoin="round"/>
<path d="M237.699 92.5802C237.699 92.8491 237.619 93.1119 237.47 93.3355C237.321 93.559 237.108 93.7333 236.86 93.8362C236.611 93.9391 236.338 93.966 236.074 93.9135C235.811 93.8611 235.568 93.7316 235.378 93.5415C235.188 93.3514 235.059 93.1091 235.006 92.8454C234.954 92.5817 234.981 92.3084 235.084 92.0599C235.186 91.8115 235.361 91.5992 235.584 91.4498C235.808 91.3004 236.071 91.2207 236.34 91.2207C236.7 91.2207 237.046 91.3639 237.301 91.6189C237.556 91.8738 237.699 92.2196 237.699 92.5802Z" fill="#263238" stroke="#263238" stroke-width="0.606912" stroke-linecap="round" stroke-linejoin="round"/>
<path d="M221.907 59.1642C221.907 59.4331 221.827 59.6959 221.678 59.9195C221.529 60.143 221.316 60.3173 221.068 60.4202C220.819 60.5231 220.546 60.55 220.282 60.4975C220.019 60.4451 219.776 60.3156 219.586 60.1255C219.396 59.9353 219.267 59.6931 219.214 59.4294C219.162 59.1657 219.189 58.8923 219.292 58.6439C219.395 58.3955 219.569 58.1832 219.792 58.0338C220.016 57.8844 220.279 57.8047 220.548 57.8047C220.908 57.8047 221.254 57.9479 221.509 58.2029C221.764 58.4578 221.907 58.8036 221.907 59.1642Z" fill="#263238" stroke="#263238" stroke-width="0.606912" stroke-linecap="round" stroke-linejoin="round"/>
<path d="M181.596 23.1612C181.596 23.4301 181.516 23.693 181.367 23.9165C181.218 24.1401 181.005 24.3143 180.757 24.4172C180.508 24.5201 180.235 24.5471 179.971 24.4946C179.708 24.4421 179.465 24.3127 179.275 24.1225C179.085 23.9324 178.956 23.6902 178.903 23.4265C178.851 23.1627 178.878 22.8894 178.981 22.641C179.083 22.3926 179.258 22.1803 179.481 22.0309C179.705 21.8815 179.968 21.8018 180.237 21.8018C180.597 21.8018 180.943 21.945 181.198 22.1999C181.453 22.4549 181.596 22.8007 181.596 23.1612Z" fill="#263238" stroke="#263238" stroke-width="0.606912" stroke-linecap="round" stroke-linejoin="round"/>
<path d="M135.95 167.364V155.529H100.337V167.364C100.326 171.233 98.9892 174.982 96.5496 177.985L94.9898 179.915H141.285L139.731 177.985C137.292 174.982 135.957 171.233 135.95 167.364Z" fill="white"/>
<mask id="mask0_827_4632" style="mask-type:luminance" maskUnits="userSpaceOnUse" x="94" y="155" width="48" height="25">
<path d="M135.95 167.364V155.529H100.337V167.364C100.326 171.233 98.9892 174.982 96.5496 177.985L94.9898 179.915H141.285L139.731 177.985C137.292 174.982 135.957 171.233 135.95 167.364Z" fill="white"/>
</mask>
<g mask="url(#mask0_827_4632)">
<path d="M98.1518 175.654H138.135C136.704 173.126 135.952 170.27 135.95 167.364V155.529H100.337V167.364C100.335 170.27 99.5825 173.126 98.1518 175.654Z" fill="#9C57FF"/>
<path opacity="0.3" d="M98.1518 175.654H138.135C136.704 173.126 135.952 170.27 135.95 167.364V155.529H100.337V167.364C100.335 170.27 99.5825 173.126 98.1518 175.654Z" fill="white"/>
<path d="M98.1518 163.177H138.135C136.704 160.648 135.952 157.792 135.95 154.887V143.052H100.337V154.887C100.335 157.792 99.5825 160.648 98.1518 163.177Z" fill="#263238"/>
</g>
<path d="M135.95 167.364V155.529H100.337V167.364C100.326 171.233 98.9892 174.982 96.5496 177.985L94.9898 179.915H141.285L139.731 177.985C137.292 174.982 135.957 171.233 135.95 167.364Z" stroke="#263238" stroke-width="0.606912" stroke-linecap="round" stroke-linejoin="round"/>
<path d="M184.558 54.1689H51.7292C48.8868 54.1689 46.5826 56.4732 46.5826 59.3156V154.109C46.5826 156.951 48.8868 159.256 51.7292 159.256H184.558C187.4 159.256 189.704 156.951 189.704 154.109V59.3156C189.704 56.4732 187.4 54.1689 184.558 54.1689Z" fill="#263238" stroke="#263238" stroke-width="0.606912" stroke-linecap="round" stroke-linejoin="round"/>
<path d="M46.5826 142.924H189.704V154.109C189.704 155.474 189.162 156.783 188.197 157.748C187.232 158.714 185.923 159.256 184.558 159.256H51.7292C50.3642 159.256 49.0551 158.714 48.09 157.748C47.1248 156.783 46.5826 155.474 46.5826 154.109V142.924Z" fill="white" stroke="#263238" stroke-width="0.606912" stroke-linecap="round" stroke-linejoin="round"/>
<path d="M182.5 60.7109H53.7805V134.954H182.5V60.7109Z" fill="white" stroke="#263238" stroke-width="0.606912" stroke-linecap="round" stroke-linejoin="round"/>
<path d="M120.784 153.708C120.794 153.184 120.649 152.668 120.365 152.227C120.082 151.786 119.674 151.439 119.192 151.231C118.711 151.022 118.178 150.962 117.663 151.058C117.147 151.154 116.672 151.401 116.297 151.768C115.922 152.134 115.665 152.605 115.559 153.118C115.452 153.632 115.501 154.165 115.7 154.651C115.898 155.137 116.236 155.552 116.671 155.845C117.106 156.137 117.619 156.294 118.143 156.294C118.836 156.3 119.503 156.032 119.998 155.547C120.493 155.062 120.776 154.401 120.784 153.708Z" fill="#263238" stroke="#263238" stroke-width="0.606912" stroke-linecap="round" stroke-linejoin="round"/>
<path d="M141.297 179.933H94.9958V182.045H141.297V179.933Z" fill="white" stroke="#263238" stroke-width="0.606912" stroke-linecap="round" stroke-linejoin="round"/>
<path d="M118.338 56.8574C111.868 62.9265 95.275 68.9957 75.9691 81.9168C75.9691 81.9168 77.1829 125.614 118.338 149.472V56.8574Z" fill="#9C57FF" stroke="#263238" stroke-width="0.606912" stroke-linecap="round" stroke-linejoin="round"/>
<path d="M118.338 56.8574C124.813 62.9265 141.4 68.9957 160.712 81.9168C160.712 81.9168 159.498 125.614 118.338 149.472V56.8574Z" fill="#263238" stroke="#263238" stroke-width="0.606912" stroke-linecap="round" stroke-linejoin="round"/>
<path d="M118.338 60.5771C110.508 66.0029 96.9804 71.1678 79.0765 83.1482C79.0765 83.1482 80.1993 123.629 118.338 145.757C156.482 123.629 157.605 83.1482 157.605 83.1482C139.701 71.1678 126.215 66.0029 118.338 60.5771Z" fill="#263238" stroke="#263238" stroke-width="0.606912" stroke-linecap="round" stroke-linejoin="round"/>
<path d="M157.605 83.1482C139.701 71.1738 126.215 66.0029 118.338 60.5771V145.757C156.482 123.629 157.605 83.1482 157.605 83.1482Z" fill="#9C57FF" stroke="#263238" stroke-width="0.606912" stroke-linecap="round" stroke-linejoin="round"/>
<path d="M190.147 104.578H46.1394V113.9H190.147V104.578Z" fill="#263238" stroke="#263238" stroke-width="0.606912" stroke-linecap="round" stroke-linejoin="round"/>
<path d="M48.9738 106.059C48.9774 106.251 48.9239 106.439 48.82 106.6C48.7162 106.761 48.5668 106.888 48.3908 106.964C48.2149 107.039 48.0203 107.061 47.8319 107.026C47.6435 106.991 47.4699 106.9 47.3331 106.766C47.1963 106.632 47.1026 106.46 47.0639 106.272C47.0251 106.085 47.0432 105.89 47.1156 105.712C47.1881 105.535 47.3117 105.383 47.4708 105.276C47.6299 105.17 47.8171 105.112 48.0088 105.112C48.1344 105.111 48.2591 105.134 48.3757 105.181C48.4923 105.228 48.5986 105.297 48.6882 105.385C48.7779 105.473 48.8493 105.578 48.8983 105.694C48.9473 105.809 48.973 105.934 48.9738 106.059Z" fill="white"/>
<path d="M47.4565 106.581C47.5622 106.692 47.6985 106.769 47.8482 106.802C47.9978 106.835 48.154 106.823 48.2966 106.767C48.4393 106.711 48.5621 106.614 48.6492 106.488C48.7363 106.361 48.7838 106.212 48.7856 106.059C48.7836 105.877 48.7144 105.702 48.5914 105.567C48.1905 105.879 47.8113 106.218 47.4565 106.581Z" fill="#263238"/>
<path d="M52.7609 106.059C52.7657 106.252 52.7129 106.442 52.6092 106.605C52.5054 106.768 52.3555 106.896 52.1786 106.973C52.0016 107.051 51.8057 107.073 51.6157 107.039C51.4258 107.004 51.2505 106.914 51.1122 106.779C50.974 106.644 50.8791 106.471 50.8396 106.282C50.8001 106.093 50.8179 105.897 50.8906 105.718C50.9633 105.539 51.0877 105.386 51.2479 105.278C51.4081 105.17 51.5968 105.112 51.7898 105.112C51.9158 105.111 52.0408 105.134 52.1577 105.181C52.2747 105.227 52.3813 105.297 52.4715 105.385C52.5616 105.473 52.6336 105.577 52.6833 105.693C52.7329 105.809 52.7593 105.933 52.7609 106.059Z" fill="white"/>
<path d="M51.2375 106.581C51.3432 106.692 51.4796 106.769 51.6292 106.802C51.7789 106.835 51.935 106.823 52.0777 106.767C52.2204 106.711 52.3431 106.614 52.4302 106.488C52.5173 106.361 52.5648 106.212 52.5667 106.059C52.5646 105.877 52.4955 105.702 52.3725 105.567C51.9728 105.881 51.5937 106.219 51.2375 106.581Z" fill="#263238"/>
<path d="M56.542 106.059C56.5227 106.303 56.4123 106.53 56.2329 106.696C56.0535 106.862 55.8182 106.954 55.574 106.954C55.3297 106.954 55.0944 106.862 54.915 106.696C54.7356 106.53 54.6252 106.303 54.6059 106.059C54.6252 105.816 54.7356 105.589 54.915 105.423C55.0944 105.257 55.3297 105.165 55.574 105.165C55.8182 105.165 56.0535 105.257 56.2329 105.423C56.4123 105.589 56.5227 105.816 56.542 106.059Z" fill="white"/>
<path d="M55.0186 106.581C55.091 106.656 55.1778 106.715 55.2737 106.756C55.3696 106.797 55.4727 106.818 55.5769 106.818C55.6773 106.818 55.7769 106.799 55.87 106.762C55.9631 106.724 56.0479 106.668 56.1194 106.598C56.191 106.527 56.248 106.444 56.2872 106.351C56.3263 106.259 56.3469 106.159 56.3477 106.059C56.348 105.876 56.2785 105.7 56.1535 105.567C55.7538 105.881 55.3747 106.219 55.0186 106.581Z" fill="#263238"/>
<path d="M60.323 106.059C60.3266 106.251 60.2731 106.439 60.1693 106.6C60.0655 106.761 59.9161 106.888 59.7401 106.964C59.5641 107.039 59.3696 107.061 59.1812 107.026C58.9928 106.991 58.8192 106.9 58.6824 106.766C58.5456 106.632 58.4519 106.46 58.4131 106.272C58.3744 106.085 58.3924 105.89 58.4649 105.712C58.5374 105.535 58.661 105.383 58.8201 105.276C58.9791 105.17 59.1664 105.112 59.358 105.112C59.4837 105.111 59.6084 105.134 59.725 105.181C59.8416 105.228 59.9478 105.297 60.0375 105.385C60.1272 105.473 60.1986 105.578 60.2476 105.694C60.2966 105.809 60.3222 105.934 60.323 106.059Z" fill="white"/>
<path d="M58.7996 106.581C58.9061 106.691 59.0428 106.767 59.1925 106.8C59.3422 106.833 59.4983 106.82 59.641 106.765C59.7837 106.709 59.9067 106.612 59.9946 106.486C60.0825 106.361 60.1313 106.212 60.1348 106.059C60.1327 105.877 60.0636 105.702 59.9406 105.567C59.5377 105.879 59.1565 106.218 58.7996 106.581Z" fill="#263238"/>
<path d="M64.104 106.059C64.1077 106.251 64.0542 106.439 63.9503 106.6C63.8465 106.761 63.6971 106.888 63.5211 106.964C63.3452 107.039 63.1506 107.061 62.9622 107.026C62.7738 106.991 62.6002 106.9 62.4634 106.766C62.3266 106.632 62.2329 106.46 62.1942 106.272C62.1554 106.085 62.1734 105.89 62.2459 105.712C62.3184 105.535 62.442 105.383 62.6011 105.276C62.7602 105.17 62.9474 105.112 63.1391 105.112C63.2647 105.111 63.3894 105.134 63.506 105.181C63.6226 105.228 63.7288 105.297 63.8185 105.385C63.9082 105.473 63.9796 105.578 64.0286 105.694C64.0776 105.809 64.1033 105.934 64.104 106.059Z" fill="white"/>
<path d="M62.5625 106.581C62.6351 106.656 62.7219 106.715 62.8178 106.756C62.9137 106.796 63.0167 106.817 63.1208 106.818C63.2218 106.819 63.322 106.801 63.4158 106.764C63.5096 106.726 63.5951 106.671 63.6673 106.6C63.7395 106.53 63.797 106.445 63.8366 106.353C63.8761 106.26 63.8969 106.16 63.8977 106.059C63.8956 105.877 63.8265 105.702 63.7035 105.567C63.3019 105.881 62.9208 106.219 62.5625 106.581Z" fill="#263238"/>
<path d="M67.8852 106.059C67.8888 106.251 67.8353 106.439 67.7315 106.6C67.6276 106.761 67.4782 106.888 67.3022 106.964C67.1263 107.039 66.9317 107.061 66.7433 107.026C66.5549 106.991 66.3813 106.9 66.2445 106.766C66.1077 106.632 66.014 106.46 65.9753 106.272C65.9365 106.085 65.9546 105.89 66.027 105.712C66.0995 105.535 66.2231 105.383 66.3822 105.276C66.5413 105.17 66.7285 105.112 66.9202 105.112C67.0458 105.111 67.1705 105.134 67.2871 105.181C67.4038 105.228 67.51 105.297 67.5996 105.385C67.6893 105.473 67.7607 105.578 67.8097 105.694C67.8587 105.809 67.8844 105.934 67.8852 106.059Z" fill="white"/>
<path d="M66.3678 106.581C66.4735 106.692 66.6098 106.769 66.7595 106.802C66.9092 106.835 67.0653 106.823 67.208 106.767C67.3507 106.711 67.4734 106.614 67.5605 106.488C67.6476 106.361 67.6951 106.212 67.697 106.059C67.6949 105.877 67.6258 105.702 67.5028 105.567C67.1018 105.879 66.7226 106.218 66.3678 106.581Z" fill="#263238"/>
<path d="M71.6661 106.059C71.671 106.252 71.6181 106.442 71.5144 106.605C71.4107 106.768 71.2608 106.896 71.0838 106.973C70.9069 107.051 70.7109 107.073 70.521 107.039C70.331 107.004 70.1557 106.914 70.0175 106.779C69.8792 106.644 69.7843 106.471 69.7448 106.282C69.7054 106.093 69.7231 105.897 69.7958 105.718C69.8686 105.539 69.993 105.386 70.1531 105.278C70.3133 105.17 70.502 105.112 70.6951 105.112C70.821 105.111 70.946 105.134 71.063 105.181C71.1799 105.227 71.2865 105.297 71.3767 105.385C71.4669 105.473 71.5389 105.577 71.5885 105.693C71.6382 105.809 71.6645 105.933 71.6661 106.059Z" fill="white"/>
<path d="M70.1489 106.581C70.2546 106.692 70.391 106.769 70.5406 106.802C70.6903 106.835 70.8464 106.823 70.9891 106.767C71.1318 106.711 71.2545 106.614 71.3416 106.488C71.4287 106.361 71.4762 106.212 71.4781 106.059C71.476 105.877 71.4069 105.702 71.2839 105.567C70.8842 105.881 70.5051 106.219 70.1489 106.581Z" fill="#263238"/>
<path d="M75.4533 106.059C75.4569 106.251 75.4034 106.439 75.2996 106.6C75.1958 106.761 75.0464 106.888 74.8704 106.964C74.6944 107.039 74.4998 107.061 74.3115 107.026C74.1231 106.991 73.9495 106.9 73.8127 106.766C73.6759 106.632 73.5822 106.46 73.5434 106.272C73.5047 106.085 73.5227 105.89 73.5952 105.712C73.6676 105.535 73.7913 105.383 73.9504 105.276C74.1094 105.17 74.2967 105.112 74.4883 105.112C74.614 105.111 74.7387 105.134 74.8553 105.181C74.9719 105.228 75.0781 105.297 75.1678 105.385C75.2575 105.473 75.3289 105.578 75.3779 105.694C75.4269 105.809 75.4525 105.934 75.4533 106.059Z" fill="white"/>
<path d="M73.93 106.581C74.0024 106.656 74.0892 106.715 74.1851 106.756C74.281 106.797 74.3841 106.818 74.4883 106.818C74.5887 106.818 74.6883 106.799 74.7814 106.762C74.8745 106.724 74.9593 106.668 75.0308 106.598C75.1024 106.527 75.1594 106.444 75.1986 106.351C75.2377 106.259 75.2583 106.159 75.2591 106.059C75.2594 105.876 75.1899 105.7 75.0649 105.567C74.6652 105.881 74.2861 106.219 73.93 106.581Z" fill="#263238"/>
<path d="M79.2343 106.059C79.238 106.251 79.1844 106.439 79.0806 106.6C78.9768 106.761 78.8274 106.888 78.6514 106.964C78.4754 107.039 78.2809 107.061 78.0925 107.026C77.9041 106.991 77.7305 106.9 77.5937 106.766C77.4569 106.632 77.3632 106.46 77.3245 106.272C77.2857 106.085 77.3037 105.89 77.3762 105.712C77.4487 105.535 77.5723 105.383 77.7314 105.276C77.8905 105.17 78.0777 105.112 78.2694 105.112C78.395 105.111 78.5197 105.134 78.6363 105.181C78.7529 105.228 78.8591 105.297 78.9488 105.385C79.0385 105.473 79.1099 105.578 79.1589 105.694C79.2079 105.809 79.2336 105.934 79.2343 106.059Z" fill="white"/>
<path d="M77.7353 106.581C77.8418 106.691 77.9785 106.767 78.1282 106.8C78.278 106.833 78.434 106.82 78.5767 106.765C78.7194 106.709 78.8425 106.612 78.9303 106.486C79.0182 106.361 79.067 106.212 79.0705 106.059C79.0685 105.877 78.9993 105.702 78.8763 105.567C78.4748 105.881 78.0937 106.219 77.7353 106.581Z" fill="#263238"/>
<path d="M83.0155 106.059C83.0191 106.251 82.9656 106.439 82.8618 106.6C82.758 106.761 82.6085 106.888 82.4326 106.964C82.2566 107.039 82.062 107.061 81.8736 107.026C81.6853 106.991 81.5116 106.9 81.3748 106.766C81.238 106.632 81.1443 106.46 81.1056 106.272C81.0668 106.085 81.0849 105.89 81.1573 105.712C81.2298 105.535 81.3535 105.383 81.5125 105.276C81.6716 105.17 81.8589 105.112 82.0505 105.112C82.1761 105.111 82.3008 105.134 82.4174 105.181C82.5341 105.228 82.6403 105.297 82.73 105.385C82.8197 105.473 82.8911 105.578 82.9401 105.694C82.9891 105.809 83.0147 105.934 83.0155 106.059Z" fill="white"/>
<path d="M81.492 106.581C81.5647 106.656 81.6515 106.715 81.7474 106.756C81.8432 106.796 81.9463 106.817 82.0504 106.818C82.1513 106.819 82.2516 106.801 82.3454 106.764C82.4391 106.726 82.5246 106.671 82.5968 106.6C82.6691 106.53 82.7266 106.445 82.7661 106.353C82.8057 106.26 82.8265 106.16 82.8272 106.059C82.8252 105.877 82.756 105.702 82.633 105.567C82.2315 105.881 81.8504 106.219 81.492 106.581Z" fill="#263238"/>
<path d="M86.7965 106.059C86.8001 106.251 86.7466 106.439 86.6428 106.6C86.539 106.761 86.3896 106.888 86.2136 106.964C86.0376 107.039 85.843 107.061 85.6546 107.026C85.4663 106.991 85.2926 106.9 85.1559 106.766C85.0191 106.632 84.9253 106.46 84.8866 106.272C84.8479 106.085 84.8659 105.89 84.9384 105.712C85.0108 105.535 85.1345 105.383 85.2935 105.276C85.4526 105.17 85.6399 105.112 85.8315 105.112C85.9571 105.111 86.0819 105.134 86.1985 105.181C86.3151 105.228 86.4213 105.297 86.511 105.385C86.6007 105.473 86.6721 105.578 86.7211 105.694C86.7701 105.809 86.7957 105.934 86.7965 106.059Z" fill="white"/>
<path d="M85.2792 106.581C85.3849 106.692 85.5213 106.769 85.6709 106.802C85.8206 106.835 85.9767 106.823 86.1194 106.767C86.2621 106.711 86.3848 106.614 86.4719 106.488C86.559 106.361 86.6065 106.212 86.6084 106.059C86.6063 105.877 86.5372 105.702 86.4142 105.567C86.0145 105.881 85.6354 106.219 85.2792 106.581Z" fill="#263238"/>
<path d="M90.5836 106.059C90.5885 106.252 90.5355 106.443 90.4315 106.606C90.3275 106.769 90.1772 106.897 89.9999 106.974C89.8226 107.051 89.6263 107.073 89.4362 107.038C89.2461 107.003 89.0708 106.912 88.9328 106.777C88.7948 106.641 88.7004 106.468 88.6616 106.278C88.6228 106.089 88.6414 105.892 88.7151 105.713C88.7887 105.535 88.9141 105.382 89.0751 105.275C89.236 105.168 89.4253 105.111 89.6186 105.112C89.7443 105.111 89.869 105.134 89.9856 105.181C90.1022 105.228 90.2084 105.297 90.2981 105.385C90.3878 105.473 90.4592 105.578 90.5082 105.694C90.5572 105.809 90.5828 105.934 90.5836 106.059Z" fill="white"/>
<path d="M89.0603 106.581C89.1659 106.692 89.3023 106.769 89.4519 106.802C89.6016 106.835 89.7577 106.823 89.9004 106.767C90.0431 106.711 90.1658 106.614 90.2529 106.488C90.34 106.361 90.3876 106.212 90.3894 106.059C90.3897 105.876 90.3202 105.7 90.1952 105.567C89.7955 105.881 89.4165 106.219 89.0603 106.581Z" fill="#263238"/>
<path d="M94.3646 106.059C94.3682 106.251 94.3147 106.439 94.2109 106.6C94.1071 106.761 93.9577 106.888 93.7817 106.964C93.6057 107.039 93.4112 107.061 93.2228 107.026C93.0344 106.991 92.8608 106.9 92.724 106.766C92.5872 106.632 92.4935 106.46 92.4547 106.272C92.416 106.085 92.434 105.89 92.5065 105.712C92.579 105.535 92.7026 105.383 92.8617 105.276C93.0207 105.17 93.208 105.112 93.3996 105.112C93.5253 105.111 93.65 105.134 93.7666 105.181C93.8832 105.228 93.9894 105.297 94.0791 105.385C94.1688 105.473 94.2402 105.578 94.2892 105.694C94.3382 105.809 94.3638 105.934 94.3646 106.059Z" fill="white"/>
<path d="M92.8413 106.581C92.9478 106.691 93.0845 106.767 93.2342 106.8C93.3839 106.833 93.54 106.82 93.6827 106.765C93.8254 106.709 93.9485 106.612 94.0363 106.486C94.1242 106.361 94.173 106.212 94.1765 106.059C94.1744 105.877 94.1053 105.702 93.9823 105.567C93.5794 105.879 93.1982 106.218 92.8413 106.581Z" fill="#263238"/>
<path d="M98.1458 106.059C98.1494 106.251 98.0959 106.439 97.992 106.6C97.8882 106.761 97.7388 106.888 97.5628 106.964C97.3869 107.039 97.1923 107.061 97.0039 107.026C96.8155 106.991 96.6419 106.9 96.5051 106.766C96.3683 106.632 96.2746 106.46 96.2359 106.272C96.1971 106.085 96.2151 105.89 96.2876 105.712C96.3601 105.535 96.4837 105.383 96.6428 105.276C96.8019 105.17 96.9891 105.112 97.1808 105.112C97.3064 105.111 97.4311 105.134 97.5477 105.181C97.6643 105.228 97.7705 105.297 97.8602 105.385C97.9499 105.473 98.0213 105.578 98.0703 105.694C98.1193 105.809 98.145 105.934 98.1458 106.059Z" fill="white"/>
<path d="M96.6223 106.581C96.695 106.656 96.7818 106.715 96.8777 106.756C96.9735 106.796 97.0765 106.817 97.1807 106.818C97.2816 106.819 97.3819 106.801 97.4756 106.764C97.5694 106.726 97.6549 106.671 97.7271 106.6C97.7993 106.53 97.8569 106.445 97.8964 106.353C97.936 106.26 97.9567 106.16 97.9575 106.059C97.9555 105.877 97.8863 105.702 97.7633 105.567C97.3618 105.881 96.9807 106.219 96.6223 106.581Z" fill="#263238"/>
<path d="M48.9738 112.074C48.9786 112.265 48.9262 112.454 48.8231 112.616C48.72 112.778 48.5711 112.905 48.3952 112.982C48.2194 113.059 48.0246 113.082 47.8359 113.047C47.6471 113.013 47.4729 112.923 47.3355 112.789C47.1981 112.655 47.1038 112.483 47.0645 112.295C47.0253 112.107 47.0429 111.912 47.1152 111.734C47.1875 111.557 47.3111 111.404 47.4703 111.297C47.6294 111.19 47.8169 111.133 48.0088 111.133C48.134 111.131 48.2582 111.154 48.3744 111.201C48.4906 111.247 48.5965 111.316 48.6862 111.403C48.7758 111.491 48.8473 111.595 48.8966 111.71C48.946 111.825 48.9722 111.948 48.9738 112.074Z" fill="white"/>
<path d="M47.4565 112.602C47.5276 112.677 47.6132 112.737 47.7082 112.778C47.8032 112.818 47.9055 112.839 48.0088 112.839C48.11 112.84 48.2104 112.821 48.3042 112.783C48.398 112.745 48.4835 112.689 48.5556 112.618C48.6277 112.547 48.6852 112.462 48.7246 112.369C48.7641 112.276 48.7848 112.176 48.7856 112.074C48.7821 111.894 48.7131 111.722 48.5914 111.589C48.1905 111.9 47.8113 112.239 47.4565 112.602Z" fill="#263238"/>
<path d="M52.7609 112.074C52.7669 112.267 52.7152 112.457 52.6122 112.621C52.5092 112.785 52.3598 112.914 52.183 112.992C52.0061 113.07 51.81 113.094 51.6197 113.06C51.4294 113.026 51.2535 112.936 51.1147 112.801C50.9758 112.667 50.8803 112.494 50.8403 112.305C50.8003 112.116 50.8176 111.919 50.8902 111.74C50.9627 111.56 51.0871 111.407 51.2473 111.299C51.4076 111.191 51.5965 111.133 51.7898 111.133C52.0431 111.13 52.2874 111.227 52.4694 111.403C52.6513 111.579 52.7561 111.82 52.7609 112.074Z" fill="white"/>
<path d="M51.2375 112.602C51.3086 112.677 51.3943 112.737 51.4892 112.778C51.5842 112.818 51.6865 112.839 51.7898 112.839C51.891 112.84 51.9914 112.821 52.0853 112.783C52.1791 112.745 52.2645 112.689 52.3366 112.618C52.4088 112.547 52.4662 112.462 52.5057 112.369C52.5452 112.276 52.5659 112.176 52.5667 112.074C52.5631 111.894 52.4941 111.722 52.3725 111.589C51.9728 111.902 51.5937 112.241 51.2375 112.602Z" fill="#263238"/>
<path d="M56.5419 112.074C56.548 112.267 56.4961 112.458 56.3928 112.622C56.2896 112.786 56.1398 112.915 55.9626 112.993C55.7854 113.071 55.589 113.094 55.3985 113.059C55.208 113.025 55.0321 112.934 54.8935 112.799C54.7549 112.664 54.6598 112.491 54.6205 112.301C54.5812 112.112 54.5995 111.915 54.6729 111.735C54.7464 111.556 54.8717 111.403 55.0328 111.296C55.1939 111.189 55.3834 111.132 55.577 111.133C55.7021 111.131 55.8263 111.154 55.9425 111.201C56.0588 111.247 56.1647 111.316 56.2543 111.403C56.3439 111.491 56.4154 111.595 56.4648 111.71C56.5141 111.825 56.5404 111.948 56.5419 112.074Z" fill="white"/>
<path d="M55.0186 112.602C55.1246 112.714 55.2615 112.791 55.4117 112.824C55.5619 112.857 55.7186 112.844 55.8615 112.787C56.0044 112.731 56.1271 112.632 56.2137 112.505C56.3004 112.378 56.347 112.228 56.3477 112.074C56.3471 111.894 56.2776 111.72 56.1535 111.589C55.7538 111.902 55.3747 112.241 55.0186 112.602Z" fill="#263238"/>
<path d="M60.323 112.074C60.3278 112.265 60.2753 112.454 60.1723 112.616C60.0692 112.778 59.9203 112.905 59.7444 112.982C59.5686 113.059 59.3738 113.082 59.1851 113.047C58.9963 113.013 58.8221 112.923 58.6847 112.789C58.5473 112.655 58.453 112.483 58.4137 112.295C58.3745 112.107 58.3921 111.912 58.4644 111.734C58.5366 111.557 58.6603 111.404 58.8194 111.297C58.9786 111.19 59.1661 111.133 59.358 111.133C59.4831 111.131 59.6074 111.154 59.7236 111.201C59.8398 111.247 59.9457 111.316 60.0353 111.403C60.125 111.491 60.1965 111.595 60.2458 111.71C60.2952 111.825 60.3214 111.948 60.323 112.074Z" fill="white"/>
<path d="M58.7996 112.602C58.9065 112.713 59.0437 112.789 59.194 112.822C59.3442 112.854 59.5008 112.841 59.6437 112.785C59.7867 112.728 59.9097 112.631 59.9971 112.504C60.0845 112.378 60.1324 112.228 60.1348 112.074C60.1313 111.894 60.0622 111.722 59.9406 111.589C59.5377 111.9 59.1565 112.239 58.7996 112.602Z" fill="#263238"/>
<path d="M64.1041 112.074C64.1089 112.265 64.0565 112.454 63.9534 112.616C63.8503 112.778 63.7014 112.905 63.5255 112.982C63.3497 113.059 63.1549 113.082 62.9662 113.047C62.7774 113.013 62.6032 112.923 62.4658 112.789C62.3284 112.655 62.2341 112.483 62.1948 112.295C62.1556 112.107 62.1732 111.912 62.2455 111.734C62.3178 111.557 62.4414 111.404 62.6005 111.297C62.7597 111.19 62.9472 111.133 63.1391 111.133C63.2642 111.131 63.3885 111.154 63.5047 111.201C63.6209 111.247 63.7268 111.316 63.8165 111.403C63.9061 111.491 63.9776 111.595 64.0269 111.71C64.0763 111.825 64.1025 111.948 64.1041 112.074Z" fill="white"/>
<path d="M62.5625 112.602C62.6351 112.677 62.7219 112.736 62.8178 112.777C62.9137 112.818 63.0167 112.839 63.1208 112.839C63.222 112.84 63.3224 112.821 63.4163 112.783C63.5101 112.745 63.5955 112.689 63.6676 112.618C63.7398 112.547 63.7972 112.462 63.8367 112.369C63.8762 112.276 63.8969 112.176 63.8977 112.074C63.8941 111.894 63.8251 111.722 63.7035 111.589C63.3019 111.902 62.9208 112.241 62.5625 112.602Z" fill="#263238"/>
<path d="M67.8851 112.074C67.8899 112.265 67.8375 112.454 67.7344 112.616C67.6314 112.778 67.4824 112.905 67.3065 112.982C67.1307 113.059 66.9359 113.082 66.7472 113.047C66.5584 113.013 66.3842 112.923 66.2468 112.789C66.1094 112.655 66.0151 112.483 65.9758 112.295C65.9366 112.107 65.9542 111.912 66.0265 111.734C66.0988 111.557 66.2224 111.404 66.3816 111.297C66.5408 111.19 66.7282 111.133 66.9201 111.133C67.0453 111.131 67.1695 111.154 67.2857 111.201C67.4019 111.247 67.5079 111.316 67.5975 111.403C67.6871 111.491 67.7586 111.595 67.808 111.71C67.8573 111.825 67.8835 111.948 67.8851 112.074Z" fill="white"/>
<path d="M66.3678 112.602C66.4389 112.677 66.5246 112.737 66.6195 112.778C66.7145 112.818 66.8168 112.839 66.9201 112.839C67.0213 112.84 67.1217 112.821 67.2155 112.783C67.3094 112.745 67.3948 112.689 67.4669 112.618C67.5391 112.547 67.5965 112.462 67.636 112.369C67.6754 112.276 67.6962 112.176 67.697 112.074C67.6934 111.894 67.6244 111.722 67.5028 111.589C67.1018 111.9 66.7226 112.239 66.3678 112.602Z" fill="#263238"/>
<path d="M71.6661 112.074C71.6722 112.267 71.6204 112.457 71.5174 112.621C71.4145 112.785 71.265 112.914 71.0882 112.992C70.9114 113.07 70.7153 113.094 70.5249 113.06C70.3346 113.026 70.1588 112.936 70.0199 112.801C69.881 112.667 69.7855 112.494 69.7455 112.305C69.7055 112.116 69.7229 111.919 69.7954 111.74C69.8679 111.56 69.9923 111.407 70.1526 111.299C70.3129 111.191 70.5018 111.133 70.6951 111.133C70.9484 111.13 71.1927 111.227 71.3746 111.403C71.5566 111.579 71.6614 111.82 71.6661 112.074Z" fill="white"/>
<path d="M70.1489 112.602C70.22 112.677 70.3057 112.737 70.4007 112.778C70.4956 112.818 70.5979 112.839 70.7012 112.839C70.8025 112.84 70.9028 112.821 70.9967 112.783C71.0905 112.745 71.1759 112.689 71.248 112.618C71.3202 112.547 71.3776 112.462 71.4171 112.369C71.4566 112.276 71.4773 112.176 71.4781 112.074C71.4746 111.894 71.4055 111.722 71.2839 111.589C70.8842 111.902 70.5051 112.241 70.1489 112.602Z" fill="#263238"/>
<path d="M75.4534 112.074C75.4582 112.265 75.4057 112.454 75.3027 112.616C75.1996 112.778 75.0506 112.905 74.8748 112.982C74.6989 113.059 74.5042 113.082 74.3154 113.047C74.1267 113.013 73.9525 112.923 73.8151 112.789C73.6777 112.655 73.5833 112.483 73.5441 112.295C73.5048 112.107 73.5225 111.912 73.5947 111.734C73.667 111.557 73.7906 111.404 73.9498 111.297C74.109 111.19 74.2965 111.133 74.4884 111.133C74.6135 111.131 74.7377 111.154 74.8539 111.201C74.9702 111.247 75.0761 111.316 75.1657 111.403C75.2553 111.491 75.3268 111.595 75.3762 111.71C75.4256 111.825 75.4518 111.948 75.4534 112.074Z" fill="white"/>
<path d="M73.93 112.602C74.036 112.714 74.1729 112.791 74.3231 112.824C74.4733 112.857 74.63 112.844 74.7729 112.787C74.9158 112.731 75.0385 112.632 75.1251 112.505C75.2118 112.378 75.2584 112.228 75.2591 112.074C75.2585 111.894 75.189 111.72 75.0649 111.589C74.6652 111.902 74.2861 112.241 73.93 112.602Z" fill="#263238"/>
<path d="M79.2344 112.074C79.2392 112.265 79.1868 112.454 79.0837 112.616C78.9806 112.778 78.8317 112.905 78.6558 112.982C78.48 113.059 78.2852 113.082 78.0965 113.047C77.9077 113.013 77.7335 112.923 77.5961 112.789C77.4587 112.655 77.3644 112.483 77.3251 112.295C77.2859 112.107 77.3035 111.912 77.3758 111.734C77.4481 111.557 77.5717 111.404 77.7308 111.297C77.89 111.19 78.0775 111.133 78.2694 111.133C78.3945 111.131 78.5188 111.154 78.635 111.201C78.7512 111.247 78.8571 111.316 78.9467 111.403C79.0364 111.491 79.1079 111.595 79.1572 111.71C79.2066 111.825 79.2328 111.948 79.2344 112.074Z" fill="white"/>
<path d="M77.7353 112.602C77.8422 112.713 77.9794 112.789 78.1297 112.822C78.28 112.854 78.4365 112.841 78.5795 112.785C78.7224 112.728 78.8454 112.631 78.9328 112.504C79.0202 112.378 79.0681 112.228 79.0705 112.074C79.067 111.894 78.998 111.722 78.8763 111.589C78.4748 111.902 78.0937 112.241 77.7353 112.602Z" fill="#263238"/>
<path d="M83.0154 112.074C83.0202 112.265 82.9678 112.454 82.8647 112.616C82.7617 112.778 82.6127 112.905 82.4368 112.982C82.261 113.059 82.0663 113.082 81.8775 113.047C81.6887 113.013 81.5145 112.923 81.3771 112.789C81.2397 112.655 81.1454 112.483 81.1061 112.295C81.0669 112.107 81.0845 111.912 81.1568 111.734C81.2291 111.557 81.3527 111.404 81.5119 111.297C81.671 111.19 81.8586 111.133 82.0504 111.133C82.1756 111.131 82.2998 111.154 82.416 111.201C82.5322 111.247 82.6382 111.316 82.7278 111.403C82.8174 111.491 82.8889 111.595 82.9383 111.71C82.9876 111.825 83.0138 111.948 83.0154 112.074Z" fill="white"/>
<path d="M81.492 112.602C81.5647 112.677 81.6515 112.736 81.7474 112.777C81.8432 112.818 81.9463 112.839 82.0504 112.839C82.1516 112.84 82.252 112.821 82.3458 112.783C82.4396 112.745 82.5251 112.689 82.5972 112.618C82.6693 112.547 82.7268 112.462 82.7662 112.369C82.8057 112.276 82.8264 112.176 82.8272 112.074C82.8237 111.894 82.7547 111.722 82.633 111.589C82.2315 111.902 81.8504 112.241 81.492 112.602Z" fill="#263238"/>
<path d="M86.7965 112.074C86.8013 112.265 86.7489 112.454 86.6458 112.616C86.5428 112.778 86.3938 112.905 86.218 112.982C86.0421 113.059 85.8474 113.082 85.6586 113.047C85.4698 113.013 85.2956 112.923 85.1582 112.789C85.0208 112.655 84.9265 112.483 84.8873 112.295C84.848 112.107 84.8656 111.912 84.9379 111.734C85.0102 111.557 85.1338 111.404 85.293 111.297C85.4521 111.19 85.6397 111.133 85.8315 111.133C85.9567 111.131 86.0809 111.154 86.1971 111.201C86.3133 111.247 86.4193 111.316 86.5089 111.403C86.5985 111.491 86.67 111.595 86.7194 111.71C86.7687 111.825 86.7949 111.948 86.7965 112.074Z" fill="white"/>
<path d="M85.2792 112.602C85.3503 112.677 85.436 112.737 85.531 112.778C85.6259 112.818 85.7282 112.839 85.8315 112.839C85.9327 112.84 86.0331 112.821 86.127 112.783C86.2208 112.745 86.3062 112.689 86.3783 112.618C86.4505 112.547 86.5079 112.462 86.5474 112.369C86.5869 112.276 86.6076 112.176 86.6084 112.074C86.6048 111.894 86.5358 111.722 86.4142 111.589C86.0145 111.902 85.6354 112.241 85.2792 112.602Z" fill="#263238"/>
<path d="M90.5836 112.074C90.5896 112.267 90.5377 112.458 90.4344 112.622C90.3312 112.786 90.1814 112.915 90.0042 112.993C89.827 113.071 89.6306 113.094 89.4401 113.059C89.2496 113.025 89.0737 112.934 88.9351 112.799C88.7965 112.664 88.7014 112.491 88.6621 112.301C88.6228 112.112 88.6411 111.915 88.7145 111.735C88.788 111.556 88.9133 111.403 89.0744 111.296C89.2355 111.189 89.425 111.132 89.6186 111.133C89.7437 111.131 89.8679 111.154 89.9841 111.201C90.1004 111.247 90.2063 111.316 90.2959 111.403C90.3855 111.491 90.457 111.595 90.5064 111.71C90.5558 111.825 90.582 111.948 90.5836 112.074Z" fill="white"/>
<path d="M89.0603 112.602C89.1663 112.714 89.3032 112.791 89.4534 112.824C89.6036 112.857 89.7603 112.844 89.9032 112.787C90.0461 112.731 90.1688 112.632 90.2554 112.505C90.3421 112.378 90.3887 112.228 90.3894 112.074C90.3888 111.894 90.3193 111.72 90.1952 111.589C89.7955 111.902 89.4165 112.241 89.0603 112.602Z" fill="#263238"/>
<path d="M94.3647 112.074C94.3695 112.265 94.317 112.454 94.214 112.616C94.1109 112.778 93.9619 112.905 93.7861 112.982C93.6103 113.059 93.4155 113.082 93.2267 113.047C93.038 113.013 92.8638 112.923 92.7264 112.789C92.589 112.655 92.4946 112.483 92.4554 112.295C92.4162 112.107 92.4338 111.912 92.5061 111.734C92.5783 111.557 92.7019 111.404 92.8611 111.297C93.0203 111.19 93.2078 111.133 93.3997 111.133C93.5248 111.131 93.649 111.154 93.7653 111.201C93.8815 111.247 93.9874 111.316 94.077 111.403C94.1666 111.491 94.2382 111.595 94.2875 111.71C94.3369 111.825 94.3631 111.948 94.3647 112.074Z" fill="white"/>
<path d="M92.8413 112.602C92.9482 112.713 93.0854 112.789 93.2357 112.822C93.3859 112.854 93.5425 112.841 93.6854 112.785C93.8284 112.728 93.9514 112.631 94.0388 112.504C94.1262 112.378 94.1741 112.228 94.1765 112.074C94.173 111.894 94.1039 111.722 93.9823 111.589C93.5794 111.9 93.1982 112.239 92.8413 112.602Z" fill="#263238"/>
<path d="M98.1457 112.074C98.1505 112.265 98.0981 112.454 97.995 112.616C97.892 112.778 97.743 112.905 97.5671 112.982C97.3913 113.059 97.1965 113.082 97.0078 113.047C96.819 113.013 96.6448 112.923 96.5074 112.789C96.37 112.655 96.2757 112.483 96.2364 112.295C96.1972 112.107 96.2148 111.912 96.2871 111.734C96.3594 111.557 96.483 111.404 96.6422 111.297C96.8013 111.19 96.9888 111.133 97.1807 111.133C97.3058 111.131 97.4301 111.154 97.5463 111.201C97.6625 111.247 97.7685 111.316 97.8581 111.403C97.9477 111.491 98.0192 111.595 98.0686 111.71C98.1179 111.825 98.1441 111.948 98.1457 112.074Z" fill="white"/>
<path d="M96.6223 112.602C96.695 112.677 96.7818 112.736 96.8777 112.777C96.9735 112.818 97.0765 112.839 97.1807 112.839C97.2819 112.84 97.3823 112.821 97.4761 112.783C97.5699 112.745 97.6553 112.689 97.7275 112.618C97.7996 112.547 97.8571 112.462 97.8965 112.369C97.936 112.276 97.9567 112.176 97.9575 112.074C97.954 111.894 97.8849 111.722 97.7633 111.589C97.3618 111.902 96.9807 112.241 96.6223 112.602Z" fill="#263238"/>
<path d="M140.053 106.059C140.057 106.251 140.003 106.439 139.899 106.6C139.795 106.761 139.646 106.888 139.47 106.964C139.294 107.039 139.1 107.061 138.911 107.026C138.723 106.991 138.549 106.9 138.412 106.766C138.276 106.632 138.182 106.46 138.143 106.272C138.104 106.085 138.122 105.89 138.195 105.712C138.267 105.535 138.391 105.383 138.55 105.276C138.709 105.17 138.896 105.112 139.088 105.112C139.214 105.111 139.338 105.134 139.455 105.181C139.572 105.228 139.678 105.297 139.767 105.385C139.857 105.473 139.929 105.578 139.978 105.694C140.027 105.809 140.052 105.934 140.053 106.059Z" fill="white"/>
<path d="M138.536 106.581C138.641 106.692 138.778 106.769 138.927 106.802C139.077 106.835 139.233 106.823 139.376 106.767C139.519 106.711 139.641 106.614 139.728 106.488C139.815 106.361 139.863 106.212 139.865 106.059C139.863 105.877 139.794 105.702 139.671 105.567C139.271 105.881 138.892 106.219 138.536 106.581Z" fill="#263238"/>
<path d="M143.84 106.059C143.845 106.252 143.792 106.443 143.688 106.606C143.584 106.769 143.434 106.897 143.256 106.974C143.079 107.051 142.883 107.073 142.693 107.038C142.503 107.003 142.327 106.912 142.189 106.777C142.051 106.641 141.957 106.468 141.918 106.278C141.879 106.089 141.898 105.892 141.972 105.713C142.045 105.535 142.171 105.382 142.332 105.275C142.493 105.168 142.682 105.111 142.875 105.112C143.001 105.111 143.125 105.134 143.242 105.181C143.359 105.228 143.465 105.297 143.555 105.385C143.644 105.473 143.716 105.578 143.765 105.694C143.814 105.809 143.839 105.934 143.84 106.059Z" fill="white"/>
<path d="M142.317 106.581C142.422 106.692 142.559 106.769 142.708 106.802C142.858 106.835 143.014 106.823 143.157 106.767C143.3 106.711 143.422 106.614 143.509 106.488C143.596 106.361 143.644 106.212 143.646 106.059C143.646 105.876 143.577 105.7 143.452 105.567C143.052 105.881 142.673 106.219 142.317 106.581Z" fill="#263238"/>
<path d="M147.621 106.059C147.625 106.251 147.571 106.439 147.467 106.6C147.364 106.761 147.214 106.888 147.038 106.964C146.862 107.039 146.668 107.061 146.479 107.026C146.291 106.991 146.117 106.9 145.981 106.766C145.844 106.632 145.75 106.46 145.711 106.272C145.673 106.085 145.691 105.89 145.763 105.712C145.836 105.535 145.959 105.383 146.118 105.276C146.277 105.17 146.465 105.112 146.656 105.112C146.782 105.111 146.907 105.134 147.023 105.181C147.14 105.228 147.246 105.297 147.336 105.385C147.425 105.473 147.497 105.578 147.546 105.694C147.595 105.809 147.62 105.934 147.621 106.059Z" fill="white"/>
<path d="M146.098 106.581C146.204 106.691 146.341 106.767 146.491 106.8C146.64 106.833 146.797 106.82 146.939 106.765C147.082 106.709 147.205 106.612 147.293 106.486C147.381 106.361 147.429 106.212 147.433 106.059C147.431 105.877 147.362 105.702 147.239 105.567C146.836 105.879 146.455 106.218 146.098 106.581Z" fill="#263238"/>
<path d="M151.402 106.059C151.406 106.251 151.352 106.439 151.249 106.6C151.145 106.761 150.995 106.888 150.819 106.964C150.643 107.039 150.449 107.061 150.26 107.026C150.072 106.991 149.898 106.9 149.762 106.766C149.625 106.632 149.531 106.46 149.492 106.272C149.454 106.085 149.472 105.89 149.544 105.712C149.617 105.535 149.74 105.383 149.899 105.276C150.058 105.17 150.246 105.112 150.437 105.112C150.563 105.111 150.688 105.134 150.804 105.181C150.921 105.228 151.027 105.297 151.117 105.385C151.206 105.473 151.278 105.578 151.327 105.694C151.376 105.809 151.401 105.934 151.402 106.059Z" fill="white"/>
<path d="M149.879 106.581C149.952 106.656 150.038 106.715 150.134 106.756C150.23 106.796 150.333 106.817 150.437 106.818C150.538 106.819 150.638 106.801 150.732 106.764C150.826 106.726 150.911 106.671 150.984 106.6C151.056 106.53 151.113 106.445 151.153 106.353C151.193 106.26 151.213 106.16 151.214 106.059C151.212 105.877 151.143 105.702 151.02 105.567C150.618 105.881 150.237 106.219 149.879 106.581Z" fill="#263238"/>
<path d="M155.183 106.059C155.187 106.251 155.133 106.439 155.03 106.6C154.926 106.761 154.776 106.888 154.6 106.964C154.424 107.039 154.23 107.061 154.041 107.026C153.853 106.991 153.679 106.9 153.543 106.766C153.406 106.632 153.312 106.46 153.273 106.272C153.235 106.085 153.253 105.89 153.325 105.712C153.398 105.535 153.521 105.383 153.68 105.276C153.839 105.17 154.027 105.112 154.218 105.112C154.344 105.111 154.469 105.134 154.585 105.181C154.702 105.228 154.808 105.297 154.898 105.385C154.987 105.473 155.059 105.578 155.108 105.694C155.157 105.809 155.182 105.934 155.183 106.059Z" fill="white"/>
<path d="M153.666 106.581C153.772 106.692 153.908 106.769 154.058 106.802C154.207 106.835 154.363 106.823 154.506 106.767C154.649 106.711 154.772 106.614 154.859 106.488C154.946 106.361 154.993 106.212 154.995 106.059C154.993 105.877 154.924 105.702 154.801 105.567C154.4 105.879 154.021 106.218 153.666 106.581Z" fill="#263238"/>
<path d="M158.97 106.059C158.975 106.252 158.922 106.442 158.819 106.605C158.715 106.768 158.565 106.896 158.388 106.973C158.211 107.051 158.015 107.073 157.825 107.039C157.635 107.004 157.46 106.914 157.322 106.779C157.183 106.644 157.089 106.471 157.049 106.282C157.01 106.093 157.027 105.897 157.1 105.718C157.173 105.539 157.297 105.386 157.457 105.278C157.618 105.17 157.806 105.112 157.999 105.112C158.125 105.111 158.25 105.134 158.367 105.181C158.484 105.227 158.591 105.297 158.681 105.385C158.771 105.473 158.843 105.577 158.893 105.693C158.942 105.809 158.969 105.933 158.97 106.059Z" fill="white"/>
<path d="M157.447 106.581C157.553 106.692 157.689 106.769 157.839 106.802C157.988 106.835 158.145 106.823 158.287 106.767C158.43 106.711 158.553 106.614 158.64 106.488C158.727 106.361 158.774 106.212 158.776 106.059C158.774 105.877 158.705 105.702 158.582 105.567C158.182 105.881 157.803 106.219 157.447 106.581Z" fill="#263238"/>
<path d="M162.751 106.059C162.756 106.252 162.703 106.443 162.599 106.606C162.495 106.769 162.345 106.897 162.168 106.974C161.99 107.051 161.794 107.073 161.604 107.038C161.414 107.003 161.239 106.912 161.101 106.777C160.963 106.641 160.868 106.468 160.829 106.278C160.791 106.089 160.809 105.892 160.883 105.713C160.957 105.535 161.082 105.382 161.243 105.275C161.404 105.168 161.593 105.111 161.786 105.112C161.912 105.111 162.037 105.134 162.153 105.181C162.27 105.228 162.376 105.297 162.466 105.385C162.556 105.473 162.627 105.578 162.676 105.694C162.725 105.809 162.751 105.934 162.751 106.059Z" fill="white"/>
<path d="M161.228 106.581C161.334 106.692 161.47 106.769 161.62 106.802C161.769 106.835 161.926 106.823 162.068 106.767C162.211 106.711 162.334 106.614 162.421 106.488C162.508 106.361 162.555 106.212 162.557 106.059C162.558 105.876 162.488 105.7 162.363 105.567C161.963 105.881 161.584 106.219 161.228 106.581Z" fill="#263238"/>
<path d="M166.533 106.059C166.536 106.251 166.483 106.439 166.379 106.6C166.275 106.761 166.126 106.888 165.95 106.964C165.774 107.039 165.579 107.061 165.391 107.026C165.202 106.991 165.029 106.9 164.892 106.766C164.755 106.632 164.661 106.46 164.623 106.272C164.584 106.085 164.602 105.89 164.674 105.712C164.747 105.535 164.871 105.383 165.03 105.276C165.189 105.17 165.376 105.112 165.568 105.112C165.693 105.111 165.818 105.134 165.935 105.181C166.051 105.228 166.157 105.297 166.247 105.385C166.337 105.473 166.408 105.578 166.457 105.694C166.506 105.809 166.532 105.934 166.533 106.059Z" fill="white"/>
<path d="M165.009 106.581C165.116 106.691 165.252 106.767 165.402 106.8C165.552 106.833 165.708 106.82 165.851 106.765C165.993 106.709 166.116 106.612 166.204 106.486C166.292 106.361 166.341 106.212 166.344 106.059C166.342 105.877 166.273 105.702 166.15 105.567C165.747 105.879 165.366 106.218 165.009 106.581Z" fill="#263238"/>
<path d="M170.314 106.059C170.317 106.251 170.264 106.439 170.16 106.6C170.056 106.761 169.907 106.888 169.731 106.964C169.555 107.039 169.36 107.061 169.172 107.026C168.983 106.991 168.81 106.9 168.673 106.766C168.536 106.632 168.442 106.46 168.404 106.272C168.365 106.085 168.383 105.89 168.456 105.712C168.528 105.535 168.652 105.383 168.811 105.276C168.97 105.17 169.157 105.112 169.349 105.112C169.474 105.111 169.599 105.134 169.716 105.181C169.832 105.228 169.938 105.297 170.028 105.385C170.118 105.473 170.189 105.578 170.238 105.694C170.287 105.809 170.313 105.934 170.314 106.059Z" fill="white"/>
<path d="M168.772 106.581C168.845 106.656 168.931 106.715 169.027 106.756C169.123 106.796 169.226 106.817 169.33 106.818C169.431 106.819 169.532 106.801 169.625 106.764C169.719 106.726 169.805 106.671 169.877 106.6C169.949 106.53 170.007 106.445 170.046 106.353C170.086 106.26 170.106 106.16 170.107 106.059C170.105 105.877 170.036 105.702 169.913 105.567C169.511 105.881 169.13 106.219 168.772 106.581Z" fill="#263238"/>
<path d="M174.095 106.059C174.098 106.251 174.045 106.439 173.941 106.6C173.837 106.761 173.688 106.888 173.512 106.964C173.336 107.039 173.141 107.061 172.953 107.026C172.764 106.991 172.591 106.9 172.454 106.766C172.317 106.632 172.224 106.46 172.185 106.272C172.146 106.085 172.164 105.89 172.237 105.712C172.309 105.535 172.433 105.383 172.592 105.276C172.751 105.17 172.938 105.112 173.13 105.112C173.255 105.111 173.38 105.134 173.497 105.181C173.613 105.228 173.719 105.297 173.809 105.385C173.899 105.473 173.97 105.578 174.019 105.694C174.068 105.809 174.094 105.934 174.095 106.059Z" fill="white"/>
<path d="M172.577 106.581C172.683 106.692 172.819 106.769 172.969 106.802C173.119 106.835 173.275 106.823 173.418 106.767C173.56 106.711 173.683 106.614 173.77 106.488C173.857 106.361 173.905 106.212 173.907 106.059C173.904 105.877 173.835 105.702 173.712 105.567C173.311 105.879 172.932 106.218 172.577 106.581Z" fill="#263238"/>
<path d="M177.876 106.059C177.881 106.252 177.828 106.442 177.724 106.605C177.62 106.768 177.47 106.896 177.293 106.973C177.116 107.051 176.92 107.073 176.731 107.039C176.541 107.004 176.365 106.914 176.227 106.779C176.089 106.644 175.994 106.471 175.954 106.282C175.915 106.093 175.933 105.897 176.005 105.718C176.078 105.539 176.203 105.386 176.363 105.278C176.523 105.17 176.712 105.112 176.905 105.112C177.031 105.111 177.156 105.134 177.273 105.181C177.39 105.227 177.496 105.297 177.586 105.385C177.676 105.473 177.748 105.577 177.798 105.693C177.848 105.809 177.874 105.933 177.876 106.059Z" fill="white"/>
<path d="M176.358 106.581C176.464 106.692 176.6 106.769 176.75 106.802C176.9 106.835 177.056 106.823 177.199 106.767C177.341 106.711 177.464 106.614 177.551 106.488C177.638 106.361 177.686 106.212 177.688 106.059C177.686 105.877 177.616 105.702 177.493 105.567C177.094 105.881 176.715 106.219 176.358 106.581Z" fill="#263238"/>
<path d="M181.663 106.059C181.666 106.251 181.613 106.439 181.509 106.6C181.405 106.761 181.256 106.888 181.08 106.964C180.904 107.039 180.709 107.061 180.521 107.026C180.333 106.991 180.159 106.9 180.022 106.766C179.885 106.632 179.792 106.46 179.753 106.272C179.714 106.085 179.732 105.89 179.805 105.712C179.877 105.535 180.001 105.383 180.16 105.276C180.319 105.17 180.506 105.112 180.698 105.112C180.823 105.111 180.948 105.134 181.065 105.181C181.181 105.228 181.288 105.297 181.377 105.385C181.467 105.473 181.538 105.578 181.587 105.694C181.636 105.809 181.662 105.934 181.663 106.059Z" fill="white"/>
<path d="M180.139 106.581C180.212 106.656 180.299 106.715 180.395 106.756C180.491 106.797 180.594 106.818 180.698 106.818C180.798 106.818 180.898 106.799 180.991 106.762C181.084 106.724 181.169 106.668 181.24 106.598C181.312 106.527 181.369 106.444 181.408 106.351C181.447 106.259 181.468 106.159 181.469 106.059C181.469 105.876 181.399 105.7 181.274 105.567C180.875 105.881 180.496 106.219 180.139 106.581Z" fill="#263238"/>
<path d="M185.444 106.059C185.448 106.251 185.394 106.439 185.29 106.6C185.186 106.761 185.037 106.888 184.861 106.964C184.685 107.039 184.49 107.061 184.302 107.026C184.114 106.991 183.94 106.9 183.803 106.766C183.666 106.632 183.573 106.46 183.534 106.272C183.495 106.085 183.513 105.89 183.586 105.712C183.658 105.535 183.782 105.383 183.941 105.276C184.1 105.17 184.287 105.112 184.479 105.112C184.605 105.111 184.729 105.134 184.846 105.181C184.963 105.228 185.069 105.297 185.158 105.385C185.248 105.473 185.319 105.578 185.368 105.694C185.417 105.809 185.443 105.934 185.444 106.059Z" fill="white"/>
<path d="M183.945 106.581C184.051 106.691 184.188 106.767 184.338 106.8C184.487 106.833 184.643 106.82 184.786 106.765C184.929 106.709 185.052 106.612 185.14 106.486C185.228 106.361 185.276 106.212 185.28 106.059C185.278 105.877 185.209 105.702 185.086 105.567C184.684 105.881 184.303 106.219 183.945 106.581Z" fill="#263238"/>
<path d="M189.225 106.059C189.229 106.251 189.175 106.439 189.071 106.6C188.967 106.761 188.818 106.888 188.642 106.964C188.466 107.039 188.271 107.061 188.083 107.026C187.895 106.991 187.721 106.9 187.584 106.766C187.448 106.632 187.354 106.46 187.315 106.272C187.276 106.085 187.294 105.89 187.367 105.712C187.439 105.535 187.563 105.383 187.722 105.276C187.881 105.17 188.068 105.112 188.26 105.112C188.386 105.111 188.51 105.134 188.627 105.181C188.744 105.228 188.85 105.297 188.939 105.385C189.029 105.473 189.101 105.578 189.15 105.694C189.199 105.809 189.224 105.934 189.225 106.059Z" fill="white"/>
<path d="M187.702 106.581C187.774 106.656 187.861 106.715 187.957 106.756C188.053 106.796 188.156 106.817 188.26 106.818C188.361 106.819 188.461 106.801 188.555 106.764C188.649 106.726 188.734 106.671 188.806 106.6C188.879 106.53 188.936 106.445 188.976 106.353C189.015 106.26 189.036 106.16 189.037 106.059C189.035 105.877 188.966 105.702 188.843 105.567C188.441 105.881 188.06 106.219 187.702 106.581Z" fill="#263238"/>
<path d="M140.053 112.074C140.058 112.265 140.005 112.454 139.902 112.616C139.799 112.778 139.65 112.905 139.474 112.982C139.299 113.059 139.104 113.082 138.915 113.047C138.726 113.013 138.552 112.923 138.415 112.789C138.277 112.655 138.183 112.483 138.144 112.295C138.104 112.107 138.122 111.912 138.194 111.734C138.267 111.557 138.39 111.404 138.549 111.297C138.709 111.19 138.896 111.133 139.088 111.133C139.213 111.131 139.337 111.154 139.454 111.201C139.57 111.247 139.676 111.316 139.765 111.403C139.855 111.491 139.926 111.595 139.976 111.71C140.025 111.825 140.051 111.948 140.053 112.074Z" fill="white"/>
<path d="M138.536 112.602C138.607 112.677 138.692 112.737 138.787 112.778C138.882 112.818 138.985 112.839 139.088 112.839C139.189 112.84 139.29 112.821 139.383 112.783C139.477 112.745 139.563 112.689 139.635 112.618C139.707 112.547 139.764 112.462 139.804 112.369C139.843 112.276 139.864 112.176 139.865 112.074C139.861 111.894 139.792 111.722 139.671 111.589C139.271 111.902 138.892 112.241 138.536 112.602Z" fill="#263238"/>
<path d="M143.84 112.074C143.846 112.267 143.794 112.458 143.691 112.622C143.588 112.786 143.438 112.915 143.261 112.993C143.084 113.071 142.887 113.094 142.697 113.059C142.506 113.025 142.33 112.934 142.192 112.799C142.053 112.664 141.958 112.491 141.919 112.301C141.879 112.112 141.898 111.915 141.971 111.735C142.045 111.556 142.17 111.403 142.331 111.296C142.492 111.189 142.682 111.132 142.875 111.133C143 111.131 143.124 111.154 143.241 111.201C143.357 111.247 143.463 111.316 143.552 111.403C143.642 111.491 143.714 111.595 143.763 111.71C143.812 111.825 143.839 111.948 143.84 112.074Z" fill="white"/>
<path d="M142.317 112.602C142.423 112.714 142.56 112.791 142.71 112.824C142.86 112.857 143.017 112.844 143.16 112.787C143.303 112.731 143.425 112.632 143.512 112.505C143.599 112.378 143.645 112.228 143.646 112.074C143.645 111.894 143.576 111.72 143.452 111.589C143.052 111.902 142.673 112.241 142.317 112.602Z" fill="#263238"/>
<path d="M147.621 112.074C147.626 112.265 147.574 112.454 147.471 112.616C147.367 112.778 147.218 112.905 147.043 112.982C146.867 113.059 146.672 113.082 146.483 113.047C146.295 113.013 146.12 112.923 145.983 112.789C145.846 112.655 145.751 112.483 145.712 112.295C145.673 112.107 145.69 111.912 145.763 111.734C145.835 111.557 145.958 111.404 146.118 111.297C146.277 111.19 146.464 111.133 146.656 111.133C146.781 111.131 146.906 111.154 147.022 111.201C147.138 111.247 147.244 111.316 147.334 111.403C147.423 111.491 147.495 111.595 147.544 111.71C147.593 111.825 147.62 111.948 147.621 112.074Z" fill="white"/>
<path d="M146.098 112.602C146.205 112.713 146.342 112.789 146.492 112.822C146.642 112.854 146.799 112.841 146.942 112.785C147.085 112.728 147.208 112.631 147.295 112.504C147.383 112.378 147.431 112.228 147.433 112.074C147.43 111.894 147.36 111.722 147.239 111.589C146.836 111.9 146.455 112.239 146.098 112.602Z" fill="#263238"/>
<path d="M151.402 112.074C151.407 112.265 151.355 112.454 151.252 112.616C151.149 112.778 151 112.905 150.824 112.982C150.648 113.059 150.453 113.082 150.264 113.047C150.076 113.013 149.901 112.923 149.764 112.789C149.627 112.655 149.532 112.483 149.493 112.295C149.454 112.107 149.471 111.912 149.544 111.734C149.616 111.557 149.74 111.404 149.899 111.297C150.058 111.19 150.245 111.133 150.437 111.133C150.562 111.131 150.687 111.154 150.803 111.201C150.919 111.247 151.025 111.316 151.115 111.403C151.204 111.491 151.276 111.595 151.325 111.71C151.374 111.825 151.401 111.948 151.402 112.074Z" fill="white"/>
<path d="M149.879 112.602C149.952 112.677 150.038 112.736 150.134 112.777C150.23 112.818 150.333 112.839 150.437 112.839C150.538 112.84 150.639 112.821 150.733 112.783C150.826 112.745 150.912 112.689 150.984 112.618C151.056 112.547 151.114 112.462 151.153 112.369C151.193 112.276 151.213 112.176 151.214 112.074C151.211 111.894 151.142 111.722 151.02 111.589C150.618 111.902 150.237 112.241 149.879 112.602Z" fill="#263238"/>
<path d="M155.183 112.074C155.188 112.265 155.136 112.454 155.033 112.616C154.93 112.778 154.781 112.905 154.605 112.982C154.429 113.059 154.234 113.082 154.045 113.047C153.857 113.013 153.682 112.923 153.545 112.789C153.408 112.655 153.313 112.483 153.274 112.295C153.235 112.107 153.252 111.912 153.325 111.734C153.397 111.557 153.521 111.404 153.68 111.297C153.839 111.19 154.026 111.133 154.218 111.133C154.343 111.131 154.468 111.154 154.584 111.201C154.7 111.247 154.806 111.316 154.896 111.403C154.985 111.491 155.057 111.595 155.106 111.71C155.156 111.825 155.182 111.948 155.183 112.074Z" fill="white"/>
<path d="M153.666 112.602C153.737 112.677 153.823 112.737 153.918 112.778C154.013 112.818 154.115 112.839 154.218 112.839C154.319 112.84 154.42 112.821 154.514 112.783C154.608 112.745 154.693 112.689 154.765 112.618C154.837 112.547 154.895 112.462 154.934 112.369C154.974 112.276 154.994 112.176 154.995 112.074C154.992 111.894 154.923 111.722 154.801 111.589C154.4 111.9 154.021 112.239 153.666 112.602Z" fill="#263238"/>
<path d="M158.97 112.074C158.976 112.267 158.925 112.457 158.822 112.621C158.719 112.785 158.569 112.914 158.393 112.992C158.216 113.07 158.02 113.094 157.829 113.06C157.639 113.026 157.463 112.936 157.324 112.801C157.185 112.667 157.09 112.494 157.05 112.305C157.01 112.116 157.027 111.919 157.1 111.74C157.172 111.56 157.297 111.407 157.457 111.299C157.617 111.191 157.806 111.133 157.999 111.133C158.253 111.13 158.497 111.227 158.679 111.403C158.861 111.579 158.966 111.82 158.97 112.074Z" fill="white"/>
<path d="M157.447 112.602C157.518 112.677 157.604 112.737 157.699 112.778C157.794 112.818 157.896 112.839 157.999 112.839C158.101 112.84 158.201 112.821 158.295 112.783C158.389 112.745 158.474 112.689 158.546 112.618C158.618 112.547 158.676 112.462 158.715 112.369C158.755 112.276 158.775 112.176 158.776 112.074C158.773 111.894 158.704 111.722 158.582 111.589C158.182 111.902 157.803 112.241 157.447 112.602Z" fill="#263238"/>
<path d="M162.751 112.074C162.757 112.267 162.706 112.458 162.602 112.622C162.499 112.786 162.349 112.915 162.172 112.993C161.995 113.071 161.798 113.094 161.608 113.059C161.417 113.025 161.242 112.934 161.103 112.799C160.964 112.664 160.869 112.491 160.83 112.301C160.791 112.112 160.809 111.915 160.882 111.735C160.956 111.556 161.081 111.403 161.242 111.296C161.403 111.189 161.593 111.132 161.786 111.133C161.912 111.131 162.036 111.154 162.152 111.201C162.268 111.247 162.374 111.316 162.464 111.403C162.553 111.491 162.625 111.595 162.674 111.71C162.724 111.825 162.75 111.948 162.751 112.074Z" fill="white"/>
<path d="M161.228 112.602C161.334 112.714 161.471 112.791 161.621 112.824C161.772 112.857 161.928 112.844 162.071 112.787C162.214 112.731 162.337 112.632 162.423 112.505C162.51 112.378 162.557 112.228 162.557 112.074C162.557 111.894 162.487 111.72 162.363 111.589C161.963 111.902 161.584 112.241 161.228 112.602Z" fill="#263238"/>
<path d="M166.533 112.074C166.537 112.265 166.485 112.454 166.382 112.616C166.279 112.778 166.13 112.905 165.954 112.982C165.778 113.059 165.583 113.082 165.395 113.047C165.206 113.013 165.032 112.923 164.894 112.789C164.757 112.655 164.663 112.483 164.623 112.295C164.584 112.107 164.602 111.912 164.674 111.734C164.746 111.557 164.87 111.404 165.029 111.297C165.188 111.19 165.376 111.133 165.568 111.133C165.693 111.131 165.817 111.154 165.933 111.201C166.049 111.247 166.155 111.316 166.245 111.403C166.335 111.491 166.406 111.595 166.455 111.71C166.505 111.825 166.531 111.948 166.533 112.074Z" fill="white"/>
<path d="M165.009 112.602C165.116 112.713 165.253 112.789 165.404 112.822C165.554 112.854 165.71 112.841 165.853 112.785C165.996 112.728 166.119 112.631 166.207 112.504C166.294 112.378 166.342 112.228 166.344 112.074C166.341 111.894 166.272 111.722 166.15 111.589C165.747 111.9 165.366 112.239 165.009 112.602Z" fill="#263238"/>
<path d="M170.314 112.074C170.318 112.265 170.266 112.454 170.163 112.616C170.06 112.778 169.911 112.905 169.735 112.982C169.559 113.059 169.364 113.082 169.176 113.047C168.987 113.013 168.813 112.923 168.675 112.789C168.538 112.655 168.444 112.483 168.404 112.295C168.365 112.107 168.383 111.912 168.455 111.734C168.527 111.557 168.651 111.404 168.81 111.297C168.969 111.19 169.157 111.133 169.349 111.133C169.474 111.131 169.598 111.154 169.714 111.201C169.83 111.247 169.936 111.316 170.026 111.403C170.116 111.491 170.187 111.595 170.236 111.71C170.286 111.825 170.312 111.948 170.314 112.074Z" fill="white"/>
<path d="M168.772 112.602C168.845 112.677 168.931 112.736 169.027 112.777C169.123 112.818 169.226 112.839 169.33 112.839C169.432 112.84 169.532 112.821 169.626 112.783C169.72 112.745 169.805 112.689 169.877 112.618C169.949 112.547 170.007 112.462 170.046 112.369C170.086 112.276 170.106 112.176 170.107 112.074C170.104 111.894 170.035 111.722 169.913 111.589C169.511 111.902 169.13 112.241 168.772 112.602Z" fill="#263238"/>
<path d="M174.095 112.074C174.099 112.265 174.047 112.454 173.944 112.616C173.841 112.778 173.692 112.905 173.516 112.982C173.34 113.059 173.145 113.082 172.957 113.047C172.768 113.013 172.594 112.923 172.456 112.789C172.319 112.655 172.225 112.483 172.185 112.295C172.146 112.107 172.164 111.912 172.236 111.734C172.308 111.557 172.432 111.404 172.591 111.297C172.75 111.19 172.938 111.133 173.13 111.133C173.255 111.131 173.379 111.154 173.495 111.201C173.611 111.247 173.717 111.316 173.807 111.403C173.897 111.491 173.968 111.595 174.018 111.71C174.067 111.825 174.093 111.948 174.095 112.074Z" fill="white"/>
<path d="M172.577 112.602C172.648 112.677 172.734 112.737 172.829 112.778C172.924 112.818 173.026 112.839 173.13 112.839C173.231 112.84 173.331 112.821 173.425 112.783C173.519 112.745 173.604 112.689 173.676 112.618C173.749 112.547 173.806 112.462 173.846 112.369C173.885 112.276 173.906 112.176 173.907 112.074C173.903 111.894 173.834 111.722 173.712 111.589C173.311 111.9 172.932 112.239 172.577 112.602Z" fill="#263238"/>
<path d="M177.876 112.074C177.882 112.267 177.83 112.457 177.727 112.621C177.624 112.785 177.475 112.914 177.298 112.992C177.121 113.07 176.925 113.094 176.735 113.06C176.544 113.026 176.368 112.936 176.229 112.801C176.091 112.667 175.995 112.494 175.955 112.305C175.915 112.116 175.932 111.919 176.005 111.74C176.078 111.56 176.202 111.407 176.362 111.299C176.522 111.191 176.711 111.133 176.905 111.133C177.158 111.13 177.402 111.227 177.584 111.403C177.766 111.579 177.871 111.82 177.876 112.074Z" fill="white"/>
<path d="M176.358 112.602C176.43 112.677 176.515 112.737 176.61 112.778C176.705 112.818 176.807 112.839 176.911 112.839C177.012 112.84 177.112 112.821 177.206 112.783C177.3 112.745 177.385 112.689 177.458 112.618C177.53 112.547 177.587 112.462 177.627 112.369C177.666 112.276 177.687 112.176 177.688 112.074C177.684 111.894 177.615 111.722 177.493 111.589C177.094 111.902 176.715 112.241 176.358 112.602Z" fill="#263238"/>
<path d="M181.663 112.074C181.668 112.265 181.615 112.454 181.512 112.616C181.409 112.778 181.26 112.905 181.084 112.982C180.908 113.059 180.714 113.082 180.525 113.047C180.336 113.013 180.162 112.923 180.025 112.789C179.887 112.655 179.793 112.483 179.754 112.295C179.714 112.107 179.732 111.912 179.804 111.734C179.877 111.557 180 111.404 180.159 111.297C180.318 111.19 180.506 111.133 180.698 111.133C180.823 111.131 180.947 111.154 181.063 111.201C181.18 111.247 181.286 111.316 181.375 111.403C181.465 111.491 181.536 111.595 181.586 111.71C181.635 111.825 181.661 111.948 181.663 112.074Z" fill="white"/>
<path d="M180.139 112.602C180.245 112.714 180.382 112.791 180.533 112.824C180.683 112.857 180.839 112.844 180.982 112.787C181.125 112.731 181.248 112.632 181.335 112.505C181.421 112.378 181.468 112.228 181.469 112.074C181.468 111.894 181.399 111.72 181.274 111.589C180.875 111.902 180.496 112.241 180.139 112.602Z" fill="#263238"/>
<path d="M185.444 112.074C185.449 112.265 185.396 112.454 185.293 112.616C185.19 112.778 185.041 112.905 184.865 112.982C184.689 113.059 184.495 113.082 184.306 113.047C184.117 113.013 183.943 112.923 183.806 112.789C183.668 112.655 183.574 112.483 183.535 112.295C183.495 112.107 183.513 111.912 183.585 111.734C183.658 111.557 183.781 111.404 183.94 111.297C184.1 111.19 184.287 111.133 184.479 111.133C184.604 111.131 184.728 111.154 184.845 111.201C184.961 111.247 185.067 111.316 185.156 111.403C185.246 111.491 185.317 111.595 185.367 111.71C185.416 111.825 185.442 111.948 185.444 112.074Z" fill="white"/>
<path d="M183.945 112.602C184.052 112.713 184.189 112.789 184.339 112.822C184.489 112.854 184.646 112.841 184.789 112.785C184.932 112.728 185.055 112.631 185.142 112.504C185.23 112.378 185.278 112.228 185.28 112.074C185.277 111.894 185.207 111.722 185.086 111.589C184.684 111.902 184.303 112.241 183.945 112.602Z" fill="#263238"/>
<path d="M189.225 112.074C189.23 112.265 189.177 112.454 189.074 112.616C188.971 112.778 188.822 112.905 188.646 112.982C188.471 113.059 188.276 113.082 188.087 113.047C187.898 113.013 187.724 112.923 187.587 112.789C187.449 112.655 187.355 112.483 187.316 112.295C187.276 112.107 187.294 111.912 187.366 111.734C187.439 111.557 187.562 111.404 187.721 111.297C187.881 111.19 188.068 111.133 188.26 111.133C188.385 111.131 188.509 111.154 188.626 111.201C188.742 111.247 188.848 111.316 188.937 111.403C189.027 111.491 189.098 111.595 189.148 111.71C189.197 111.825 189.223 111.948 189.225 112.074Z" fill="white"/>
<path d="M187.702 112.602C187.774 112.677 187.861 112.736 187.957 112.777C188.053 112.818 188.156 112.839 188.26 112.839C188.361 112.84 188.462 112.821 188.555 112.783C188.649 112.745 188.735 112.689 188.807 112.618C188.879 112.547 188.936 112.462 188.976 112.369C189.015 112.276 189.036 112.176 189.037 112.074C189.033 111.894 188.964 111.722 188.843 111.589C188.441 111.902 188.06 112.241 187.702 112.602Z" fill="#263238"/>
<path d="M133.213 101.393H103.954C103.318 101.393 102.708 101.144 102.254 100.699C101.8 100.254 101.539 99.6488 101.526 99.0134V85.5157C101.526 76.3088 109.179 68.8135 118.587 68.8135C127.994 68.8135 135.653 76.3088 135.653 85.5157V99.0134C135.64 99.6509 135.377 100.258 134.921 100.703C134.464 101.148 133.851 101.396 133.213 101.393ZM106.382 96.6586H130.779V85.5157C130.779 82.2803 129.494 79.1775 127.206 76.8897C124.919 74.602 121.816 73.3168 118.58 73.3168C115.345 73.3168 112.242 74.602 109.955 76.8897C107.667 79.1775 106.382 82.2803 106.382 85.5157V96.6586Z" fill="white" stroke="#263238" stroke-width="0.606912" stroke-linecap="round" stroke-linejoin="round"/>
<path d="M136.964 94.8857H99.7115V125.705H136.964V94.8857Z" fill="#9C57FF" stroke="#263238" stroke-width="0.606912" stroke-linecap="round" stroke-linejoin="round"/>
<path d="M122.216 107.686C122.175 106.637 121.73 105.644 120.974 104.916C120.217 104.189 119.208 103.782 118.159 103.782C117.109 103.782 116.1 104.189 115.344 104.916C114.587 105.644 114.142 106.637 114.101 107.686C114.105 108.407 114.305 109.114 114.68 109.73C115.056 110.346 115.592 110.848 116.232 111.181L115.552 118.179H120.765L120.086 111.181C120.725 110.848 121.262 110.346 121.637 109.73C122.012 109.114 122.213 108.407 122.216 107.686Z" fill="#263238" stroke="#263238" stroke-width="0.606912" stroke-linecap="round" stroke-linejoin="round"/>
<path d="M202.456 231.999C218.377 231.999 231.284 229.146 231.284 225.626C231.284 222.107 218.377 219.254 202.456 219.254C186.534 219.254 173.627 222.107 173.627 225.626C173.627 229.146 186.534 231.999 202.456 231.999Z" fill="#9C57FF"/>
<path opacity="0.5" d="M202.456 231.999C218.377 231.999 231.284 229.146 231.284 225.626C231.284 222.107 218.377 219.254 202.456 219.254C186.534 219.254 173.627 222.107 173.627 225.626C173.627 229.146 186.534 231.999 202.456 231.999Z" fill="white"/>
<path d="M187.38 219.108C187.38 219.108 180.388 223.041 180.388 224.935C180.388 226.828 184.703 225.663 187.526 224.328C190.348 222.993 192.587 221.997 192.587 219.375C192.587 216.754 187.38 219.108 187.38 219.108Z" fill="#9C57FF" stroke="#263238" stroke-width="0.606912" stroke-miterlimit="10"/>
<path d="M220.851 219.108C220.851 219.108 227.843 223.041 227.843 224.935C227.843 226.828 223.528 225.663 220.706 224.328C217.883 222.993 215.644 221.997 215.644 219.375C215.644 216.754 220.851 219.108 220.851 219.108Z" fill="#9C57FF" stroke="#263238" stroke-width="0.606912" stroke-miterlimit="10"/>
<path d="M190.208 154.733L187.228 219.861C187.64 220.2 188.117 220.452 188.629 220.603C189.141 220.753 189.678 220.798 190.208 220.735C191.133 220.598 191.978 220.133 192.587 219.424L202.705 166.265H204.786L215.504 220.419C216.145 220.774 216.856 220.981 217.586 221.026C218.624 221.026 220.262 219.715 220.262 219.715L216.84 154.776L190.208 154.733Z" fill="#263238" stroke="#263238" stroke-width="0.606912" stroke-miterlimit="10"/>
<path d="M200.623 115.266L187.083 120.795L190.651 152.257H216.536L221.3 119.63L206.571 114.975L200.623 115.266Z" fill="#6CC7FE" stroke="#263238" stroke-width="0.606912" stroke-miterlimit="10"/>
<path d="M202.11 119.776L203.742 122.398L201.066 144.975L204.337 149.781L207.165 144.538L204.932 122.106L206.868 119.054L204.04 117.815L202.11 119.776Z" fill="#263238" stroke="#263238" stroke-width="0.606912" stroke-miterlimit="10"/>
<path d="M204.04 117.815L201.867 121.535L197.995 116.376L200.162 113.797L204.04 117.815Z" fill="#6CC7FE" stroke="#263238" stroke-width="0.606912" stroke-miterlimit="10"/>
<path d="M204.04 117.814L206.674 121.911L209.848 116.073L207.991 113.718L204.04 117.814Z" fill="#6CC7FE" stroke="#263238" stroke-width="0.606912" stroke-miterlimit="10"/>
<path d="M198.784 126.621H189.662V129.728L194.226 131.476L198.784 129.534V126.621Z" fill="#6CC7FE" stroke="#263238" stroke-width="0.606912" stroke-miterlimit="10"/>
<path d="M217.034 126.621H207.912V129.728L212.47 131.476L217.034 129.534V126.621Z" fill="#6CC7FE" stroke="#263238" stroke-width="0.606912" stroke-miterlimit="10"/>
<path d="M216.839 151.675H190.208V154.734H216.839V151.675Z" fill="#263238" stroke="#263238" stroke-width="0.606912" stroke-miterlimit="10"/>
<path d="M189.759 154.151L185.147 156.045C185.071 157.363 185.171 158.686 185.444 159.978C185.893 161.726 186.488 165.513 186.931 166.241C187.374 166.969 189.613 168.426 189.911 167.989C190.208 167.552 191.695 154.734 191.695 154.734L189.759 154.151Z" fill="#263238" stroke="#263238" stroke-width="0.606912" stroke-miterlimit="10"/>
<path d="M200.162 108.487V113.798L204.04 117.815L207.991 113.719V108.408L200.162 108.487Z" fill="white" stroke="#263238" stroke-width="0.606912" stroke-miterlimit="10"/>
<path d="M197.455 103.558C197.455 103.558 196.757 101.962 196.289 102.951C195.822 103.941 196.368 105.452 197.066 106.059C197.58 106.431 198.216 106.594 198.845 106.514L198.456 104.238L197.455 103.558Z" fill="white" stroke="#263238" stroke-width="0.606912" stroke-miterlimit="10"/>
<path d="M210.079 103.558C210.079 103.558 210.776 101.962 211.244 102.951C211.711 103.941 211.165 105.452 210.467 106.059C209.951 106.431 209.314 106.594 208.683 106.514L209.071 104.238L210.079 103.558Z" fill="white" stroke="#263238" stroke-width="0.606912" stroke-miterlimit="10"/>
<path d="M198.772 93.0166C198.772 93.0166 195.513 94.3821 195.513 96.658C195.513 98.9339 195.98 101.513 196.757 102.503C197.534 103.492 198.147 104.172 198.147 104.172L198.304 100.906L200.55 97.0404C200.55 97.0404 204.27 99.3891 206.128 99.3891C207.166 99.3983 208.203 99.3232 209.229 99.1646L209.927 103.031L210.934 100.227V97.6473C210.934 97.6473 212.791 95.8994 212.403 94.7645C212.015 93.6295 205.727 90.0609 201.867 90.9713C198.007 91.8816 198.772 93.0166 198.772 93.0166Z" fill="#263238" stroke="#263238" stroke-width="0.606912" stroke-miterlimit="10"/>
<path d="M197.218 100.676C197.218 100.676 198.147 106.362 198.923 107.88C199.945 109.563 201.197 111.095 202.644 112.432C203.184 112.808 205.199 112.504 205.976 112.504C206.753 112.504 209.01 107.953 209.381 107.121C209.751 106.29 209.987 99.1584 209.987 99.1584L209.308 97.8717C209.308 97.8717 205.976 98.7093 203.342 97.6472C201.912 97.1351 200.633 96.2734 199.621 95.1406C199.621 95.1406 199.391 97.72 198.456 99.2373C197.521 100.755 197.218 100.676 197.218 100.676Z" fill="white" stroke="#263238" stroke-width="0.606912" stroke-miterlimit="10"/>
<path d="M203.184 101.283C202.247 100.793 201.207 100.533 200.149 100.524C199.242 100.488 198.339 100.669 197.515 101.052C197.515 101.052 197.515 103.631 198.371 104.621C199.227 105.61 201.703 105.3 202.401 104.469C203.099 103.637 203.184 101.283 203.184 101.283Z" fill="#263238" stroke="#263238" stroke-width="0.606912" stroke-miterlimit="10"/>
<path d="M204.27 101.283C205.208 100.793 206.248 100.533 207.305 100.524C208.212 100.488 209.115 100.669 209.939 101.052C209.939 101.052 209.939 103.631 209.083 104.621C208.227 105.61 205.751 105.3 205.059 104.469C204.367 103.637 204.27 101.283 204.27 101.283Z" fill="#263238" stroke="#263238" stroke-width="0.606912" stroke-miterlimit="10"/>
<path d="M203.184 101.282H204.27" stroke="#263238" stroke-width="0.606912" stroke-miterlimit="10"/>
<path d="M187.228 149.344L192.138 149.198L195.859 152.548C195.853 152.977 195.696 153.389 195.416 153.714C194.966 154.151 193.777 153.859 193.777 153.859C193.777 153.859 192.885 156.044 191.246 156.044C189.607 156.044 185.177 153.01 185.177 153.01L187.228 149.344Z" fill="white" stroke="#263238" stroke-width="0.606912" stroke-miterlimit="10"/>
<path d="M187.083 120.794L170.569 142.497L185.147 152.985L187.228 149.343L182.767 140.749L188.867 135.214L187.083 120.794Z" fill="#6CC7FE" stroke="#263238" stroke-width="0.606912" stroke-miterlimit="10"/>
<path d="M186.039 146.868L183.514 151.384" stroke="#263238" stroke-width="0.606912" stroke-linecap="round" stroke-linejoin="round"/>
<path d="M182.767 140.75L180.831 135.798" stroke="#263238" stroke-width="0.606912" stroke-linecap="round" stroke-linejoin="round"/>
<path d="M221.3 149.344L216.39 149.198L212.67 152.548C212.678 152.978 212.837 153.39 213.119 153.714C213.562 154.151 214.752 153.859 214.752 153.859C214.752 153.859 215.644 156.044 217.283 156.044C218.921 156.044 223.382 153.01 223.382 153.01L221.3 149.344Z" fill="white" stroke="#263238" stroke-width="0.606912" stroke-miterlimit="10"/>
<path d="M221.3 119.629L237.96 142.497L223.382 152.985L221.3 149.343L225.761 140.749L218.77 135.069L221.3 119.629Z" fill="#6CC7FE" stroke="#263238" stroke-width="0.606912" stroke-miterlimit="10"/>
<path d="M222.49 146.868L225.015 151.384" stroke="#263238" stroke-width="0.606912" stroke-linecap="round" stroke-linejoin="round"/>
<path d="M225.761 140.75L227.697 135.798" stroke="#263238" stroke-width="0.606912" stroke-linecap="round" stroke-linejoin="round"/>
<path d="M33.7342 231.999C49.6556 231.999 62.5625 229.146 62.5625 225.626C62.5625 222.107 49.6556 219.254 33.7342 219.254C17.8127 219.254 4.90587 222.107 4.90587 225.626C4.90587 229.146 17.8127 231.999 33.7342 231.999Z" fill="#9C57FF"/>
<path opacity="0.5" d="M33.7342 231.999C49.6556 231.999 62.5625 229.146 62.5625 225.626C62.5625 222.107 49.6556 219.254 33.7342 219.254C17.8127 219.254 4.90587 222.107 4.90587 225.626C4.90587 229.146 17.8127 231.999 33.7342 231.999Z" fill="white"/>
<path d="M18.7556 219.108C18.7556 219.108 11.764 223.041 11.764 224.935C11.764 226.828 16.0791 225.663 18.9074 224.328C21.7356 222.993 23.9629 221.997 23.9629 219.375C23.9629 216.754 18.7556 219.108 18.7556 219.108Z" fill="#9C57FF" stroke="#263238" stroke-width="0.606912" stroke-miterlimit="10"/>
<path d="M52.245 219.108C52.245 219.108 59.2367 223.041 59.2367 224.935C59.2367 226.828 54.9276 225.663 52.0994 224.328C49.2712 222.993 47.0377 221.997 47.0377 219.375C47.0377 216.754 52.245 219.108 52.245 219.108Z" fill="#9C57FF" stroke="#263238" stroke-width="0.606912" stroke-miterlimit="10"/>
<path d="M21.5839 154.733L18.61 219.861C19.0208 220.2 19.4962 220.453 20.0073 220.603C20.5185 220.753 21.0548 220.798 21.5839 220.735C22.5086 220.598 23.3532 220.133 23.9629 219.424L34.0802 166.265H36.1619L46.8739 220.444C47.5141 220.798 48.2252 221.005 48.9556 221.051C49.9995 221.051 51.6321 219.74 51.6321 219.74L48.2091 154.8L21.5839 154.733Z" fill="#263238" stroke="#263238" stroke-width="0.606912" stroke-miterlimit="10"/>
<path d="M31.9984 115.266L18.4582 120.795L22.0269 152.257H47.9177L52.6759 119.63L37.9462 114.975L31.9984 115.266Z" fill="#6CC7FE" stroke="#263238" stroke-width="0.606912" stroke-miterlimit="10"/>
<path d="M48.2152 151.675H21.5839V154.734H48.2152V151.675Z" fill="#263238" stroke="#263238" stroke-width="0.606912" stroke-miterlimit="10"/>
<path d="M21.1347 154.151L16.5222 156.045C16.4466 157.363 16.5466 158.686 16.8196 159.978C17.2687 161.726 17.8635 165.513 18.3126 166.241C18.7617 166.969 20.9891 168.426 21.2865 167.989C21.5839 167.552 23.0708 154.734 23.0708 154.734L21.1347 154.151Z" fill="#263238" stroke="#263238" stroke-width="0.606912" stroke-miterlimit="10"/>
<path d="M31.5432 108.487V113.798L35.4153 117.815L39.3663 113.719V108.408L31.5432 108.487Z" fill="white" stroke="#263238" stroke-width="0.606912" stroke-miterlimit="10"/>
<path d="M28.8304 103.558C28.8304 103.558 28.1325 101.962 27.6651 102.951C27.1978 103.941 27.744 105.452 28.442 106.059C28.9575 106.431 29.5953 106.594 30.2263 106.514L29.8379 104.238L28.8304 103.558Z" fill="white" stroke="#263238" stroke-width="0.606912" stroke-miterlimit="10"/>
<path d="M41.4541 103.558C41.4541 103.558 42.1521 101.962 42.6194 102.951C43.0867 103.941 42.5405 105.452 41.8426 106.059C41.3292 106.431 40.6934 106.594 40.0643 106.514L40.4467 104.238L41.4541 103.558Z" fill="white" stroke="#263238" stroke-width="0.606912" stroke-miterlimit="10"/>
<path d="M30.1473 93.0166C30.1473 93.0166 26.8943 94.3821 26.8943 96.658C26.8943 98.9339 27.3556 101.513 28.1081 102.503C28.8607 103.492 29.504 104.172 29.504 104.172L29.6557 100.906L31.9013 97.0404C31.9013 97.0404 35.6217 99.3891 37.4788 99.3891C38.517 99.3983 39.5542 99.3232 40.5802 99.1646L41.2781 103.031L42.2856 100.227V97.6473C42.2856 97.6473 44.1427 95.8994 43.7543 94.7645C43.3659 93.6295 37.0783 90.0609 33.2183 90.9713C29.3584 91.8816 30.1473 93.0166 30.1473 93.0166Z" fill="#263238" stroke="#263238" stroke-width="0.606912" stroke-miterlimit="10"/>
<path d="M28.5755 100.676C28.5755 100.676 29.5101 106.362 30.2809 107.88C31.3148 109.567 32.5792 111.101 34.0377 112.438C34.5778 112.814 36.5928 112.51 37.3696 112.51C38.1465 112.51 40.4042 107.959 40.7805 107.127C41.1567 106.296 41.3874 99.1645 41.3874 99.1645L40.7137 97.8717C40.7137 97.8717 37.3817 98.7093 34.7477 97.6472C33.318 97.1351 32.039 96.2734 31.0274 95.1406C31.0274 95.1406 30.7968 97.72 29.8682 99.2373C28.9396 100.755 28.5755 100.676 28.5755 100.676Z" fill="white" stroke="#263238" stroke-width="0.606912" stroke-miterlimit="10"/>
<path d="M34.5596 101.283C33.6224 100.793 32.5824 100.533 31.5251 100.524C30.6176 100.488 29.7146 100.669 28.8911 101.052C28.8911 101.052 28.8911 103.631 29.7407 104.621C30.5904 105.61 33.0727 105.3 33.7706 104.469C34.4686 103.637 34.5596 101.283 34.5596 101.283Z" fill="#263238" stroke="#263238" stroke-width="0.606912" stroke-miterlimit="10"/>
<path d="M35.646 101.283C36.5832 100.793 37.6232 100.533 38.6806 100.524C39.588 100.488 40.491 100.669 41.3145 101.052C41.3145 101.052 41.3146 103.631 40.4588 104.621C39.6031 105.61 37.1329 105.3 36.435 104.469C35.737 103.637 35.646 101.283 35.646 101.283Z" fill="#263238" stroke="#263238" stroke-width="0.606912" stroke-miterlimit="10"/>
<path d="M34.5596 101.282H35.6459" stroke="#263238" stroke-width="0.606912" stroke-miterlimit="10"/>
<path d="M33.4853 119.776L35.1179 122.398L32.4414 144.975L35.7188 149.781L38.5409 144.538L36.3135 122.106L38.2435 119.054L35.4153 117.815L33.4853 119.776Z" fill="#263238" stroke="#263238" stroke-width="0.606912" stroke-miterlimit="10"/>
<path d="M35.4153 117.815L33.2425 121.535L29.3704 116.376L31.5432 113.797L35.4153 117.815Z" fill="#6CC7FE" stroke="#263238" stroke-width="0.606912" stroke-miterlimit="10"/>
<path d="M35.4153 117.814L38.0493 121.911L41.2235 116.073L39.3663 113.718L35.4153 117.814Z" fill="#6CC7FE" stroke="#263238" stroke-width="0.606912" stroke-miterlimit="10"/>
<path d="M18.4583 120.794L1.94422 142.497L16.5222 152.985L18.61 149.343L14.1431 140.749L20.2426 135.214L18.4583 120.794Z" fill="#6CC7FE" stroke="#263238" stroke-width="0.606912" stroke-miterlimit="10"/>
<path d="M18.6099 149.344L23.5138 149.198L27.2341 152.548C27.2282 152.977 27.0713 153.389 26.7911 153.714C26.342 154.151 25.1524 153.859 25.1524 153.859C25.1524 153.859 24.2603 156.044 22.6216 156.044C20.9829 156.044 16.5525 153.01 16.5525 153.01L18.6099 149.344Z" fill="white" stroke="#263238" stroke-width="0.606912" stroke-miterlimit="10"/>
<path d="M17.4203 146.868L14.8895 151.384" stroke="#263238" stroke-width="0.606912" stroke-linecap="round" stroke-linejoin="round"/>
<path d="M14.1431 140.75L12.2131 135.798" stroke="#263238" stroke-width="0.606912" stroke-linecap="round" stroke-linejoin="round"/>
<path d="M52.676 119.629L69.3357 142.497L54.7577 152.985L52.676 149.343L57.1368 140.749L50.1452 135.069L52.676 119.629Z" fill="#6CC7FE" stroke="#263238" stroke-width="0.606912" stroke-miterlimit="10"/>
<path d="M52.676 149.344L47.7661 149.198L44.0457 152.548C44.0533 152.978 44.2124 153.39 44.4948 153.714C44.9378 154.151 46.1274 153.859 46.1274 153.859C46.1274 153.859 47.0196 156.044 48.6582 156.044C50.2969 156.044 54.7273 153.01 54.7273 153.01L52.676 149.344Z" fill="white" stroke="#263238" stroke-width="0.606912" stroke-miterlimit="10"/>
<path d="M53.8654 146.868L56.3962 151.384" stroke="#263238" stroke-width="0.606912" stroke-linecap="round" stroke-linejoin="round"/>
<path d="M57.1367 140.75L59.0728 135.798" stroke="#263238" stroke-width="0.606912" stroke-linecap="round" stroke-linejoin="round"/>
<path d="M30.1595 126.621H21.0376V129.728L25.6016 131.476L30.1595 129.534V126.621Z" fill="#6CC7FE" stroke="#263238" stroke-width="0.606912" stroke-miterlimit="10"/>
<path d="M48.4093 126.621H39.2874V129.728L43.8514 131.476L48.4093 129.534V126.621Z" fill="#6CC7FE" stroke="#263238" stroke-width="0.606912" stroke-miterlimit="10"/>
</svg>
