<svg width="284" height="348" viewBox="0 0 284 348" fill="none" xmlns="http://www.w3.org/2000/svg">
<g clip-path="url(#clip0_1619_5610)">
<path d="M217.435 144.382C218.247 144.382 219.027 144.705 219.601 145.28C220.176 145.854 220.499 146.634 220.499 147.446V241.97C220.486 245.026 219.267 247.954 217.105 250.115C214.944 252.276 212.016 253.496 208.96 253.508H87.9444C84.888 253.496 81.9602 252.276 79.7989 250.115C77.6377 247.954 76.4181 245.026 76.4058 241.97V147.446C76.4058 146.634 76.7286 145.854 77.3032 145.28C77.8778 144.705 78.6571 144.382 79.4697 144.382H217.435ZM214.378 150.502H82.5259V241.97C82.5154 242.684 82.6484 243.393 82.917 244.056C83.1855 244.718 83.5843 245.319 84.0895 245.825C84.5948 246.33 85.1963 246.729 85.8585 246.997C86.5206 247.266 87.2299 247.399 87.9444 247.388H208.96C209.674 247.399 210.384 247.266 211.046 246.997C211.708 246.729 212.31 246.33 212.815 245.825C213.32 245.319 213.719 244.718 213.987 244.056C214.256 243.393 214.389 242.684 214.378 241.97V150.502Z" fill="url(#paint0_linear_1619_5610)"/>
<path d="M164.965 144.398V253.501H131.939V144.398H164.965ZM158.845 150.518H138.06V247.38H158.845V150.518Z" fill="url(#paint1_linear_1619_5610)"/>
<path d="M92.8409 54.303C94.2317 54.316 95.6055 54.6104 96.8795 55.1684L228.755 112.815C231.284 113.933 233.269 116.004 234.278 118.579C235.287 121.153 235.238 124.021 234.143 126.56L231.188 133.319C230.07 135.848 227.998 137.832 225.423 138.84C222.849 139.848 219.98 139.797 217.443 138.699L85.5591 81.0602C83.0299 79.9406 81.0455 77.8672 80.0379 75.2913C79.0303 72.7154 79.0813 69.8458 80.1796 67.3073L83.1344 60.5557C83.9661 58.6814 85.3286 57.0919 87.0536 55.9835C88.7786 54.875 90.7906 54.2962 92.8409 54.3186V54.303ZM91.1102 60.6804C90.5857 60.8975 90.1092 61.2158 89.7079 61.6171C89.3066 62.0184 88.9883 62.4949 88.7712 63.0193L85.7852 69.7944C85.549 70.3126 85.4194 70.8731 85.4041 71.4424C85.3887 72.0118 85.488 72.5784 85.696 73.1086C85.904 73.6388 86.2165 74.1217 86.6149 74.5288C87.0132 74.9358 87.4894 75.2586 88.015 75.478L219.891 133.124C220.409 133.363 220.97 133.494 221.539 133.511C222.109 133.527 222.677 133.428 223.207 133.22C223.738 133.012 224.222 132.698 224.628 132.299C225.035 131.899 225.357 131.422 225.574 130.895L228.529 124.143C228.768 123.625 228.899 123.063 228.916 122.493C228.932 121.922 228.834 121.354 228.625 120.823C228.417 120.291 228.104 119.808 227.704 119.4C227.305 118.993 226.827 118.67 226.299 118.452L94.4314 60.774C93.3803 60.3046 92.186 60.271 91.1102 60.6804Z" fill="black"/>
<path d="M215.018 58.8795C216.661 59.4725 218.183 60.3602 219.508 61.499C222.214 63.8379 224.124 67.2995 225.137 71.7357C226.151 76.1718 225.917 80.0856 224.467 83.3211C222.968 86.4611 220.428 88.9847 217.279 90.4626C211.112 93.5812 203.058 93.9554 194.903 93.4798C178.593 92.5209 161.698 87.539 161.698 87.539L156.241 85.9329L160.614 82.253C160.614 82.253 173.829 71.1042 188.284 63.8614C195.511 60.236 203.05 57.4527 209.981 57.8581C211.709 57.9495 213.413 58.2936 215.041 58.8795H215.018ZM215.509 66.1301C213.845 64.7529 211.759 63.9903 209.599 63.9705C204.68 63.682 197.772 65.9352 191.005 69.3266C183.39 73.2263 176.173 77.8585 169.456 83.1574C177.904 85.3776 186.545 86.7873 195.262 87.3675C202.91 87.8196 210.215 87.1569 214.534 84.9895C216.441 84.1601 217.987 82.6747 218.892 80.8029C219.672 79.0253 219.976 76.6006 219.173 73.0923C218.37 69.5839 217.06 67.4555 215.501 66.1067L215.509 66.1301Z" fill="black"/>
<path d="M145.817 28.6059C147.354 29.3904 148.767 30.3965 150.012 31.5919C155.025 36.4101 158.104 43.8323 160.35 51.5975C164.825 67.159 165.605 84.428 165.605 84.428L165.885 90.135L160.981 87.2035C160.981 87.2035 145.849 78.1909 134.068 66.8628C128.182 61.2026 123.005 55.0201 121.087 48.3931C120.033 45.0746 120.16 41.4935 121.446 38.2578C122.826 34.9911 125.555 32.1611 129.499 29.9001C133.444 27.6392 137.296 26.6802 140.835 27.0778C142.572 27.2803 144.257 27.7954 145.81 28.5981L145.817 28.6059ZM140.157 33.1512C138.13 32.9251 135.674 33.4007 132.556 35.1939C129.437 36.987 127.878 38.8426 127.098 40.6513C126.34 42.5843 126.298 44.7248 126.981 46.6857C128.33 51.3636 132.797 57.1407 138.325 62.4578C144.672 68.4543 151.574 73.8346 158.939 78.5262C158.27 70.0013 156.772 61.5619 154.464 53.3283C152.359 46.0542 149.318 39.4507 145.763 36.0359C144.28 34.4673 142.304 33.4546 140.165 33.1668L140.157 33.1512Z" fill="black"/>
<path d="M148.258 76.0315L178.531 89.2854L177.299 92.0921L166.634 116.495L136.368 103.241L148.258 76.0315ZM151.423 84.093L144.406 100.083L163.453 108.41L170.47 92.4195L151.423 84.093Z" fill="black"/>
<path d="M82.5652 128.267C82.7172 128.132 82.8439 127.971 82.9394 127.792C83.0747 127.517 83.1261 127.209 83.0872 126.905C83.0484 126.602 82.9211 126.316 82.7212 126.084L76.1566 118.491L77.981 116.931C78.998 116.058 79.8329 114.993 80.4379 113.797C81.0429 112.6 81.4061 111.297 81.5068 109.96C81.6074 108.623 81.4436 107.28 81.0245 106.006C80.6055 104.733 79.9395 103.555 79.0647 102.539L64.7193 86.0109C62.9509 83.9687 60.444 82.7123 57.7496 82.5179C55.0552 82.3235 52.3938 83.2069 50.3506 84.974L15.5241 115.099C13.4827 116.868 12.2261 119.374 12.0303 122.068C11.8344 124.761 12.7152 127.423 14.4794 129.468L28.7858 146.004C30.5539 148.044 33.0593 149.299 35.7518 149.493C38.4443 149.688 41.1039 148.806 43.1467 147.041L65.7562 127.511L81.466 128.642C81.8669 128.663 82.2607 128.529 82.5652 128.267ZM52.3777 87.3051C53.7996 86.0747 55.6519 85.459 57.5275 85.5935C59.4031 85.728 61.1485 86.6016 62.3804 88.0224L76.7258 104.574C77.9533 105.998 78.5663 107.85 78.4304 109.725C78.2944 111.6 77.4207 113.345 76.0007 114.577L72.9991 117.165C72.6916 117.436 72.503 117.816 72.4738 118.225C72.4446 118.633 72.5773 119.037 72.8432 119.348L77.981 125.289L65.3196 124.369C64.9108 124.341 64.5075 124.476 64.197 124.743L41.1275 144.694C39.7045 145.924 37.8516 146.538 35.976 146.402C34.1004 146.266 32.3555 145.391 31.1247 143.969L16.8183 127.433C15.5908 126.009 14.9778 124.157 15.1137 122.282C15.2496 120.407 16.1233 118.662 17.5434 117.43L52.3777 87.3051Z" fill="url(#paint2_linear_1619_5610)"/>
<path d="M60.9614 108.885C62.912 108.885 64.4932 107.304 64.4932 105.354C64.4932 103.403 62.912 101.822 60.9614 101.822C59.0109 101.822 57.4297 103.403 57.4297 105.354C57.4297 107.304 59.0109 108.885 60.9614 108.885Z" fill="url(#paint3_linear_1619_5610)"/>
<path d="M49.8669 119.601C51.3421 118.324 51.5035 116.094 50.2274 114.619C48.9514 113.144 46.721 112.982 45.2458 114.258C43.7706 115.534 43.6092 117.765 44.8852 119.24C46.1613 120.715 48.3917 120.877 49.8669 119.601Z" fill="url(#paint4_linear_1619_5610)"/>
<path d="M34.1573 132.064C36.1078 132.064 37.689 130.483 37.689 128.532C37.689 126.582 36.1078 125 34.1573 125C32.2067 125 30.6255 126.582 30.6255 128.532C30.6255 130.483 32.2067 132.064 34.1573 132.064Z" fill="url(#paint5_linear_1619_5610)"/>
<path d="M92.8409 54.303C94.2317 54.316 95.6055 54.6104 96.8795 55.1684L228.755 112.815C231.284 113.933 233.269 116.004 234.278 118.579C235.287 121.153 235.238 124.021 234.143 126.56L231.188 133.319C230.07 135.848 227.998 137.832 225.423 138.84C222.849 139.848 219.98 139.797 217.443 138.699L85.5591 81.0602C83.0299 79.9406 81.0455 77.8672 80.0379 75.2913C79.0303 72.7154 79.0813 69.8458 80.1796 67.3073L83.1344 60.5557C83.9661 58.6814 85.3286 57.0919 87.0536 55.9835C88.7786 54.875 90.7906 54.2962 92.8409 54.3186V54.303ZM91.1102 60.6804C90.5857 60.8975 90.1092 61.2158 89.7079 61.6171C89.3066 62.0184 88.9883 62.4949 88.7712 63.0193L85.7852 69.7944C85.549 70.3126 85.4194 70.8731 85.4041 71.4424C85.3887 72.0118 85.488 72.5784 85.696 73.1086C85.904 73.6388 86.2165 74.1217 86.6149 74.5288C87.0132 74.9358 87.4894 75.2586 88.015 75.478L219.891 133.124C220.409 133.363 220.97 133.494 221.539 133.511C222.109 133.527 222.677 133.428 223.207 133.22C223.738 133.012 224.222 132.698 224.628 132.299C225.035 131.899 225.357 131.422 225.574 130.895L228.529 124.143C228.768 123.625 228.899 123.063 228.916 122.493C228.932 121.922 228.834 121.354 228.625 120.823C228.417 120.291 228.104 119.808 227.704 119.4C227.305 118.993 226.827 118.67 226.299 118.452L94.4314 60.774C93.3803 60.3046 92.186 60.271 91.1102 60.6804Z" fill="url(#paint6_linear_1619_5610)"/>
<path d="M215.018 58.8795C216.661 59.4725 218.183 60.3602 219.508 61.499C222.214 63.8379 224.124 67.2995 225.137 71.7357C226.151 76.1718 225.917 80.0856 224.467 83.3211C222.968 86.4611 220.428 88.9847 217.279 90.4626C211.112 93.5812 203.058 93.9554 194.903 93.4798C178.593 92.5209 161.698 87.539 161.698 87.539L156.241 85.9329L160.614 82.253C160.614 82.253 173.829 71.1042 188.284 63.8614C195.511 60.236 203.05 57.4527 209.981 57.8581C211.709 57.9495 213.413 58.2936 215.041 58.8795H215.018ZM215.509 66.1301C213.845 64.7529 211.759 63.9903 209.599 63.9705C204.68 63.682 197.772 65.9352 191.005 69.3266C183.39 73.2263 176.173 77.8585 169.456 83.1574C177.904 85.3776 186.545 86.7873 195.262 87.3675C202.91 87.8196 210.215 87.1569 214.534 84.9895C216.441 84.1601 217.987 82.6747 218.892 80.8029C219.672 79.0253 219.976 76.6006 219.173 73.0923C218.37 69.5839 217.06 67.4555 215.501 66.1067L215.509 66.1301Z" fill="url(#paint7_linear_1619_5610)"/>
<path d="M145.817 28.6059C147.354 29.3904 148.767 30.3965 150.012 31.5919C155.025 36.4101 158.104 43.8323 160.35 51.5975C164.825 67.159 165.605 84.428 165.605 84.428L165.885 90.135L160.981 87.2035C160.981 87.2035 145.849 78.1909 134.068 66.8628C128.182 61.2026 123.005 55.0201 121.087 48.3931C120.033 45.0746 120.16 41.4935 121.446 38.2578C122.826 34.9911 125.555 32.1611 129.499 29.9001C133.444 27.6392 137.296 26.6802 140.835 27.0778C142.572 27.2803 144.257 27.7954 145.81 28.5981L145.817 28.6059ZM140.157 33.1512C138.13 32.9251 135.674 33.4007 132.556 35.1939C129.437 36.987 127.878 38.8426 127.098 40.6513C126.34 42.5843 126.298 44.7248 126.981 46.6857C128.33 51.3636 132.797 57.1407 138.325 62.4578C144.672 68.4543 151.574 73.8346 158.939 78.5262C158.27 70.0013 156.772 61.5619 154.464 53.3283C152.359 46.0542 149.318 39.4507 145.763 36.0359C144.28 34.4673 142.304 33.4546 140.165 33.1668L140.157 33.1512Z" fill="url(#paint8_linear_1619_5610)"/>
<path d="M148.258 76.0315L178.531 89.2854L177.299 92.0921L166.634 116.495L136.368 103.241L148.258 76.0315ZM151.423 84.093L144.406 100.083L163.453 108.41L170.47 92.4195L151.423 84.093Z" fill="url(#paint9_linear_1619_5610)"/>
<path d="M82.5652 128.267C82.7172 128.132 82.8439 127.971 82.9394 127.792C83.0747 127.517 83.1261 127.209 83.0872 126.905C83.0484 126.602 82.9211 126.316 82.7212 126.084L76.1566 118.491L77.981 116.931C78.998 116.058 79.8329 114.993 80.4379 113.797C81.0429 112.6 81.4061 111.297 81.5068 109.96C81.6074 108.623 81.4436 107.28 81.0245 106.006C80.6055 104.733 79.9395 103.555 79.0647 102.539L64.7193 86.0109C62.9509 83.9687 60.444 82.7123 57.7496 82.5179C55.0552 82.3235 52.3938 83.2069 50.3506 84.974L15.5241 115.099C13.4827 116.868 12.2261 119.374 12.0303 122.068C11.8344 124.761 12.7152 127.423 14.4794 129.468L28.7858 146.004C30.5539 148.044 33.0593 149.299 35.7518 149.493C38.4443 149.688 41.1039 148.806 43.1467 147.041L65.7562 127.511L81.466 128.642C81.8669 128.663 82.2607 128.529 82.5652 128.267ZM52.3777 87.3051C53.7996 86.0747 55.6519 85.459 57.5275 85.5935C59.4031 85.728 61.1485 86.6016 62.3804 88.0224L76.7258 104.574C77.9533 105.998 78.5663 107.85 78.4304 109.725C78.2944 111.6 77.4207 113.345 76.0007 114.577L72.9991 117.165C72.6916 117.436 72.503 117.816 72.4738 118.225C72.4446 118.633 72.5773 119.037 72.8432 119.348L77.981 125.289L65.3196 124.369C64.9108 124.341 64.5075 124.476 64.197 124.743L41.1275 144.694C39.7045 145.924 37.8516 146.538 35.976 146.402C34.1004 146.266 32.3555 145.391 31.1247 143.969L16.8183 127.433C15.5908 126.009 14.9778 124.157 15.1137 122.282C15.2496 120.407 16.1233 118.662 17.5434 117.43L52.3777 87.3051Z" fill="url(#paint10_linear_1619_5610)"/>
<path d="M60.9614 108.885C62.912 108.885 64.4932 107.304 64.4932 105.354C64.4932 103.403 62.912 101.822 60.9614 101.822C59.0109 101.822 57.4297 103.403 57.4297 105.354C57.4297 107.304 59.0109 108.885 60.9614 108.885Z" fill="url(#paint11_linear_1619_5610)"/>
<path d="M49.8669 119.601C51.3421 118.324 51.5035 116.094 50.2274 114.619C48.9514 113.144 46.721 112.982 45.2458 114.258C43.7706 115.534 43.6092 117.765 44.8852 119.24C46.1613 120.715 48.3917 120.877 49.8669 119.601Z" fill="url(#paint12_linear_1619_5610)"/>
<path d="M34.1573 132.064C36.1078 132.064 37.689 130.483 37.689 128.532C37.689 126.582 36.1078 125 34.1573 125C32.2067 125 30.6255 126.582 30.6255 128.532C30.6255 130.483 32.2067 132.064 34.1573 132.064Z" fill="url(#paint13_linear_1619_5610)"/>
<path d="M115.372 266.84L90.8368 301.682L106.079 301.729C108.418 301.729 110.213 301.225 111.466 300.217C112.719 299.208 113.836 297.129 114.818 293.979L115.723 294.143L113.937 303.982L83.6797 303.889V302.906L107.63 269.047H95.7407C94.2804 268.954 92.8169 269.169 91.4449 269.678C90.5919 270.073 89.8814 270.721 89.4101 271.534C88.7514 272.98 88.3176 274.518 88.1236 276.095H87.0789L87.8586 266.801L115.372 266.84Z" fill="url(#paint14_linear_1619_5610)"/>
<path d="M126.506 265.07L126.443 283.415C128.486 281.193 130.092 279.767 131.285 279.143C132.377 278.541 133.601 278.22 134.848 278.207C136.172 278.178 137.466 278.598 138.52 279.4C139.652 280.359 140.445 281.658 140.781 283.104C141.212 285.213 141.383 287.368 141.288 289.52V298.4C141.214 299.503 141.341 300.609 141.662 301.667C141.846 302.109 142.173 302.477 142.59 302.711C143.351 303.027 144.176 303.161 144.999 303.101V304.084H132.665V303.101H133.242C134.091 303.186 134.945 303.001 135.682 302.571C136.17 302.174 136.51 301.625 136.649 301.012C136.729 300.154 136.758 299.292 136.735 298.431V289.551C136.829 287.743 136.693 285.93 136.329 284.156C136.108 283.375 135.63 282.691 134.973 282.215C134.31 281.771 133.525 281.545 132.727 281.568C131.755 281.581 130.799 281.821 129.936 282.269C128.615 283.017 127.433 283.987 126.443 285.138L126.397 298.392C126.327 299.471 126.421 300.554 126.677 301.604C126.908 302.063 127.284 302.433 127.745 302.657C128.6 303.005 129.522 303.154 130.443 303.093V304.076L117.969 304.037V303.055C118.873 303.098 119.775 302.922 120.596 302.54C121.007 302.314 121.32 301.945 121.477 301.503C121.766 300.49 121.882 299.436 121.82 298.384L121.945 275.619C122.003 273.852 121.941 272.084 121.758 270.325C121.698 269.822 121.477 269.351 121.126 268.984C120.806 268.73 120.404 268.603 119.996 268.626C119.354 268.675 118.724 268.819 118.125 269.054L117.75 268.095L125.266 265.047L126.506 265.07Z" fill="url(#paint15_linear_1619_5610)"/>
<path d="M151.345 288.475C151.314 292.202 152.21 295.128 154.035 297.254C154.798 298.236 155.772 299.033 156.886 299.587C157.999 300.14 159.223 300.435 160.467 300.45C162.005 300.489 163.513 300.018 164.755 299.11C166.204 297.875 167.27 296.252 167.827 294.432L168.676 294.985C168.26 297.544 167.087 299.92 165.308 301.807C164.448 302.796 163.38 303.584 162.181 304.113C160.982 304.643 159.68 304.902 158.37 304.871C156.902 304.879 155.451 304.567 154.115 303.959C152.78 303.35 151.593 302.459 150.636 301.347C148.494 298.993 147.431 295.832 147.447 291.867C147.447 287.579 148.557 284.234 150.776 281.833C151.819 280.672 153.102 279.751 154.535 279.133C155.969 278.516 157.519 278.216 159.079 278.254C160.366 278.216 161.647 278.445 162.84 278.928C164.033 279.412 165.113 280.138 166.01 281.061C167.814 282.916 168.71 285.398 168.7 288.506L151.345 288.475ZM151.345 286.916H162.962C162.957 285.76 162.768 284.613 162.4 283.517C161.975 282.528 161.267 281.687 160.366 281.1C159.528 280.536 158.545 280.227 157.535 280.211C156.773 280.215 156.019 280.373 155.319 280.674C154.618 280.976 153.985 281.415 153.458 281.965C152.187 283.299 151.44 285.045 151.353 286.885L151.345 286.916Z" fill="url(#paint16_linear_1619_5610)"/>
<path d="M179.389 270.855V279.104H185.259V281.077H179.397L179.342 297.355C179.342 298.985 179.568 300.084 180.028 300.645C180.24 300.917 180.513 301.136 180.824 301.285C181.135 301.434 181.476 301.509 181.821 301.503C182.451 301.501 183.065 301.308 183.583 300.949C184.175 300.54 184.633 299.965 184.901 299.297H185.969C185.468 300.876 184.52 302.276 183.24 303.327C182.224 304.177 180.947 304.653 179.623 304.676C178.753 304.665 177.902 304.42 177.159 303.967C176.366 303.508 175.742 302.805 175.381 301.963C174.933 300.674 174.743 299.31 174.82 297.948L174.875 281.061H170.898V280.157C172.048 279.665 173.104 278.976 174.017 278.122C175.106 277.12 176.053 275.973 176.832 274.715C177.507 273.488 178.099 272.217 178.601 270.91L179.389 270.855Z" fill="url(#paint17_linear_1619_5610)"/>
<path d="M199.947 278.426C201.706 278.378 203.452 278.749 205.04 279.506C206.628 280.264 208.014 281.387 209.085 282.784C211.011 285.196 212.038 288.203 211.993 291.29C211.957 293.657 211.398 295.986 210.355 298.112C209.449 300.208 207.939 301.988 206.017 303.222C204.095 304.457 201.849 305.09 199.565 305.043C197.803 305.091 196.057 304.7 194.484 303.905C192.91 303.11 191.559 301.936 190.553 300.489C188.697 298.019 187.713 295.003 187.754 291.913C187.782 289.521 188.378 287.17 189.492 285.053C190.471 282.968 192.045 281.218 194.014 280.024C195.811 278.964 197.861 278.412 199.947 278.426ZM199.09 280.203C198.058 280.223 197.051 280.519 196.174 281.061C195.07 281.782 194.232 282.844 193.788 284.086C193.129 285.865 192.824 287.756 192.891 289.652C192.794 292.939 193.535 296.196 195.043 299.117C196.488 301.768 198.398 303.099 200.774 303.109C201.626 303.12 202.469 302.928 203.232 302.548C203.996 302.169 204.657 301.613 205.163 300.926C206.317 299.466 206.899 296.955 206.909 293.395C206.909 288.935 205.963 285.424 204.072 282.862C203.531 282.046 202.796 281.376 201.934 280.912C201.071 280.448 200.108 280.205 199.129 280.203H199.09Z" fill="url(#paint18_linear_1619_5610)"/>
</g>
<defs>
<linearGradient id="paint0_linear_1619_5610" x1="76.7099" y1="199.3" x2="220.163" y2="199.3" gradientUnits="userSpaceOnUse">
<stop stop-color="#9C57FF"/>
<stop offset="1" stop-color="#6CC7FE"/>
</linearGradient>
<linearGradient id="paint1_linear_1619_5610" x1="132.064" y1="199.3" x2="164.809" y2="199.3" gradientUnits="userSpaceOnUse">
<stop stop-color="#9C57FF"/>
<stop offset="1" stop-color="#6CC7FE"/>
</linearGradient>
<linearGradient id="paint2_linear_1619_5610" x1="11.6895" y1="118.43" x2="82.1691" y2="113.514" gradientUnits="userSpaceOnUse">
<stop stop-color="#9C57FF"/>
<stop offset="1" stop-color="#6CC7FE"/>
</linearGradient>
<linearGradient id="paint3_linear_1619_5610" x1="57.4578" y1="105.57" x2="64.5042" y2="105.078" gradientUnits="userSpaceOnUse">
<stop stop-color="#9C57FF"/>
<stop offset="1" stop-color="#6CC7FE"/>
</linearGradient>
<linearGradient id="paint4_linear_1619_5610" x1="44.0326" y1="117.167" x2="51.079" y2="116.676" gradientUnits="userSpaceOnUse">
<stop stop-color="#9C57FF"/>
<stop offset="1" stop-color="#6CC7FE"/>
</linearGradient>
<linearGradient id="paint5_linear_1619_5610" x1="30.6508" y1="128.76" x2="37.6972" y2="128.268" gradientUnits="userSpaceOnUse">
<stop stop-color="#9C57FF"/>
<stop offset="1" stop-color="#6CC7FE"/>
</linearGradient>
<linearGradient id="paint6_linear_1619_5610" x1="59.558" y1="51.5586" x2="247.841" y2="136.149" gradientUnits="userSpaceOnUse">
<stop stop-color="#9C57FF"/>
<stop offset="1" stop-color="#6CC7FE"/>
</linearGradient>
<linearGradient id="paint7_linear_1619_5610" x1="232.638" y1="76.1172" x2="163.25" y2="79.6256" gradientUnits="userSpaceOnUse">
<stop stop-color="#6CC7FE"/>
<stop offset="1" stop-color="#9C57FF"/>
</linearGradient>
<linearGradient id="paint8_linear_1619_5610" x1="113.353" y1="43.7621" x2="188.198" y2="71.0494" gradientUnits="userSpaceOnUse">
<stop stop-color="#9C57FF"/>
<stop offset="1" stop-color="#6CC7FE"/>
</linearGradient>
<linearGradient id="paint9_linear_1619_5610" x1="134.403" y1="103.405" x2="184.69" y2="87.0322" gradientUnits="userSpaceOnUse">
<stop stop-color="#9C57FF"/>
<stop offset="1" stop-color="#6CC7FE"/>
</linearGradient>
<linearGradient id="paint10_linear_1619_5610" x1="11.6895" y1="118.43" x2="82.1691" y2="113.514" gradientUnits="userSpaceOnUse">
<stop stop-color="#9C57FF"/>
<stop offset="1" stop-color="#6CC7FE"/>
</linearGradient>
<linearGradient id="paint11_linear_1619_5610" x1="57.4578" y1="105.57" x2="64.5042" y2="105.078" gradientUnits="userSpaceOnUse">
<stop stop-color="#9C57FF"/>
<stop offset="1" stop-color="#6CC7FE"/>
</linearGradient>
<linearGradient id="paint12_linear_1619_5610" x1="44.0326" y1="117.167" x2="51.079" y2="116.676" gradientUnits="userSpaceOnUse">
<stop stop-color="#9C57FF"/>
<stop offset="1" stop-color="#6CC7FE"/>
</linearGradient>
<linearGradient id="paint13_linear_1619_5610" x1="30.6508" y1="128.76" x2="37.6972" y2="128.268" gradientUnits="userSpaceOnUse">
<stop stop-color="#9C57FF"/>
<stop offset="1" stop-color="#6CC7FE"/>
</linearGradient>
<linearGradient id="paint14_linear_1619_5610" x1="83.6797" y1="285.053" x2="211.993" y2="285.053" gradientUnits="userSpaceOnUse">
<stop stop-color="#9C57FF"/>
<stop offset="1" stop-color="#6CC7FE"/>
</linearGradient>
<linearGradient id="paint15_linear_1619_5610" x1="83.6803" y1="285.053" x2="211.993" y2="285.053" gradientUnits="userSpaceOnUse">
<stop stop-color="#9C57FF"/>
<stop offset="1" stop-color="#6CC7FE"/>
</linearGradient>
<linearGradient id="paint16_linear_1619_5610" x1="83.6804" y1="285.053" x2="211.993" y2="285.053" gradientUnits="userSpaceOnUse">
<stop stop-color="#9C57FF"/>
<stop offset="1" stop-color="#6CC7FE"/>
</linearGradient>
<linearGradient id="paint17_linear_1619_5610" x1="83.6802" y1="285.053" x2="211.993" y2="285.053" gradientUnits="userSpaceOnUse">
<stop stop-color="#9C57FF"/>
<stop offset="1" stop-color="#6CC7FE"/>
</linearGradient>
<linearGradient id="paint18_linear_1619_5610" x1="83.6796" y1="285.053" x2="211.993" y2="285.053" gradientUnits="userSpaceOnUse">
<stop stop-color="#9C57FF"/>
<stop offset="1" stop-color="#6CC7FE"/>
</linearGradient>
<clipPath id="clip0_1619_5610">
<rect width="223" height="294.532" fill="white" transform="translate(12 27)"/>
</clipPath>
</defs>
</svg>
